<svg fill="none" xmlns="http://www.w3.org/2000/svg" viewBox="0 0 84 31">
  <g clip-path="url(#a)" fill="currentColor">
    <path d="m49.42 16.67-.27.4a9.01 9.01 0 0 1-2.74 2.75 6.7 6.7 0 0 1-4.94.9c-.89-.19-1.72-.69-2.56-1.09-.2-.09-.3-.09-.47.01-.72.43-1.42.9-2.18 1.23a6.4 6.4 0 0 1-4.25.53 6.18 6.18 0 0 1-2.45-1.4c-.5-.44-.54-.44-1.06-.01-.93.77-2 1.27-3.14 1.68-1.4.5-2.84.82-4.31.96-1.8.18-3.47-.13-4.68-1.6a3.73 3.73 0 0 1-.64-4c.65-1.57 1.4-3.1 2.12-4.64l1.1-2.42c.06-.15.09-.32.1-.49.01-.3.07-.63-.27-.81-.36-.19-.78-.15-1.04.18-.33.41-.62.86-.86 1.33-.8 1.55-1.59 3.12-2.37 4.68l-1.77 3.51c-.56 1.1-1.62 1.53-2.77 1.1a1.04 1.04 0 0 1-.7-.87 3.3 3.3 0 0 1 .34-1.72l1.43-3.62c.26-.65.51-1.3.75-1.96.17-.45.22-.94.03-1.39-.16-.34-.45-.6-.87-.56-.46.04-.82.28-1 .71l-1.78 4.51c-.71 1.8-1.41 3.61-2.16 5.4-.27.66-.69 1.26-1.38 1.54-.36.15-.76.23-1.14.24a3.27 3.27 0 0 1-2.91-1.4 3 3 0 0 1-.42-2.63c.24-.88.5-1.75.75-2.63l.77-2.47c.24-.76.47-1.54.73-2.3.5-1.5.92-3.04 1.73-4.4a4.08 4.08 0 0 1 2.48-1.77c1.07-.33 2 .08 2.91.54.35.18.7.36 1.05.51.5.21.95.08 1.36-.25.33-.27.66-.54.96-.84.76-.74 2.4-.88 3.2-.01.19.2.4.36.61.55.42.37.6.4 1.08.13 1.15-.65 2.35-.56 3.52-.15.69.25 1.1.83 1.36 1.52a3.9 3.9 0 0 1-.17 2.94c-.7 1.75-1.47 3.47-2.16 5.23-.41 1.05-.76 2.12-1.05 3.2-.12.44-.12.96 0 1.4.16.67.77.9 1.4.97.93.12 1.86-.05 2.76-.3.77-.22 1.53-.48 2.29-.75.36-.14.7-.34 1.05-.52.3-.15.32-.37.16-.64-.32-.57-.65-1.13-.94-1.71-.6-1.24-1.08-2.51-.95-3.92.11-1.23.56-2.3 1.7-2.95 1.67-.96 3.03-.7 4.26.73a4.47 4.47 0 0 1 .96 4.33c-.25.89-.62 1.75-.97 2.62-.1.23-.04.39.11.53.7.66 1.51 1.17 2.4 1.53.34.14.7.24 1.05.32.77.15 1.49-.03 2.12-.47.3-.2.32-.4.1-.69a8.44 8.44 0 0 1-1.6-6.7c.16-.93.58-1.8 1.57-2.06.6-.16 1.3-.16 1.93-.08 1.03.13 1.97.55 2.6 1.43.76 1.07.95 2.24.62 3.51a7.6 7.6 0 0 1-1.24 2.46c-.2.3-.21.57.07.77.44.31.88.65 1.38.83a5 5 0 0 0 3.28 0 3.88 3.88 0 0 0 2.5-2.34c.57-1.4.58-2.87.55-4.34l-.1-3.45c-.01-.42-.08-.44-.47-.36-1.03.2-2.07.4-3.1.58l-.98.16c-.71.13-1.3-.16-1.34-1-.04-.83-.16-1.67-.25-2.5v-.15c-.06-.98.18-1.52 1.36-1.48l3.66.15c.6.03.8-.12.85-.71l.07-1.39c.04-.7.2-.86.9-.83.42.02.84.09 1.26.18.57.13.88.54.92 1.12.03.47.02.95.01 1.42 0 .34.1.52.47.55 1.08.11 2.16.26 3.24.4.52.05.8.26.87.64.12.66-.02 1.11-.52 1.3-.7.25-1.41.44-2.13.62-.5.12-1.03.18-1.54.27-.34.06-.53.25-.53.63.02 1.91-.03 3.83.03 5.74.03 1 .18 2 .6 2.94.35.75.94 1.05 1.75.92 1.2-.2 2.3-.63 3.26-1.39.53-.42.88-.94.9-1.65.05-1.3.12-2.6.2-3.91.02-.38.06-.77.18-1.12.07-.19.33-.45.5-.45.99-.03 1.97-.04 2.95.04.61.06 1.03.63 1 1.28-.04.91-.16 1.82-.25 2.73-.1 1.12-.2 2.24-.32 3.36-.12 1.14.78 1.7 1.68 1.7.75.02 1.2-.26 1.51-1.06.33-.82.53-1.72.67-2.6.2-1.25.3-2.52.44-3.78.06-.51.38-.91.78-1 .46-.1 1.07.1 1.22.51.13.36.1.79.05 1.18-.16 1.43-.4 2.86-.53 4.3-.08.88.41 1.5 1.27 1.77.43.13.87.23 1.31.28.78.1 1.33-.48 1.49-1.36.14-.74.15-1.5.22-2.26.08-.9.1-1.81.24-2.7a3.44 3.44 0 0 1 2.64-2.88 7.97 7.97 0 0 1 2.82-.14 3.96 3.96 0 0 1 3.39 2.78c.34 1.25.2 2.46-.2 3.66a6.44 6.44 0 0 1-2.55 3.31c-.11.08-.17.22-.26.34.15.06.3.2.46.19a7.87 7.87 0 0 0 4.05-1.11c.28-.17.58-.3.88-.44.27-.13.43.02.36.25-.13.4-.28.82-.53 1.14a5.6 5.6 0 0 1-4.21 2.11c-.72.05-1.44-.05-2.16-.09l-1.63-.11c-.28-.02-.44.1-.5.38a47.74 47.74 0 0 0-.9 5.44c-.13 1.15-.35 2.3-.62 3.42A1.5 1.5 0 0 1 72 30.48c-.4.07-.69-.1-.82-.47a3.84 3.84 0 0 1-.24-.96c-.13-1.6-.08-3.2.13-4.8.11-.8.18-1.62.27-2.44.07-.56.16-1.13.2-1.7.05-.45-.05-.56-.5-.65-.9-.18-1.8-.35-2.7-.55-.61-.14-1.1.08-1.5.5a6.07 6.07 0 0 1-1.89 1.37c-.87.38-1.8.3-2.7.15a4.43 4.43 0 0 1-3.06-1.98c-.22-.34-.39-.72-.57-1.1-.1-.2-.19-.28-.43-.16-.86.44-1.72.9-2.6 1.27-1 .42-2.05.57-3.1.27a4.81 4.81 0 0 1-2.46-1.77l-.62-.8Zm29.52-4.11c-.01-.14-.01-.29-.04-.43-.13-.8-.94-1.17-1.6-.68-.29.22-.56.51-.76.82-.67 1.03-.97 2.22-1.28 3.4-.08.3-.13.6-.12.9.01.57.34.74.81.44a7.78 7.78 0 0 0 2.33-2.5c.37-.6.68-1.22.66-1.95Zm-38.52.57c0-.56-.12-1.08-.54-1.49a.8.8 0 0 0-.84-.22c-.4.13-.62.42-.65.91-.05.96.35 1.78.77 2.58.22.42.43.4.7.02.4-.54.55-1.15.56-1.8Zm-9.7-.18c-.1-.35-.17-.7-.31-1.03-.2-.41-.68-.6-1.12-.49-.45.12-.63.34-.59.9.05.5.16.99.29 1.46.1.35.24.7.41 1.02.24.43.48.43.71.02a4.4 4.4 0 0 0 .62-1.88Z"/>
    <path d="M30.69 12.94c-.05-.01-.02 0-.01.02v-.02ZM30.68 12.97ZM30.63 13.1c-.04-.04.02-.07-.04-.1-.02.02-.03.04-.02.06 0 .02.02.03.06.04ZM30.68 13.06l-.04-.01c.02 0 .04.02.05.03l-.01-.02ZM30.71 13.04h-.01c0 .02.02.03.03.05l-.02-.05ZM30.6 13.2l-.01-.03c.05-.02.06.03.1.01 0-.04-.1-.03-.09-.07-.04 0 0 .08-.07.06-.03.04.04 0 .06.03ZM30.08 15.3v-.01ZM29.4 15.31a.15.15 0 0 0-.02-.03v.03h.02ZM30.28 14.83l.02-.02s-.02 0-.02.02ZM28.85 12.59h.01-.01ZM28.84 14.65l-.02-.02c0 .02.01.02.02.02ZM30.37 14.63h.01ZM29.6 15.53c-.02 0-.02-.01-.03-.02l.02.02ZM30.41 13.65v.02c.01 0 .02 0 0-.02ZM30.37 13.83ZM30.32 13.94ZM30.42 13.68c-.04 0-.12-.02-.03.03h.01c-.03 0 0 .03 0 .04h.03l.02-.02c.02 0-.02-.03-.03-.05ZM30.08 15.27c0 .02.01 0 0 0ZM30.19 15.05h-.01.01ZM30.56 14.42ZM30.16 15.07h.02-.02ZM30.43 14.57ZM29.95 12v-.03c-.05.04.03.02-.03.05h.02l.04-.05-.01.01-.02.02ZM28.96 12.43c.02 0 .03 0 .04-.02-.04-.02-.1.02-.15 0v.01h.1ZM28.84 12.42l-.02.01v.01l.02-.02ZM29.78 11.85ZM29.57 14.36h.02-.02ZM28.93 12.71v.02-.02ZM28.41 11.58c.03.03.03.02.03.01 0 0 0-.03.03-.03l-.02-.05c-.03.02-.03.05-.04.07ZM29.94 12.02ZM29.11 11.04h.01ZM28.83 12.54v.07l.02-.02c-.04 0 .02-.05-.02-.05Z"/>
    <path d="M28.25 12.05h-.05c.05.06.03.11.03.16v.07c.01.02.03.04.06.05a.15.15 0 0 0-.03.04v.02c0 .02.02.02.04.03.03.01.07.02.01.07h.02l.01.44c.01.15.04.29.1.41h-.02a2.42 2.42 0 0 0 .09.47l.02.08.01.04.02.04c.06.21.15.42.23.63.04.02.09-.03.14 0 0 0 .02.03-.02.05-.03-.02-.05.01-.07 0 .03.05.02.13.08.15l.02-.06c.03.01.03.04.03.06a.13.13 0 0 0-.04.02l-.03.02c.08.03.08.06.07.1v.05c0 .02.01.05.04.07.04-.02.1-.01.16 0l.09.02h.07l.01.06c-.01-.02-.02 0-.03.01-.01.02-.03.03-.05 0l.02.04.04.04a2 2 0 0 0 .06.05c0-.03.02-.06.04-.05l.01.06.02.05-.04.01c0 .03.02.03.03.03h.04c0 .04.05.08.03.12l.04-.01h.1c-.03-.04-.02-.05 0-.06l.02-.04h-.07c.09.06-.03 0-.03.07-.02-.02 0-.05.01-.07.02-.02.03-.03 0-.04h.09c.02.01.05.01.1-.02-.03 0-.03 0-.02-.02v-.05h.03v.07h.02l.02.01c.01 0 .03 0 .04-.03.03 0 .02.01.02.03v.05c0 .02-.04.02-.08.02s-.07 0-.07.09l-.06.02a.18.18 0 0 1-.03.01h-.04l.02.02.01.01.04.03c.03.02.07.02.1 0v-.09c.02 0 .03-.01.04-.03l.02-.02h.02v.03c.01.01.03.02.05.01-.02-.01-.03 0-.03-.02.03 0 .05-.03.06-.06l.02-.03.04-.04a.1.1 0 0 1-.04 0l-.02-.01-.03-.02-.03-.02c0-.03 0-.04.02-.03h.03v.02l.03-.05.02.02.01.03c0 .03 0 .05.03.05.03.02.03 0 .04-.01 0-.02.01-.04.03-.03l-.01-.01h.01v-.01l.04-.05v-.06c.01.02.02-.02.02-.05v-.03l.01-.03s0-.02.02-.02l.03.01a.1.1 0 0 1 .04-.02c.02 0 .03 0 .04.02l.05-.06.04.06v-.1l-.03-.08.02-.01.01-.02.02-.04v-.07l.02-.02h-.04l.01-.02v-.05c-.01 0-.01 0 0 0l.01-.01.02.01c.07 0-.01-.06.02-.08v.02c.03-.01.11 0 .07-.03v-.03c-.02 0-.04-.02-.03-.02.02-.01.03-.02.03-.04.02 0 .02-.02.01-.03h.05c.05-.01.05-.04.05-.07 0-.03 0-.05.04-.07-.03-.03-.06-.01-.08-.02-.03-.02-.04-.07-.05-.1.06 0 .14-.06.21-.02.03-.05-.05 0-.07-.04l-.08.02c-.04-.02-.03-.07-.02-.07l.06.03c0-.06-.1-.08-.15-.13.04-.03.08.01.14.02v-.04l.05.01c0-.03-.05-.05-.02-.08.04.04.06-.04.1.02.03-.02-.06-.05 0-.04-.04-.03-.02 0-.04.01-.07-.01-.02-.05-.03-.08.03 0 .03.03.07 0-.03 0-.04-.03 0-.04-.05-.01 0-.03 0-.05a.07.07 0 0 1-.1.01v-.06l-.03.01c-.06-.04.07-.03.05-.07l.06.05a.76.76 0 0 1-.06-.1l.07-.01c-.03-.01.02-.04-.03-.05.02-.01.03 0 .04.01l.04.05c.05-.05-.07-.06.02-.1l.04.03c0-.01-.02-.05 0-.05v.02c-.1-.03-.06-.1-.16-.1l-.01.02c-.01-.04-.08-.08-.04-.1.04-.01.07.03.1.05 0-.04-.11-.05-.1-.08-.02.02-.05 0-.07-.01-.01.02-.04.06 0 .06h.01c.03 0 .04.01.05.02 0 .03-.05 0-.07.01-.02.05.1.02.09.07h-.02c.02.02.02.06.08.08-.07 0 .01.05-.03.07-.07-.02-.06-.03-.05-.06.02-.02.04-.04 0-.06-.03.02-.06-.03-.09-.04l.05.08c-.02 0-.1.01-.05.04.01.02.07.03.05.05l-.04-.02c-.02.02.02.03.03.05-.02.02-.05-.03-.07-.01.05.04-.03.04-.03.06.04 0 .06.03.08.06.03.03.04.04.09.03l.03.07c-.04 0-.1-.07-.16-.07l.01-.05c-.05 0-.04.02-.03.05 0 .03 0 .06-.05.06 0 .02 0 .02-.06.05l.1.02h-.1l-.01.04-.02-.03c-.06 0-.04.01-.02.03.02.02.01.03 0 .04l-.02-.02s0 .02.02.03v.02h.1l-.05.06-.08.04c-.03-.01-.05-.04-.05-.04-.03.02 0 .06.05.07v.02h-.08c.06.04 0 .06.04.09l.01-.04c.04.04.08.08.04.08-.02-.05-.08 0-.08-.05-.1 0 .06.04.01.06l-.04.01c-.05-.02-.01-.05-.03-.05v.02c-.03-.03.02-.08-.02-.14l-.06.06a.2.2 0 0 1 0 .08l-.03.08a.24.24 0 0 0-.02.08l.01.1v-.01l.03.01h-.01l.03.03h-.04l-.03.01-.05.01.07.02c.04.03.06.05.03.06-.03-.02-.02-.03-.06-.04.02 0 .04.03.04.04h-.03l-.04-.01h.02l-.03-.01a.07.07 0 0 1-.03-.03v.02l-.03-.02-.02-.03.04.07.03.08-.05-.06v.05c.02.04.03.08.02.1v-.05l-.08.02-.04-.01a.12.12 0 0 1-.03-.05l-.01.12-.02-.08c-.02-.05-.03-.06-.05-.06h-.06c-.01-.01.03-.07.04-.1l-.04.02c-.02.01-.05.02-.07.01.03-.01.09-.06.09-.07-.02.02-.06.04-.05.02h.02c.02-.02.02-.03.01-.03v-.02h-.01l-.02-.03a.3.3 0 0 0-.05-.02.48.48 0 0 0-.14-.04c-.02-.05.09-.03.1-.05-.01.05.02.02.05.02-.03 0-.05-.03 0-.06-.02-.03-.02-.04-.07-.05.02 0 0 .03-.03.03 0-.03-.04-.08.03-.1-.06-.13-.1-.28-.14-.42-.05-.02-.01.02-.04.01-.06-.02.01-.03-.03-.05h.04c0-.02-.03-.04-.06-.06l-.08-.05c.05 0 .03-.04.06-.01-.01-.02.19-.1.14-.1l-.18.07c-.02 0-.02-.03-.03-.03l.07-.07c.05-.02.04.02.05.03.08-.01.03-.07.11-.06-.02-.03-.04.01-.07 0v-.04l-.01.04c-.04-.03-.1-.02-.06-.07l-.09-.02c.06-.02 0-.03.01-.05h.05l.02-.06c.06 0 0 .03.04.02l.02-.03c-.04 0-.07 0-.09.02-.07 0-.13-.01-.14-.08.06-.04.06.02.12 0 .01-.08-.18-.05-.18-.1.01-.05-.04-.04-.05-.1.04.02.03-.04.07-.05h.05c-.02 0 0-.02.03-.03-.06.02-.07-.05-.1-.08l-.05.01c-.02-.02-.06-.06-.05-.1-.02-.03-.06-.02-.12-.04a.3.3 0 0 1 .14-.04c-.02.02 0 .04-.01.06.05.05.16.08.14.13.13 0-.02-.03.02-.06h.01c.02 0 .05.04.1.03 0-.03-.11 0-.07-.05-.04-.03.05-.07.06-.09-.05 0-.15 0-.13-.05l.06.01c0-.05-.1 0-.1-.06 0 .02-.07-.01-.07.02-.03 0-.04-.05-.03-.08h-.04c-.05.04.05.05-.02.09h.08c-.02.04-.08.05-.11.04v.02c-.1.02.03-.04-.06-.04l.01.02c-.07.02-.07-.04-.07-.07.03-.04.04-.07.1-.08 0 .02 0 .03.02.04.04-.02-.03-.05-.03-.07l.01-.01h-.01l.02-.01c0-.03-.04-.05-.02-.08l-.05.01h.03c0 .02-.03.05-.06.04-.04-.04.05-.06.09-.08.07 0 0 .05.03.07.03-.01.03-.02.03-.04l.01-.06c.08.01 0 .05.08.06 0-.02 0-.03-.02-.04 0-.01-.02-.02-.01-.04.04 0 .04.04.09.03l.01-.02c.01.05.1-.02.12.02.02-.01 0-.02-.01-.02-.02 0-.03-.02 0-.03-.04 0-.1.03-.13 0l.02-.02c.04-.02.08.02.11 0l-.02-.02c-.03 0-.04.01-.07 0 .03-.01-.09-.02-.12-.04 0-.02 0-.03.03-.04a.18.18 0 0 1-.06-.07c-.01-.02-.02-.05-.05-.07.02.01.04.02.05.01h.06c0 .02.07.03.12.04l-.04-.03a.15.15 0 0 0-.06 0c.02-.02 0-.02 0-.03-.01 0-.02-.01 0-.02.02 0 .04 0 .05.02l.05.01c0-.01-.08-.03-.06-.04h.03v-.01l-.04-.03h.04l.04.01c0-.01-.01-.02-.03-.02l-.04-.02v-.03h.03v.02l.05.04v-.01l-.02-.04c-.02-.02-.04-.05 0-.05l.01.04.03.04c0-.01.02-.01-.02-.04h.04l-.01-.08h.04l.04.04c.01-.03.04-.03.07-.03.03 0 .06 0 .09-.04v-.04c-.02-.02-.03-.04 0-.05 0 .08.04.05.06.09.03.01.05 0 .07-.02l.04-.01.03.01-.01.04a.1.1 0 0 0 .05.01h.03l.01.01v.01c0 .02.02.03.03.03h.06l.02-.01h.04l-.02.03c0 .02.01.03.03.03.01 0 .03 0 .06-.03v.04c.01 0 .02 0 .02.04h-.02v.03l.02.03.05-.02.04-.02h.04l.02.02c-.04.04-.05.03-.06.03l-.04.02c.01 0 .04-.01.02.01l-.05.04c.02 0 .03 0 .05-.02a.44.44 0 0 1 .05-.01l.02-.03h.04c0 .02 0 .04.02.04v-.02l.05-.03c0 .02.02.02.05.02h.1c-.01.04-.04.04-.07.04l-.09.01c-.02.02-.07.06-.1.05 0 .02.02.03.04.04.02 0 .04.02.05.03h-.02c.03.05.13.07.1.12l.02-.03c.02 0 .02.03.06.03-.03.01-.05.05-.08.05.11-.02.1.09.2.09-.02.02-.07.02-.09.02 0-.03.02-.05-.03-.05 0 .02-.01.05-.04.05.08.01.12.07.19.06-.03.03-.04.06-.1.06.06.08.16-.08.18.01-.04.06-.08-.02-.08.04h-.01c-.13.08.1 0 .11.05-.07.03-.06-.02-.1.03.03.04.15.03.13.08h-.03c.01.03.01.1.03.12h-.02c-.01.06.04 0 0 .07h.05c.02-.03.04-.08-.01-.1.05.02.08-.07.15-.07h-.03c.1-.1.09-.2.1-.3-.09-.04.01-.12-.06-.17-.1.02-.02 0-.06-.05.02.02.07-.02.08-.04-.03 0-.04-.02-.05-.03a.15.15 0 0 0 .04-.06c0-.03 0-.05-.04-.06.02-.04.03 0 .06 0 .04-.03-.05-.01-.02-.03h.01a.22.22 0 0 1-.01-.08l-.01-.08c-.09.03-.05-.04-.1-.05.04 0 .02-.05.03-.07h-.08c-.03 0-.03-.02-.02-.04 0-.02.01-.04-.01-.06l-.01.02c-.02 0-.03-.03-.04-.07v-.1l-.11-.06-.02-.02h-.02a.29.29 0 0 1-.05-.04l-.07-.07-.03-.03-.03-.04-.04-.04a.77.77 0 0 0-.03-.03l-.04-.04-.05-.03-.05-.03a.3.3 0 0 0-.05-.02l-.06-.02h-.06c-.03.02 0 .04-.02.08h-.07c.02.02.02 0 .01.02l.05-.02v.02c.02 0 .04-.02.06 0-.04.01-.06.08-.09.04l.02-.01h-.05c-.03-.02-.03 0-.03-.03l-.04-.02a.6.6 0 0 0-.05-.02c-.02.04-.05.04-.07.03-.02 0-.04-.03-.04-.03 0-.03.01-.04.03-.04.02-.01.04-.01.05-.04 0-.02-.02-.03-.03-.05v.05l-.06-.01v-.01c0 .02 0 .04-.02.02v-.02a.32.32 0 0 0-.03.03c.01-.05-.04-.01-.04-.07l-.08.01c-.02 0-.04.02-.05.03a.15.15 0 0 1-.06.02h-.07c.02 0 .02.03 0 .05 0 .02-.01.04-.03.04-.02-.01-.03-.02-.02-.05l-.03.04c-.04-.03-.07-.03-.1-.02l-.04.02a.2.2 0 0 1-.06.02v-.02c-.02.04-.04.08-.09.1l-.02-.05c-.03 0-.03.03-.02.06 0 .03 0 .06-.03.07.03.04.08.04.12.08-.02-.02-.05-.02-.07-.02-.01.01-.02.03 0 .04-.01.03-.02.03-.03.03l-.01-.01v.05c-.04.03-.07-.04-.08-.07v.04l-.03.03-.03.03a.25.25 0 0 0-.03.02v-.03a.86.86 0 0 0-.06.06.18.18 0 0 1-.05.16.76.76 0 0 1-.05-.07c-.05.03.01.03.02.05 0 .03 0 .05-.02.06l-.06.03a.1.1 0 0 1 0 .07l-.03.03-.02.03a.16.16 0 0 0-.03.07c-.03.03-.02.05 0 .07Zm2.27 2.37h-.01c-.01-.02-.02-.03 0 0Zm-.18.32c0-.06.02-.03.04-.02-.04.03-.03.07-.07.1l.04.01-.03.02-.04-.01v-.05l.03-.02c.02-.02.05-.03.03-.03Zm-.01-.87.01.01h-.01Zm-.01.21h-.03.03Zm-.24.33c-.04 0-.04.02-.04.04l.04-.04Zm-.94-.82c.01 0 .05.02.06 0-.03 0 .01-.04-.03-.04l-.03.04Zm-.48-1.15h.11v-.03c-.1 0-.11-.02-.1.03ZM29.11 12.78v-.01Z"/>
    <path d="m28.77 12.4-.02.03s.02 0 .02-.02ZM30.81 13.3v.02l.04-.02c-.02-.05-.06-.06-.11-.07.04.04.01.06.02.1l.05-.02ZM30.49 13.27l-.05.01.03.02.02-.03ZM30.25 13.68l.03-.03c-.02-.02-.07 0-.03.03ZM30.79 13.65l-.03-.03c-.03.01-.03.04 0 .05-.01-.03.02 0 .03-.02ZM30.22 13.76c.05.03-.04.03.01.05-.01-.01.04-.03-.01-.05ZM30.75 13.91c.06 0 .02-.03.04-.05 0 .02-.07.03-.04.05ZM30.3 14c-.03-.01-.02-.03 0-.04l.02.03-.02-.07c-.04.02-.07.04-.11.02.03.03.07.07.12.06ZM30.74 13.97c.02-.02.06-.02.06-.04-.02 0-.07-.01-.07.02l-.04-.03c-.05.02.06.02.05.05ZM30.16 14.06h.03c-.03-.04 0-.07-.05-.1 0 .03 0 .07.02.1ZM30.62 14.04l.06.03c.02-.03-.02-.01-.03-.03 0 0 .02-.01 0-.02 0 .03-.04-.02-.03.02ZM30.65 14.16l.02.04h.08c-.01-.05-.04-.02-.1-.04ZM30.6 14.18h-.02l.07.09c-.02-.05-.02-.05-.06-.09ZM29.94 14.55l.03.02c.01 0 .01 0 0 0-.01-.02-.02-.02-.03-.02-.01 0-.02 0 0 0ZM30.46 14.73l-.02.04v.08c0-.04.06-.11.02-.12ZM30.44 14.86v-.01.01ZM29.32 15.42ZM29.36 15.43l.04.02c.01 0 .03 0 .04-.02h-.11s.02.03.03 0ZM29.12 15.15c.03 0 .04.03.05 0 0-.02-.04-.03-.05 0ZM29.32 13.37c.01-.03 0-.04-.04-.02 0 .02.02 0 .04.02ZM29.26 13.33l.02-.01.03-.02-.05.03ZM29.29 13.18h.02-.02ZM29.31 13.19ZM29.3 13.2h.02v-.01h-.02ZM29.29 13.14l-.06.04c.04.02.03-.04.1-.03l-.04-.01ZM29.25 13.05c.02-.03-.1-.04-.02-.07-.05-.06-.12.04-.16-.03-.03.08.15 0 .12.08.04-.04.04.02.06.02ZM29.13 13.1c.03-.01.03-.04 0-.05 0 .01-.05.04 0 .04ZM29.19 12.92l.02-.02h-.02v.02ZM29.19 12.84l.05.02c-.02 0-.02-.04-.05-.02ZM29.22 12.73c.02-.03-.09-.03-.06.01v-.01c.02 0 .05-.03.06 0ZM29.03 12.5s.01.02.03.02l-.02-.04-.01.01ZM28.78 12.53c-.06.02.01.03 0 .06v-.06ZM29.11 12.44c.03 0 .01.02.01.03.04 0 .02-.03 0-.03ZM29.08 12.39c.03-.02.04 0 .06-.02.02-.02.01-.05-.02-.06l-.13.02c.02.03.14.04.05.07l.12.03c.01-.04-.08-.02-.08-.04ZM28.89 12.5l.03-.04c-.03.01-.04 0-.05-.01-.08.01.01.03.02.04ZM29.02 12.18l-.02-.04v.01l.02.03ZM29.05 12.16h.02l-.04-.03.02.03ZM29.08 12.12v.02-.02ZM29.1 12.05h-.03c0 .01-.04.03 0 .03 0 0 0-.03.03-.03ZM28.48 11.4c0 .02.03.03.05.03 0-.02-.02-.04-.03-.05 0 0 0 .02-.02.02ZM28.62 11.38v-.09c-.06.04-.03.09-.06.14l.03-.04c0-.01 0-.03.03-.04v.03ZM29.55 11.09v.03l-.02.03a.14.14 0 0 1 .06-.02h.08c-.01-.03.04-.07.01-.06l-.03.01-.03.01v-.03c-.03-.03-.02.05-.07.03ZM30.54 12.78a.1.1 0 0 0-.05.02c.03.02.05-.03.05-.02ZM40.38 13.13c-.05-.01-.02 0-.01.02v-.02ZM40.37 13.15v.01-.01ZM40.33 13.29c-.02-.02-.02-.03-.01-.05 0-.02 0-.03-.04-.04-.01.01-.02.03-.01.05 0 .02.02.03.06.04ZM40.37 13.24h-.03c.02 0 .03.02.05.03 0-.01 0-.02-.02-.03ZM40.4 13.22c0 .02.02.04.03.05l-.02-.05ZM40.3 13.4l-.01-.04c.05-.02.06.03.1.01 0-.04-.1-.02-.09-.07-.04 0 0 .08-.07.07-.02.04.04 0 .07.03ZM39.66 15.46ZM38.98 15.24v-.04l-.01.02.01.02ZM39.95 15.05h.02-.02ZM38.5 12.54h.02-.01ZM38.52 14.61l-.01-.01.01.01ZM40.08 14.85ZM39.12 15.52a.13.13 0 0 0-.01-.02l.01.02ZM40.15 13.86v.02-.02ZM40.1 14.04ZM40.06 14.15ZM40.15 13.89c-.03 0-.12-.01-.03.03h.01c-.02 0 .01.03.01.05h.02l.02-.03c.03-.01-.02-.03-.03-.05ZM39.66 15.44c0 .02.02 0 0 0ZM39.82 15.25l-.01.01h.01ZM40.29 14.64ZM39.8 15.27ZM40.14 14.8ZM39.72 12.1v-.03c-.06.03.03.04-.04.05h.03l.04-.04c-.03 0 0 .02-.03.03ZM38.63 12.39l.05-.01c-.04-.02-.1 0-.15-.03v.02c.03 0 .07 0 .1.02ZM38.52 12.37h-.02v.01h.02ZM39.53 11.87ZM39.25 14.3l.02.01h-.02ZM38.57 12.67v.01-.01ZM38.27 11.47c.04.05 0-.02.05-.02v-.05c-.03.02-.04.05-.05.07ZM39.7 12.13h.01ZM38.98 11ZM38.49 12.48v.08l.01-.02c-.02 0-.01-.02 0-.03 0-.01.01-.02-.01-.03Z"/>
    <path d="M38.02 11.87h-.05c.02.03.02.06.01.09 0 .02 0 .05-.02.07-.01.06-.02.1.04.15a.13.13 0 0 0-.03.02l-.01.01-.01.03.03.03c.02.01.04.02.04.04 0 .01 0 .02-.03.05H38c-.01.07-.03.15-.03.23l-.01.12v.12c0 .09 0 .16.02.24v.06l.03.05c0 .04.02.07.04.1l-.03.01c.02.24.1.46.18.67l.26.6c.04.02.1-.03.14-.01 0 .01.02.04-.01.06-.03-.02-.06.01-.07 0 .02.05.01.12.07.14l.03-.05c.02 0 .02.03.03.05-.03 0-.06.05-.08.04.15.03-.01.09.06.13h.15l.18.07v.06c-.01-.03-.03-.01-.04 0-.02 0-.03.01-.05-.02 0 .04.02.06.04.09l.06.08c0-.03.03-.05.05-.04.01.04-.02.09 0 .12a.5.5 0 0 1-.04 0c0 .03.01.03.02.04h.04v.08c.01.02.02.05 0 .06l.07.01.03.02h.04c-.02-.04 0-.05 0-.05.02-.01.04-.01.04-.03l-.03-.01-.03-.02c.07.09-.03 0-.05.06-.02-.03.01-.05.03-.06.02-.02.03-.03 0-.05l.03.01.02.01.04.02c.02.01.04.02.09.01-.02 0-.02-.02-.01-.03 0-.01.02-.03.01-.05.03.02.03.03.03.04 0 .01-.02.02-.01.05l.03.03h.02s.02 0 .02-.02c.03.02.03.03.02.04 0 .02-.02.03 0 .05-.02.02-.06 0-.1-.02-.03-.01-.06-.02-.08.07h-.1l-.03-.01.03.04.03.04c0 .01.02.03.04.03h.04l.03-.08c.04.01.06-.05.08-.03v.04l.04.02c0-.01-.02-.01-.01-.03h.03l.03-.03.04-.02.04-.03a.12.12 0 0 1-.06-.03l-.05-.06c0-.03.02-.03.03-.02 0 0 .02.02.03.01v.03l.01-.02.02-.02c.03.01.03.04.02.06 0 .02 0 .05.03.06l.02.01.02-.01c.01-.02.02-.04.04-.03l-.01-.01h.01c.03-.03.07-.04.07-.1 0 .03.02-.01.03-.04 0-.01 0-.04.02-.06 0-.02.02-.02.05 0h.05c.01 0 .02 0 .02.02l.04-.02.03-.03.03.06c.02-.03.02-.06.02-.08l-.02-.1c.03 0 .05-.04.07-.07a.2.2 0 0 0 .02-.08l.01-.02h-.03v-.07h.01l.02-.01-.01.01h.02c.04.01.04 0 .03-.02 0-.02-.02-.05 0-.05s.11.02.07-.01v-.03h.01-.01l-.02-.03.04-.04v-.03h.06c.05-.01.05-.04.05-.07 0-.03 0-.06.05-.07-.04-.03-.07-.01-.09-.02l-.05-.1.1-.03c.05-.01.08-.02.12 0 .03-.05-.05 0-.07-.04l-.08.02c-.04-.02-.03-.07-.02-.08l.06.04c0-.06-.1-.08-.15-.13.03-.03.08 0 .14.02v-.05l.05.02c0-.03-.05-.05-.02-.09.03.04.06-.04.1.01.03-.01-.06-.04 0-.04-.04-.02-.02.02-.04.02-.08 0-.02-.05-.04-.08.04 0 .04.02.07 0-.02-.01-.04-.03 0-.04-.05-.01 0-.04 0-.05a.08.08 0 0 1-.09.01c-.02-.02-.02-.03 0-.06l-.03.02c-.07-.05.05-.04.04-.08.03.02.02.03.06.05a.7.7 0 0 1-.07-.1l.08-.02c-.04 0 0-.04-.04-.04.04-.04.05.04.09.05.04-.05-.08-.05 0-.1l.05.03c0-.02-.02-.06 0-.06l-.01.02c-.1-.02-.06-.08-.16-.09v.02l-.05-.05c-.01-.01-.02-.03 0-.04.04-.02.07.02.1.03 0-.03-.11-.03-.1-.07-.02.02-.05.01-.08 0 0 .02-.03.06.01.06h.01c.03 0 .04.01.05.02 0 .03-.05 0-.07.01-.02.05.1.02.1.06h-.03c.02.03.02.06.08.08-.06 0 .02.06-.02.07-.07 0-.07-.03-.05-.05.01-.02.04-.04 0-.06-.03.02-.07-.02-.1-.04l.03.04.02.04c-.02 0-.1.02-.04.04.01.03.07.03.05.05l-.05-.01c-.01.02.03.02.04.04-.02.02-.05-.02-.07 0 .05.03-.02.04-.02.06.04 0 .06.03.08.06.02.02.04.04.08.02l.04.07c-.04.01-.1-.06-.17-.06l.02-.05c-.05 0-.04.02-.03.05 0 .03.01.06-.05.06 0 .03 0 .03-.05.06l.09.01c-.03.02-.08.01-.1.01v.04l-.03-.03c-.05 0-.04.02-.02.03.02.02.02.03.01.04l-.03-.02.03.03v.02h.1l-.06.06a.12.12 0 0 1-.08.04l-.05-.04c-.02.02.02.06.05.07v.01h-.05l-.03.01c.07.04.01.06.04.08 0 0 .02-.01.02-.03.03.04.08.08.03.07-.02-.05-.08 0-.07-.05-.1 0 .05.05 0 .07h-.04c-.02 0-.03-.02-.02-.03v-.02.02c-.04-.03.01-.08-.02-.13l-.06.05v.04l-.01.04a.8.8 0 0 1-.03.07.26.26 0 0 0-.03.08v.04l.01.04.03.02h-.01l.02.03h-.11c.03.01.03 0 .06.03.04.04.06.05.03.06-.03-.03-.02-.03-.05-.04.02 0 .03.03.03.04-.02-.01-.04 0-.06-.03h.01l-.02-.02s-.02-.01-.02-.03v.02a.1.1 0 0 1-.03-.03l-.02-.03.03.08c0 .03.02.07.01.09 0-.02-.05-.1-.03-.08-.02 0-.01.02 0 .06v.09-.04h-.09a.07.07 0 0 1-.04-.03.18.18 0 0 1-.02-.07l-.04.1.01-.08c0-.05-.02-.06-.03-.06l-.07-.03.06-.07h-.07l-.03-.01a.13.13 0 0 1-.04-.03c.03 0 .1-.02.09-.05-.03 0-.06.02-.06-.01h.03c.02-.04-.02-.04-.02-.08-.03-.06-.11-.1-.22-.1-.02-.06.08-.04.1-.06-.02.06.02.02.05.02-.03-.01-.06-.03 0-.07-.02-.02-.03-.04-.08-.05.03 0 0 .04-.03.03.01-.03-.04-.08.03-.1-.07-.13-.12-.29-.18-.43-.05-.01 0 .02-.04.02-.06-.02.02-.04-.03-.05h.04c-.01-.05-.1-.07-.15-.1.05 0 .03-.05.06-.02 0-.02.18-.1.14-.11l-.18.08c-.02 0-.02-.03-.03-.02.03-.03.07-.06.06-.08h.04l.01.03c.04 0 .05-.02.06-.04 0-.01.01-.03.05-.03-.02-.03-.04.02-.07.01v-.04l-.01.04c-.03-.02-.1-.01-.06-.06l-.09-.02c.03 0 .03-.01.03-.02l-.02-.03h.05c-.01-.02 0-.03.02-.05.06 0-.01.02.04.01l.01-.03c-.03.01-.06 0-.08.02-.07 0-.13 0-.14-.07.05-.04.06.02.12 0 0-.04-.04-.06-.09-.06-.04-.01-.09-.02-.09-.04.02-.05-.04-.04-.05-.1.05.02.04-.04.08-.05l.05.01c-.02-.01 0-.03.03-.03-.03 0-.05 0-.06-.03l-.03-.06-.05.01c-.02-.03-.05-.06-.05-.1-.01-.04-.06-.03-.11-.06a.3.3 0 0 1 .15-.01c-.03 0-.01.03-.03.05l.02.02.03.02c.02 0 .03.02.05.03.03.02.05.04.04.07.12.01-.02-.03.02-.06h.01c.02.01.04.04.1.04-.01-.03-.12-.01-.07-.05-.02-.02 0-.03.02-.05.02 0 .04-.02.05-.03-.05-.02-.15-.01-.13-.06l.07.02c0-.06-.1-.02-.1-.08 0 .02-.06-.01-.07.02-.01 0-.03-.02-.03-.04l.01-.04h-.04c-.05.02.04.04-.03.07l.08.02c-.03.03-.09.04-.12.02 0 0 .02.02 0 .02-.1 0 .04-.04-.05-.05l.01.03c-.04 0-.05-.01-.06-.03a.1.1 0 0 1 0-.05c.04-.04.05-.07.1-.07l.02.05c.04-.02-.02-.06-.02-.08h.02-.02c0-.01.01-.02.03-.02l-.01-.04v-.03h-.05.03c0 .02-.04.04-.07.03-.03-.05.06-.05.1-.06.07.02 0 .04.02.07.03 0 .04-.02.04-.03 0-.02 0-.04.02-.05.04 0 .04.02.03.03 0 .01 0 .02.03.03v-.04c-.02-.01-.02-.02-.01-.04.02 0 .03.02.03.03l.05.02.02-.02c0 .02.03.02.05.02.03 0 .05 0 .06.02.02 0 0-.02-.01-.02-.01-.01-.02-.02 0-.03-.03 0-.1.02-.12-.01l.02-.03.06.02c.02 0 .04.02.05 0l-.02-.02h-.06c.02-.02-.08-.05-.11-.08 0-.01.01-.02.04-.02a.16.16 0 0 1-.05-.09V12a.14.14 0 0 0-.03-.04c.02.02.03.03.05.03h.06c0 .03.06.05.1.07 0-.01-.06-.06-.08-.06v-.02c-.01 0-.01-.02.01-.01.02 0 .03 0 .05.02l.04.02-.03-.03c-.01-.01-.03-.02-.01-.03l.02.01c.02 0 0-.03-.03-.05h.05c0-.01 0-.02.04.01 0-.02-.01-.02-.02-.03-.02 0-.03 0-.04-.02v-.03h.04v.02c0 .02.02.03.04.04.01 0 .02 0 .01-.02a.2.2 0 0 0-.02-.04.2.2 0 0 1-.02-.04l.03-.01v.04l.04.04c0-.01.03-.02-.02-.04h.05v-.09h.04l.04.04.01-.02h.01l.05-.01h.04l.02-.01.01-.02c.02 0 .01-.02 0-.04v-.03l.01-.02c0 .04.01.05.02.06h.02v.03h.07l.03-.02c.01 0 .02 0 .03.02 0 .02 0 .03-.02.04l.02.01.02.01h.02l.02.01v.05h.13l-.04.04.03.04.07-.01c-.02.04 0 .04 0 .04.01 0 .02 0 .01.05h-.01v.04l.02.03.1-.01c.04 0 .07 0 .08.04-.05.03-.06.03-.07.02 0 0-.01-.01-.05.01.02 0 .05 0 .04.02l-.06.03c0 .02.02.01.05 0h.06c.02-.02.03-.03.02-.04.03 0 .04 0 .04.02.01.02.01.04.03.05 0 0 0-.05.05-.06 0 .05.1.01.15.03-.01.03-.03.03-.06.03s-.06 0-.1.02c-.02.02-.06.05-.1.05 0 .02.02.03.04.04.02 0 .05 0 .06.02h-.02c0 .02.02.02.03.03l.04.03c.03.01.05.03.03.05l.02-.02c.01 0 .01.02.06.02-.04.01-.06.05-.09.05h.06l.04.04.04.03.06.02c-.02.02-.07.01-.1.02 0-.04.03-.05-.02-.06v.04l-.04.01c.07.01.11.07.18.07-.03.03-.05.05-.1.05.02.04.06.02.1 0 .04 0 .07-.02.07.03-.02.02-.04.02-.06.01-.01 0-.02-.01-.03.02v-.01c-.08.03-.05.03 0 .04.04 0 .1 0 .1.03-.08.01-.06-.03-.11 0 0 .03.04.04.07.06.03.01.06.03.04.05h-.03v.11h-.02c-.03.05.04.01-.01.06l.04.01c.02-.02.06-.06.02-.1.02.02.05.01.07 0 .03-.02.06-.03.1-.03h-.03a.32.32 0 0 0 .07-.07.32.32 0 0 0 .04-.07l.04-.16c-.04-.02-.04-.05-.03-.08 0-.03.01-.07-.02-.1h-.05v-.06c.02.03.07-.01.07-.04a.08.08 0 0 1-.05-.03.14.14 0 0 0 .04-.06c.01-.03 0-.06-.03-.06.02-.05.03 0 .05 0 .04-.03-.04-.02-.02-.04h.02a.27.27 0 0 1-.02-.08l-.01-.09c-.04.02-.06 0-.07 0 0-.03-.01-.05-.03-.05.03 0 .02-.05.02-.07h-.07c-.04 0-.03-.02-.03-.04 0-.01.01-.04-.01-.05l-.01.02c-.02 0-.03-.03-.03-.06l.01-.1a.48.48 0 0 1-.17-.12.57.57 0 0 1-.07-.11l-.01-.03-.01-.02-.03-.04-.02-.04a.58.58 0 0 0-.07-.1.46.46 0 0 0-.21-.13c-.04.02 0 .05-.04.08h-.04l-.04-.02c.02.04.03 0 .02.03h.05v.02c.02 0 .04-.02.06 0l-.06.03c-.01.01-.03.02-.04 0l.02-.01h-.03l-.03-.01c-.02-.03-.02 0-.02-.03-.02-.03-.05-.05-.09-.06-.03.03-.05.03-.08.01-.02 0-.04-.03-.05-.04.01-.03.03-.03.05-.03.02 0 .04 0 .06-.03a1.01 1.01 0 0 0-.03-.05l-.01.05-.06-.02v-.01c0 .02-.01.04-.02.02v-.03l-.05.03c.03-.05-.03-.01-.03-.07h-.08c-.03 0-.05.02-.07.03-.04.01-.07.03-.13 0v.06c-.02.02-.03.04-.05.04-.02-.01-.03-.02-.03-.04l-.03.04a.12.12 0 0 0-.05-.03h-.04l-.05.03a.39.39 0 0 1-.06.01v-.02l-.03.05-.02.03-.03.01-.02-.05c-.04 0-.03.03-.03.06s.01.06-.02.07c.01.02.03.03.06.04l.05.04c-.04-.04-.1 0-.06.02-.04.05-.04.02-.05.02v.04c-.03.03-.06-.04-.07-.07 0 .03 0 .05-.02.06l-.07.03v-.03l-.03.02-.01.01-.01.02c0 .03 0 .05-.02.07a.16.16 0 0 1-.05.06 2.98 2.98 0 0 1-.04-.07c-.05.01 0 .03.01.04 0 .04-.01.05-.03.06h-.07c0 .04 0 .06-.02.08a.38.38 0 0 1-.05.05.16.16 0 0 0-.05.05l.02.06Zm2.23 2.77h-.01c0-.02-.01-.03 0 0Zm-.22.33c.01-.07.03-.03.04-.02l-.04.05a.11.11 0 0 1-.05.04c.02 0 .03.02.04.03l-.03.01-.04-.02c-.01-.04.02-.06.04-.07l.04-.02Zm.04-.88h.01-.01Zm0 .2h-.04.03Zm-.26.32c-.03-.01-.04.01-.04.03l.04-.03Zm-1.05-1.08c.01 0 .05.02.06 0-.03 0 .01-.04-.03-.03a.14.14 0 0 0-.03.03Zm-.42-1.17h.09v.01h.02v-.03l-.09-.01c-.01 0-.02 0-.02.03ZM38.75 12.75v-.01Z"/>
    <path d="M38.45 12.35s-.02 0-.02.02l.02-.02ZM40.52 13.49l.01.01.03-.02c-.03-.05-.07-.05-.11-.07.04.04.01.06.02.11.02 0 .04-.02.05-.03ZM40.2 13.48h-.05l.03.02.02-.02ZM39.98 13.9l.04-.03c-.03-.02-.08 0-.04.02ZM40.52 13.84l-.03-.03c-.03.02-.03.04 0 .06-.01-.03.02 0 .03-.03ZM39.95 13.98c.06.03-.03.03.02.05-.02-.01.04-.03-.02-.05ZM40.49 14.11c.06 0 .01-.03.03-.05 0 .02-.07.03-.03.05ZM40.05 14.22c-.04-.02-.03-.03-.02-.05l.03.03-.02-.06c-.04 0-.07.03-.11.01.03.03.08.07.12.07ZM40.48 14.17c.02-.01.06-.01.07-.04-.03 0-.07 0-.08.02l-.04-.02c-.04.01.06 0 .05.04ZM39.9 14.27h.03c-.03-.04 0-.06-.05-.1 0 .03 0 .07.02.1ZM40.36 14.25l.06.02c.02-.02-.02 0-.03-.02.01 0 .02-.01.01-.02 0 .03-.05-.02-.04.02ZM40.4 14.37v.04h.09c0-.05-.04-.01-.1-.04ZM40.34 14.4h-.02c.03.02.05.06.07.09l-.05-.1ZM39.67 14.7c.02.03.06.04.03.02l-.03-.02ZM40.16 14.96h-.01l-.01.02-.02.03a.8.8 0 0 0-.01.09c0-.03.03-.06.04-.08.02-.03.02-.05 0-.06ZM40.1 15.11v-.01.01ZM38.88 15.32h-.01.01ZM38.92 15.33l.01.03.02.01H39l-.05-.03a.36.36 0 0 0-.07-.03c.02.02.02.06.04.02ZM38.73 14.99c.02 0 .03.03.05.01 0-.01-.04-.03-.05-.01ZM38.93 13.3c.01-.02 0-.02-.04 0h.04ZM38.87 13.27h.02l.03-.03-.05.03ZM38.9 13.13h.02-.02ZM38.92 13.14ZM38.91 13.15h.02v-.01h-.02ZM38.9 13.1l-.06.03c.04.02.03-.04.1-.03h-.04ZM38.87 13.01l-.03-.03c-.02-.01-.03-.02.01-.03-.02-.03-.06-.03-.08-.02-.03 0-.06.02-.08-.02-.02.04.02.04.06.04.04 0 .07 0 .06.04.04-.04.04.02.06.02ZM38.74 13.05c.04 0 .04-.04.01-.04 0 0-.05.03 0 .04ZM38.81 12.89l.02-.02h-.02v.02ZM38.82 12.81l.04.02c-.02 0-.02-.04-.04-.02ZM38.86 12.7c.02-.01-.09-.02-.06.01.02 0 .05-.03.06 0ZM38.7 12.47s0 .02.03.02l-.02-.03h-.01ZM38.45 12.47c-.03 0-.03.01-.03.02s.02.02.01.04l.01-.03v-.03ZM38.79 12.43c.02 0 0 .02 0 .03.03 0 .03-.03 0-.03ZM38.77 12.37h.05l.02-.02v-.01l-.03-.03h-.13c.01.02.05.03.07.04.02.02.02.03-.02.03l.1.04c.02-.03-.07-.03-.06-.05ZM38.56 12.44l.03-.02c-.03 0-.04-.01-.05-.02-.08 0 .01.03.02.04ZM38.74 12.18v-.04h-.01l.01.04ZM38.77 12.16h.02l-.03-.03.01.03ZM38.8 12.13l.01.02v-.02ZM38.84 12.07h-.03s-.03 0 0 .02c0 0 0-.03.03-.02ZM38.35 11.3c0 .04.02.04.04.05l-.02-.05s-.01.02-.02 0ZM38.48 11.32v-.09a.07.07 0 0 0-.03.03l-.01.03c0 .02 0 .04-.02.07l.02-.03c.01-.02.02-.04.04-.04v.03ZM39.46 11.08c-.01.04 0 .04-.04.06a.2.2 0 0 1 .07-.01l.08.02c0-.03.06-.06.03-.06h-.07l.01-.02c-.04-.04-.04.04-.08.01ZM40.29 12.92a.1.1 0 0 0-.06.01c.02.03.05-.02.06-.01ZM78.9 12.56c-.05-.02-.01 0 0 .03v-.03ZM78.9 12.6l-.01.01v-.02ZM78.85 12.82c-.02-.03-.01-.06-.01-.08 0-.03 0-.05-.03-.07l-.01.02-.01.02v.05c0 .02.03.05.06.06ZM78.9 12.74h-.04l.05.04-.01-.04ZM78.93 12.71h-.01l.03.08-.02-.08ZM78.8 12.99v-.06c.05-.04.06.05.1.02 0-.07-.1-.04-.07-.11-.05 0-.02.12-.09.1-.03.06.04 0 .06.05ZM77.57 15.94ZM76.97 16.63l-.03.01h.02l.01-.01ZM77.83 15.42l.03-.02c-.01 0-.02 0-.03.02ZM75.62 14.75l.02.01-.01-.01ZM76.22 17.35l-.01.02-.02.01h.02v-.01l.01-.02ZM78 15.16h.02H78ZM77.25 16.5h-.02.02ZM78.5 13.7v.04c.01 0 .02-.02 0-.04ZM78.38 13.98ZM78.28 14.14ZM78.5 13.74c-.04.01-.12-.02-.05.05h.02c-.03 0 0 .05-.01.07h.02l.03-.04c.03-.01 0-.05-.01-.08ZM77.56 15.93c.02 0 .02-.01 0 0ZM77.68 15.67l-.01.02.01-.02ZM78.31 14.84c0 .01 0 0 0 0ZM77.65 15.7l.01-.01-.01.01ZM78.1 15.07ZM77.78 11.68h-.04c0 .03.01.02.02.02s.02-.01.02.02l.01-.02a1.05 1.05 0 0 0-.03-.06c-.01.03.02.02.02.04ZM75.82 14.55h-.01c.03 0 .04.01.06-.01-.03-.04-.1-.02-.14-.08l-.01.03c.04 0 .07.03.1.06Z"/>
    <path d="M75.72 14.5h-.02l-.02.01c.02 0 .03 0 .04-.02ZM77.35 11.94h-.01.01ZM75.84 16.66l.01-.03v.03ZM75.63 14.99l-.02.02v.02l.02-.04ZM75.57 13.25c.06.05 0-.01.05-.03l-.02-.04c-.02.02-.02.05-.03.07ZM77.8 11.7ZM76 12.34H76 76ZM75.63 14.66l-.03.12.02-.03c-.03-.02.05-.06.01-.09Z"/>
    <path d="M75.34 13.75h-.04c.02.07 0 .13-.03.19s-.05.12 0 .18c-.2.1.1.14-.07.23h.02l-.12.33-.12.32-.1.33-.02.15-.02.08v.1l-.03-.02a2.84 2.84 0 0 0-.14.84V16.68l.01.05a.84.84 0 0 0 .02.12l.01.06.02.06V17l.01.02.02.06c.03.07.07.14.12.2.08.12.2.22.34.27.14.06.3.07.44.05a1 1 0 0 0 .23-.05l.03-.01.02-.01.06-.03.05-.02.03-.01.02-.01a.1.1 0 0 0 .03-.05v-.04c-.01-.02-.02-.05 0-.08l.02-.01.02-.01h.05c-.03.05 0 .06 0 .08l.12-.06a.35.35 0 0 0 .05-.04.13.13 0 0 0 .04-.05h-.08c.01-.03.06-.05.08-.06 0 .03.07.05.05.07.03-.1.06-.1.1-.1.03 0 .07.01.1-.05-.02-.04-.01-.1 0-.17l.06-.2.06-.02c-.06.05.05.06-.02.11a.19.19 0 0 0 .08-.06c.02-.03.04-.06.08-.08-.03 0-.05-.03-.04-.06.04-.02.08.02.12-.01l-.01.05c.05 0 .03-.05.05-.07.04.02.1-.02.12.02 0-.09.05-.08.07-.16-.08.02-.03-.05-.06-.07a2 2 0 0 1-.04.07c.05-.03.04-.02.03 0-.01.02-.03.06 0 .08-.06.01-.03-.14-.09-.07a.5.5 0 0 1 .04-.06l.03-.04a.32.32 0 0 0 .06-.12c-.04.06-.02-.04-.07-.03.06-.06.04 0 .09.02.03-.04.07-.02.06-.09.07-.04.03.05.08.04 0 .03-.04.05-.07.09-.03.03-.05.07.01.11-.03.03-.02.11-.06.15.05-.02.14-.04.15-.1l-.06-.07c.03-.04 0-.09.03-.1 0 .03.05.03.07 0h-.03c.04-.06 0-.11.05-.18-.06.03-.1.02-.17.04-.03-.05.03-.04.05-.07l.01.02v-.05c.08-.05.07.07.14.04.07 0 .02-.07.06-.08h-.01l.01-.02c.02-.04.06-.07.03-.11.02 0 .02-.04.02-.06 0-.03 0-.1.08-.09.03-.03.08-.05.1-.03l.06-.06.05.05c.03-.08 0-.1-.02-.17.04-.02.06-.05.08-.08a.28.28 0 0 0 .03-.1l.02-.02-.04.01c.04-.05 0-.06.03-.1 0 .01-.01.01 0 0l.03-.02-.01.02h.02c.08 0 .01-.08.06-.11v.02c.02-.02.12 0 .08-.04v-.04l.03-.01-.02.01-.01-.04.05-.06c.02 0 .02-.02.02-.04h.03c.01-.03.03-.02.03-.01.07-.02.08-.06.09-.1 0-.03.02-.08.08-.1-.03-.04-.07-.01-.09-.02-.02-.03 0-.1-.01-.14.07 0 .19-.1.25-.04.05-.08-.06 0-.06-.06l-.1.02c-.03-.02 0-.1.02-.1l.05.04c.02-.08-.08-.11-.1-.19.04-.04.08.02.13.03l.02-.06.04.02c.02-.04-.02-.08.02-.12.02.06.09-.06.11.02.03-.02-.05-.07.02-.06-.04-.04-.04.02-.06.02-.07-.01 0-.08 0-.12.04.01.03.04.07 0-.02-.01-.03-.05.01-.06-.04-.02.02-.06.03-.08-.02.03-.07.05-.1.02a.1.1 0 0 1 0-.05c0-.01 0-.03.02-.05l-.04.02c-.02-.03 0-.04.02-.06.03 0 .06-.02.06-.06l.03.09-.03-.15.09-.03c-.03-.02.02-.06-.03-.08.05-.05.04.07.07.1.03-.04.02-.07 0-.09 0-.02 0-.04.04-.07l.04.04c0-.02 0-.08.02-.08-.02 0-.02 0-.02.03-.04-.02-.05-.06-.06-.09-.01-.03-.03-.06-.08-.06l-.01.03c0-.03-.02-.06-.03-.08v-.06c.04-.03.07.03.1.05 0-.02-.03-.04-.05-.05-.02-.02-.05-.04-.04-.07-.02.03-.06.02-.08 0l-.02.06c0 .02 0 .04.02.03h.01c.03 0 .03.02.04.03 0 .05-.04.01-.06.02-.02.04 0 .04.03.05.03 0 .05.02.04.05h-.02c.02.05 0 .1.06.13-.03 0-.03.03-.03.05 0 .02 0 .05-.02.06-.06-.02-.05-.05-.03-.08 0-.02.02-.04.03-.05l-.01-.05c-.04.03-.06-.04-.09-.06l.03.13c-.02 0-.1.02-.06.05 0 .05.07.05.03.09l-.04-.03c-.02.03.02.04.03.07-.03.03-.05-.04-.08-.01.04.06-.03.06-.04.1.04 0 .05.05.06.09.01.03.02.06.07.04l.01.11c-.02 0-.04-.02-.06-.05-.02-.03-.05-.06-.08-.06l.03-.07c-.05-.01-.05.03-.05.08 0 .04-.02.1-.08.09-.02.03 0 .03-.08.08l.09.03c-.04.02-.1 0-.1 0l-.04.06-.01-.04c-.06 0-.05.02-.03.04.01.02 0 .04-.01.07l-.02-.04.01.05v.03l.1-.01-.09.1a.22.22 0 0 1-.1.06c-.03-.02-.04-.06-.05-.05-.03.02-.01.08.03.1l-.01.02h-.06l-.03.01c.05.05-.02.1 0 .13a.13.13 0 0 0 .04-.05c.02.05.05.1 0 .1 0-.07-.1.02-.06-.07-.11 0 .04.06-.03.1l-.05.02c-.04-.03.02-.07 0-.08l-.02.03c-.01-.04.07-.12.06-.21l-.1.1c-.02.09-.08.17-.13.25a.77.77 0 0 0-.06.12.32.32 0 0 0-.02.13v-.01l.02.02h-.01l.01.05c-.05 0-.1.04-.16.06l.08.01c.04.04.05.06 0 .09-.02-.02 0-.05-.05-.04.03 0 .04.03.03.05-.04 0-.07.04-.1.02 0-.02.02-.02.03-.02 0-.02-.06.02-.06-.03l-.02.05c-.04 0-.03-.05-.05-.05l-.01.06a.4.4 0 0 0 0 .06v.12l-.07-.05c-.02 0-.03.05-.03.09l-.01.11c-.01-.02 0-.03.01-.06l-.1.1-.1.09-.06.04a.98.98 0 0 1-.18.1c0 .04.02.07.03.1h-.08a.66.66 0 0 0-.2.17l-.04.05-.04.05-.08.1c-.04.04-.07-.02-.1-.02a.2.2 0 0 0-.08.12c-.02.04-.03.09-.07.13 0-.03-.03-.1-.07-.07.01.02.03.05 0 .06l-.01-.03c-.02 0-.03 0-.05.02l-.06.04a.34.34 0 0 0-.05.05.58.58 0 0 0-.1.24c-.09.05-.05-.07-.07-.08.07-.01.03-.04.02-.07a.1.1 0 0 1-.03.05h-.02l-.04-.02-.03.03v.05c0-.02 0-.01 0 0h.01v.03h-.03c-.02 0-.03-.01-.03-.05-.03.02-.08.02-.1 0a.1.1 0 0 1-.04-.04.23.23 0 0 1-.02-.05h-.02l-.02.01c-.02 0-.02 0-.01-.02 0 0 .02 0 0-.01h.04l-.01-.02-.01-.01v-.01l-.02-.02-.04-.05a.49.49 0 0 1-.04-.06c.05.02.05-.05.07 0l.1-.04c.04-.01.08-.03.06-.04l-.2.02-.01-.04c.04-.03.09-.06.09-.08.05 0 .03.05.03.07.04 0 .06-.01.07-.03.01-.02.03-.03.06 0 0-.06-.04 0-.07-.04l.03-.04-.04.03c0-.02-.03-.04-.04-.05 0-.02 0-.04.02-.07l-.07-.07c.06 0 .02-.04.04-.07l.03.03c0-.04.02-.05.05-.07.05.03-.02.03.03.05l.03-.04c-.04 0-.06-.04-.09-.01-.06-.06-.1-.1-.08-.2.04-.01.05 0 .06.02 0 .02.02.04.05.04a.08.08 0 0 0 0-.07.24.24 0 0 0-.04-.06c-.03-.05-.07-.08-.06-.11.05-.08-.01-.1 0-.18.04.04.07-.05.11-.05l.04.04c0-.03.01-.05.04-.03-.05-.01-.02-.13-.03-.2h-.05c0-.05-.02-.12 0-.17.01-.08-.03-.07-.07-.14.05-.02.1 0 .15.02-.03.01-.02.05-.05.08.02.1.1.2.05.29.1.07 0-.07.06-.1h.01c0 .04.01.1.07.12 0-.06-.1-.07-.04-.13-.02-.06.08-.08.1-.1-.03-.05-.13-.08-.09-.15l.06.05c.03-.1-.08-.07-.06-.16-.01.03-.05-.05-.07.01-.03-.03-.02-.1.02-.14 0-.02-.02-.01-.05-.02-.06.04.02.1-.05.12l.06.06c-.04.04-.1.03-.12-.01v.04c-.12-.03.05-.05-.04-.1v.04c-.07 0-.04-.1-.02-.14.05-.04.07-.08.12-.07v.07c.05-.02 0-.1.02-.13h.02l-.02-.01.03-.02c.01-.03 0-.09.02-.12h-.05.03c-.01.04-.05.07-.08.04 0-.08.08-.07.12-.08.04.02.03.04.02.06l-.03.06c.08 0 .03-.07.1-.13.06.05-.03.08.03.12.03-.06-.01-.09.02-.14.04.01.02.07.06.08l.04-.03c-.03.1.1.01.09.1.04-.03-.05-.07.02-.1-.04 0-.11.02-.12-.04l.04-.05c.04-.01.05.08.1.06l-.01-.07c-.02 0-.04.02-.07 0 .04-.03-.06-.09-.08-.14.01-.03.02-.05.05-.05a.26.26 0 0 1-.02-.07v-.08l-.01-.14c.02.06.07.02.11 0-.01.07.06.09.1.1 0-.03-.05-.08-.08-.07.05-.05-.03-.06.03-.1.03-.01.06.05.09.05.02-.06-.08-.05-.04-.1h.03a.06.06 0 0 0 0-.05.08.08 0 0 0-.02-.04c.1 0 .03-.11.11-.07.02-.1-.05 0-.07-.04-.01-.02 0-.05.01-.07a.2.2 0 0 1 .05-.04c-.01.02 0 .05-.02.06l.07.01c.08-.08-.1-.12 0-.2 0 .07.03.04.06.08-.01-.02.04-.1-.03-.06l.07-.08c0-.04 0-.09-.03-.12.03-.05.09-.07.13-.08 0-.03 0-.06.02-.08a.47.47 0 0 1 .05-.08c.04-.04.07-.1.08-.16.02-.03 0-.03-.02-.03-.03 0-.05 0-.03-.05.06.05.08-.03.13-.03a.22.22 0 0 0 .06-.07l.03-.07c0-.03.01-.05.03-.07a.14.14 0 0 1 .06-.05s.02.02 0 .04c.08-.05.1-.1.16-.16.06-.01.1-.06.13-.1.03-.06.05-.11.1-.16l.01.05c.06-.03.14-.08.13-.16.1.02.02-.05.12-.03.02.01 0 .01 0 .02a.1.1 0 0 0 .05 0l.04-.02.02-.06.02-.05a.1.1 0 0 1 .03-.04l.03-.02h.03l-.01.07-.02.01v.04l.02-.03h.03v.07h.01l.02-.05.02-.06c0-.02-.01-.03-.03-.02 0-.02.01-.03.02-.03h.11l-.03-.03a.05.05 0 0 1-.01-.05h.04l.03-.03.04-.04a.14.14 0 0 1 .04-.03c.02.03 0 .05-.02.07-.02.02-.05.04-.05.08v.06a.1.1 0 0 1 0 .05h.05l.06-.03v.02h.09c.04 0 .07 0 .07.03v-.03c.01 0 .03.02.07 0l-.01.05-.03.03a.1.1 0 0 1 .06-.02l.03.01.03.01.06.03a.1.1 0 0 0 .07 0c-.01.04-.06.05-.08.06l-.02-.05h-.04c.01 0 .02.02.01.03 0 .02 0 .03-.02.04h.06l.05.01c.04.02.07.03.1.02-.01.05-.02.08-.08.09.04.05.08.02.1 0 .04-.04.07-.06.1 0-.02.05-.05.04-.06.03-.02 0-.03-.01-.03.03h-.01c-.06.04-.03.04.01.04.05 0 .11 0 .12.04-.04.02-.06 0-.07 0-.02 0-.02 0-.05.03.02.03.06.04.09.06.03.02.06.05.05.09l-.03-.01v.19l-.01-.02c-.02.05 0 .06 0 .07l-.01.05.04.02c.02-.04.06-.12.01-.16.05.04.1-.08.17-.06l-.03-.01a.41.41 0 0 0 .09-.23v-.27a.15.15 0 0 1-.06-.06.24.24 0 0 1-.03-.08l-.02-.07a.17.17 0 0 0-.06-.07c-.05.02-.05.02-.06 0v-.03a.16.16 0 0 0-.05-.05c.02.02.04.01.05 0a.1.1 0 0 0 0-.07c-.03 0-.06-.02-.08-.03v-.04l-.02-.04a.3.3 0 0 0-.01-.03c-.03-.04-.07-.07-.1-.06-.02-.03-.02-.04 0-.03h.05c0-.02-.02-.02-.03-.02l-.04-.01.01-.01-.06-.04a1.55 1.55 0 0 1-.06-.04l-.05-.04a2.62 2.62 0 0 0-.08-.04c-.01.04-.04.04-.08.03-.03 0-.06-.02-.1-.01.02-.01 0-.03-.02-.04l-.06-.03-.07.06c-.03.03-.05.02-.07 0-.02 0-.05-.02-.09 0l.02.01a.11.11 0 0 1-.05.01h-.07a.62.62 0 0 1-.14-.05 3.9 3.9 0 0 1-.37.23l-.06.04-.04.01-.03.02-.06.03c-.08.03-.16.07-.24.13a.89.89 0 0 0-.24.22c0 .04.05.01.07.06l-.06.08c.04-.02.01-.03.03 0l.02-.08.02.02c0-.02.01-.06.04-.07-.01.04.03.1-.03.12v-.03c-.03.03 0 .05-.04.07-.04.02-.02.02-.04.01l-.06.04-.05.04c.01.05-.01.08-.04.1l-.06.03c-.03-.02-.02-.04 0-.06 0-.02.02-.05 0-.08l-.06.01.04.04-.06.04c0 .01.02.03 0 .03h-.02l-.01.05c-.03-.05-.04.03-.08-.01-.06.06-.06.11-.08.16l-.03.06a.19.19 0 0 1-.07.06c.04 0 .06.09.03.12-.02.01-.04.01-.05-.01v.06c-.11.01-.1.1-.17.18l-.02-.02c.01.05.02.1-.01.14l-.05-.03c-.06.05.08.1.02.14.05.03.1 0 .14.01a.07.07 0 0 0-.06.03c-.02.02-.02.03 0 .03 0 .08-.02.05-.03.05l.01.05c-.02.05-.07-.01-.09-.04.03.07-.03.1-.06.14v-.03l-.05.07v.09c0 .03-.02.05-.04.08l-.05-.07c-.06.03.01.03.02.05 0 .07-.04.07-.1.09a.1.1 0 0 1-.01.08.37.37 0 0 1-.06.06c0 .05-.04.09 0 .15Zm2.93 1.1h-.01c0-.03 0-.04.01 0Zm-.35.46c.02-.07.04-.03.06-.03-.06.05-.07.1-.12.13l.05.01a.07.07 0 0 1-.08.01c-.04-.07.15-.12.1-.12Zm.4-1.27.01.02-.01-.02Zm-.11.32h-.04.04Zm-.44.51c-.03 0-.05.03-.05.05l.05-.05Zm-2.43 1.54c0 .02.04.06.06.03-.03-.02.02-.05-.02-.06l-.04.03Zm.2-1.97c.03 0 .06.03.08.03h.02c.01 0 .03-.02.02-.04-.1-.03-.1-.07-.12 0ZM75.75 15.18v-.01.01ZM75.66 14.44l-.04.03.04-.03Z"/>
    <path d="M79.01 13.14v.02l.05-.04c-.02-.07-.07-.08-.11-.1.02.03.02.05.02.08l-.02.1.06-.06ZM78.7 13.1l-.06.02.02.02.03-.04ZM78.32 13.74l.05-.04c-.02-.03-.09.01-.05.04ZM78.9 13.7l-.02-.05c-.04.02-.05.06-.02.08 0-.05.03 0 .04-.04ZM78.24 13.88c.05.04-.05.04 0 .07 0-.02.06-.04 0-.07ZM78.76 14.1c.05 0 .03-.05.06-.09-.02.04-.1.05-.06.08ZM78.23 14.24c-.03-.02-.01-.05 0-.07l.03.05v-.1c-.04.02-.09.06-.13.03.02.04.05.1.1.09ZM78.72 14.18c.03-.02.07-.02.09-.06-.03 0-.07-.01-.1.03l-.03-.03c-.05.02.07.01.04.06ZM78.04 14.33h.03c0-.06.04-.1 0-.15-.02.04-.04.12-.03.15ZM78.56 14.29l.05.04c.03-.04-.02-.01-.02-.03.01-.01.03-.03.02-.04-.02.05-.05-.02-.05.03ZM78.54 14.46v.07h.09c0-.08-.04-.03-.09-.07ZM78.47 14.5h-.02l.04.13c0-.07 0-.07-.02-.13ZM77.5 15.14c.02.03.08 0 .04 0-.02-.02-.09.01-.04 0ZM78.06 15.3c-.03 0-.05.1-.05.14.01-.05.09-.13.05-.15ZM78 15.45v-.01.01ZM77.04 16.74v.01ZM77.06 16.7c.02 0 .05-.05.03-.08l-.05.12c0-.01.04-.01.02-.03ZM76.76 16.94c0-.03.03-.04 0-.05 0 0-.02.04 0 .05ZM75.6 16.18c.01-.03 0-.05-.04-.04 0 .03.02.02.03.04ZM75.56 16.1h.02l.03-.02-.05.02ZM75.66 15.9l.01.02-.01-.02ZM75.67 15.92ZM75.66 15.93l.02.01v-.02l-.02.01ZM75.68 15.84l-.07.03c.02.04.04-.04.1.01l-.03-.04ZM75.7 15.7c.03-.04-.05-.13.03-.13-.01-.13-.13 0-.13-.15-.07.12.13.1.06.2.06-.04.03.05.04.07ZM75.57 15.68c.04.02.05-.03.03-.06 0 .02-.06.03-.03.06ZM75.73 15.46l.03-.03-.02-.02-.01.05ZM75.78 15.33l.03.04c-.01-.01 0-.06-.03-.04ZM75.88 15.16c.02-.03-.07-.09-.07-.01l.01-.02c.02 0 .06-.02.06.03ZM75.84 14.69c0 .02 0 .05.02.05v-.07l-.02.02ZM75.6 14.63c-.07 0-.01.05-.04.09.02-.04.03-.04.04-.1ZM75.95 14.64c.02.03 0 .05-.01.06.03 0 .04-.04 0-.06ZM75.95 14.54c.03-.01.04.02.06 0 .04-.03.05-.07.02-.1-.03 0-.1 0-.12-.03 0 .07.1.14 0 .14l.09.09c.03-.05-.06-.06-.05-.1ZM75.72 14.62l.04-.03c-.03 0-.03-.03-.04-.05-.08-.01 0 .06 0 .08ZM76.02 14.16l.01-.08-.01.02v.06ZM76.07 14.12h.02l-.02-.06v.06ZM76.12 14.05h-.01v.06-.06ZM76.19 13.9h-.04c0 .03-.05.05 0 .06-.01-.02 0-.05.04-.06ZM75.6 13.07c.02.02.04.02.06.02l-.04-.05c0 .01 0 .03-.02.03ZM75.73 13.01l-.03-.08c-.04.06 0 .1-.02.15.03-.01 0-.07.04-.1l.01.03ZM76.4 11.93c.03.03.03.01.03.07.01-.07.06-.11.1-.18-.03 0-.03-.07-.04-.04l-.03.08-.02-.03c-.06.03.02.06-.04.1ZM78.79 12.22l-.06.02c.03.04.05-.02.06-.02ZM49.4 16.69c-.42-.45.1.17.57.75l-.58-.75ZM49.97 17.44c.13.18.28.35.43.52l-.1-.1-.05-.07-.05-.06-.12-.14-.11-.15ZM55.55 19.07l-.12.05-.13.05-.13.05-.14.05c-.04 0-.09.02-.13.04h-.04l-.03.02-.07.01-.28.07-.14.02-.07.01-.07.01-.07.01h-.07l-.15.02H53.7c-.02.01-.05 0-.07 0H53.28l-.07-.01-.13-.02c-.04 0-.09 0-.13-.02h-.07l-.06-.02-.13-.02-.12-.03-.06-.02-.06-.01a5.46 5.46 0 0 1-.89-.34 4.14 4.14 0 0 0 1.14.45l.16.03.17.03.16.02h.08l.08.01h.08l.08.01h.39l.08-.02H54.09l.04-.01.14-.02.14-.02.07-.02.06-.01.13-.03.12-.03.22-.07.05-.02.05-.02.1-.03.15-.07.2-.1Z"/>
    <path d="m53.42 19.42-.09.02h-.09a4.5 4.5 0 0 0 .72-.03l-.27.01h-.27Z"/>
    <path d="m52.54 19.25.17.06a4.29 4.29 0 0 0 1.95-.06l-.13.03-.07.01-.06.02-.13.02-.14.02h-.06l-.07.01-.13.01-.27.01c-.18 0-.36 0-.54-.03l-.13-.02h-.07l-.06-.02-.07-.01h-.03l-.03-.01-.13-.04ZM59.17 19.1l-.05-.08-.05-.08-.1-.16-.17-.32-.16-.32-.07-.15-.07-.12a.3.3 0 0 0-.05-.07.15.15 0 0 0-.07-.03h-.1l-.04.01-.02.01h-.01l.02-.02.02-.01.02-.01.07-.03h.09l.08.05a.4.4 0 0 1 .05.07l.07.11c.01.03.02.03.01 0l-.02-.06a.8.8 0 0 0-.06-.11l-.02-.04-.02-.01v-.02h-.02l-.02-.02-.03-.01a.18.18 0 0 0-.07-.02l-.03.01h-.04a5 5 0 0 0-.5.26l-.32.21a4.73 4.73 0 0 1-.8.44 16.67 16.67 0 0 1-.05.04 40 40 0 0 0 1.34-.66l.22-.11.05-.02.04-.02h.1c.02 0 .05.02.06.04a.4.4 0 0 1 .05.07l.05.11.02.05.02.05a8.76 8.76 0 0 0 .38.78c.06.1.06.08.04.04l-.04-.12.05.05.15.21ZM67.78 12.65l.03-.2a1.1 1.1 0 0 0-.03.2ZM62 9.44a.8.8 0 0 0-.23-.26.68.68 0 0 0-.3-.11.89.89 0 0 1 .53.37ZM72.76 10.04c.16-.3.34-.53.53-.72-.02 0-.03.03-.05.04l-.05.06-.13.15a3.05 3.05 0 0 0-.14.2l-.02.02c0 .02-.01.03-.02.03l-.04.07-.04.07-.02.04-.02.04ZM32.26 12.26c0 .06.02.1.03.13v-.05l-.03-.13-.03-.13.01.04v.05l.02.1ZM50.87 6.96l.04-.05.04-.05.03-.02.02-.02.05-.04.06-.04.02-.02.03-.01.06-.03.05-.03.1-.03.05-.02.04-.01.1-.02.07-.01.51-.1-.4.07-.17.03h-.02l-.03.01-.05.01-.09.03a1.08 1.08 0 0 0-.43.26l-.05.05-.03.04ZM80.06 9.35 80 9.3l-.07-.06-.03-.03-.03-.02a4.35 4.35 0 0 1 .24.24c0-.02-.02-.04-.03-.05l-.02-.02ZM61.63 17.12c-.09-.2-.13-.4-.15-.58v-.13l-.01-.12v-.13l.01-.05v-.05.12l-.01.07v.2l.01.14c.02.18.07.36.15.53ZM70.7 27.95a12.2 12.2 0 0 0 .05.85l-.01-.25-.02-.28-.02-.32ZM74.1 25.9v.05-.05ZM74.98 20.57l-.02.09.02-.1ZM70.76 29v.14l.01.06v.07a4.24 4.24 0 0 0 .18.8v.03l.02.03.01.03v.02l.02.01c0 .03.02.05.03.07l.04.06c.05.09.13.18.24.25.11.07.25.11.4.12l-.06-.01h-.03l-.03-.02-.05-.02-.06-.02a.8.8 0 0 0 .27.07c.1.01.19 0 .28 0a1.85 1.85 0 0 0 1-.53c.14-.14.24-.3.3-.46l-.02.05-.03.05-.04.05a6.11 6.11 0 0 1-.22.28l-.06.06a.5.5 0 0 0-.03.02l-.03.03-.07.06-.07.05c-.1.06-.22.13-.36.18-.04 0-.07.02-.1.03l-.12.03-.03.01h-.03l-.06.02H72l-.07.01c-.1.01-.22 0-.32-.03a.8.8 0 0 1-.46-.35l-.04-.06-.03-.06-.02-.06-.03-.06a5.66 5.66 0 0 1-.25-.86l-.01-.07v-.07ZM67.78 12.74c-.03.08-.1.64 0 0ZM71.33 17.31a1.46 1.46 0 0 1-.36.21 1.34 1.34 0 0 1-.11.04l.1-.03c.13-.05.25-.12.37-.22ZM79.33 18.53h-.13c-.04.02.07 0 .13 0ZM69.86 17.54l.34.05.08.01.1.01H70.56h-.26l-.04-.01h-.04l-.36-.06ZM81.14 12.24v-.1.1ZM14.82 15.2c-.24.5-.4.78-.65 1.24-.47 1.08 1.09-2.17.37-.61l.58-1.19-.4.64c-.43.93.34-.6.1-.08ZM27.23 8.6l.06-.03.06-.02.05-.02.03-.01.03-.01-.09.01a.9.9 0 0 0-.1.03l-.09.03-.06.03c-.03 0-.05.02-.08.03l-.1.04-.1.05-.06.03-.07.04-.15.08c-.17.11-.22.17-.23.2h.06c.02 0 .03.02-.04.08l-.07.06-.1.1a3.8 3.8 0 0 0-.28.29 2.86 2.86 0 0 1 .83-.64l-.04.02-.04.02-.06.03a.32.32 0 0 1-.07.02v-.02a2.72 2.72 0 0 1 .32-.24c.06-.02.12-.06.19-.1l.1-.05a.65.65 0 0 1 .1-.06Z"/>
    <path d="m26.73 8.96.04-.01.08-.04.1-.05a3.96 3.96 0 0 1 .38-.17l-.18.07-.1.04-.05.03-.05.02a6.9 6.9 0 0 0-.22.11ZM11.06 9.76h-.16l-.02.01h-.03a1.16 1.16 0 0 1 .06 0h.05l.02-.01h.08ZM51.46 8.91l.01.74-.01-.74ZM31.94 17.76l.52.36.17.1.19.1a8.3 8.3 0 0 1-.88-.56ZM22.38 8.14v.12l.02-.07.01-.07.02-.08.01-.1.02-.1v-.06l.01-.07v-.06l.01-.07c.02-.18.02-.38 0-.58v-.05l-.01-.05-.02-.09v-.02l-.01-.02-.01-.05-.03-.1-.03-.08-.02-.05a.55.55 0 0 0-.01-.04l-.04-.1-.04-.08.02.03v.03l.03.06.02.06v.03l.02.03c0 .05.02.09.03.13l.03.12.02.12.02.12v.12l.01.12a3.17 3.17 0 0 1-.02.58l-.02.1-.02.12-.02.1ZM15.15 14.6v-.02l-.03.06.03-.05ZM3.63 8.02l-.07.2-.08.19.06-.15.1-.24ZM31.34 10.08l.12.17.06.09.03.04.03.04.2.37.05.1.05.1.02.04.02.05.04.1a4.15 4.15 0 0 1 .31 1.65V13.04l-.01.1v.1a4.13 4.13 0 0 0 0-.98l-.1-.5a4.87 4.87 0 0 0-.52-1.27l-.08-.13-.08-.11-.14-.17Z"/>
    <path d="m21.61 20.38.16.01h.16a10.15 10.15 0 0 0 1.93-.43 27.18 27.18 0 0 0 1.85-.62l.15-.05.04-.01.04-.02.08-.03.32-.15.58-.3.1-.05.03-.01.03-.02.06-.04.12-.1a.8.8 0 0 0 .25-.65l-.01-.07-.02-.08-.02-.07v-.03l-.02-.04-.03-.07-.03-.06-.01-.02-.01-.01-.01-.02-.02-.04-.16-.27c-.2-.36-.4-.7-.57-1.03-.1-.16-.17-.32-.25-.49a26.8 26.8 0 0 1-.62-1.39 6.81 6.81 0 0 1-.22-2.13v-.15l.04-.27a5.6 5.6 0 0 1 .18-.85l.04-.1.03-.06.02-.06.03-.06.03-.06.02-.03.02-.03.03-.06a2.46 2.46 0 0 1 .83-.82l.11-.07.06-.03.07-.03.06-.04c.03 0 .05-.02.07-.03l.14-.06-.05.01-.06.02a4.52 4.52 0 0 1 .96-.34 2.27 2.27 0 0 1 1.85.44 3.56 3.56 0 0 1 .75.72c.23.27.43.57.59.88a3.94 3.94 0 0 1 .25 3.05c-.21.71-.5 1.41-.78 2.12l-.11.27-.06.14-.02.03v.03l-.02.03-.02.06-.01.07a.9.9 0 0 0-.02.26c0 .09.03.17.07.25.03.08.08.16.14.22l.05.05v.01l.02.01.01.02.06.05.06.06.02.01.01.02.03.02.11.1.12.1.12.1a9.43 9.43 0 0 0 1.54.96l.14.06.13.07.29.11a5.98 5.98 0 0 0 .88.27l.08.02h.04l.04.01.16.03a3.18 3.18 0 0 0 1.93-.35l.07-.04.07-.04.07-.04.08-.05.04-.03.04-.02.05-.04.05-.05a.99.99 0 0 0 .25-.3.73.73 0 0 0 .06-.38.87.87 0 0 0-.06-.25 1.31 1.31 0 0 0-.13-.23l-.18-.25-.07-.12-.04-.05-.04-.06-.07-.12-.07-.11-.14-.23a9.24 9.24 0 0 1-.49-.98l-.05-.12-.02-.06-.03-.07-.04-.12-.05-.13-.08-.26-.04-.12c0-.05-.02-.09-.03-.13l-.03-.13-.04-.13-.05-.26-.02-.14-.03-.13a5 5 0 0 1-.08-.8v-.26l-.01-.13v-.13a8.38 8.38 0 0 1 .15-1.46l.03-.12c.04-.16.08-.32.14-.47.12-.3.28-.55.5-.73l.08-.07.04-.03.04-.03a1.29 1.29 0 0 1 .4-.17h.02l.03-.02.06-.01.11-.02a4.4 4.4 0 0 1 1.5-.03l.13.02h.06l.04.01h.03l.12.03.12.03.06.01.06.01.12.04.23.07.05.02.03.01.03.02.1.04.12.05.05.03.05.03c.14.07.27.16.4.25l.08.07.09.08.04.04.04.04a4 4 0 0 1 .08.09l.08.08.04.05.03.05.08.09.06.1.04.05.02.03.01.02.06.1.04.05.02.06.06.1.02.03v.03l.03.05.06.1.04.12.04.1.04.12.02.06.01.05.03.12.03.11-.03-.01a3.72 3.72 0 0 1-.11 1.88l-.03.1-.03.09-.03.09-.02.04-.02.05a5.9 5.9 0 0 1-.75 1.4l-.12.18-.11.17-.03.04-.02.03-.02.03a.66.66 0 0 0-.04.06l-.02.04-.02.03-.02.04v.02l-.02.02-.03.1-.03.1-.02.1a.91.91 0 0 0 .26.74l.08.06.04.03.02.01.02.02.08.06.18.12a7.49 7.49 0 0 0 1.2.69l.03.01.02.01.06.02.1.04.07.01.05.02.11.03a5.24 5.24 0 0 0 2.74 0c.07-.02.15-.03.22-.06l.22-.06.22-.08.21-.09a4.54 4.54 0 0 0 1.53-1.1c.2-.23.39-.5.54-.76l.05-.1.06-.11.1-.21.04-.1.03-.06.02-.05.08-.21a7.64 7.64 0 0 0 .4-1.74 12.32 12.32 0 0 0 .08-1.74v-.86l-.06-1.74-.05-1.75v-.13l-.02-.05a.8.8 0 0 0-.13-.32.61.61 0 0 0-.2-.17l-.08-.03a.68.68 0 0 0-.17-.04 1 1 0 0 0-.24.01l-.05.01h-.02l-.03.01h-.04l-.5.1-.4.09-1.65.3-.4.08-.21.03-.2.04-.41.06-.22.04-.1.01h-.03l-.02.01h-.04c-.1.02-.2.02-.29.01a.53.53 0 0 1-.2-.07.4.4 0 0 1-.14-.14.77.77 0 0 1-.08-.24v-.07l-.01-.03v-.05l-.02-.22-.03-.43-.09-.84-.1-.83v-.1l-.01-.06v-.05l-.01-.08v-.1a2.77 2.77 0 0 1 .03-.5.92.92 0 0 1 .03-.13.45.45 0 0 1 .05-.09.25.25 0 0 1 .06-.06.4.4 0 0 1 .09-.05 1.52 1.52 0 0 1 .44-.08h.18l.2.01.42.02.83.03 1.67.06.42.02h.1l.06.01h.33l.15-.03h.02l.02-.01.04-.01.1-.04a.84.84 0 0 0 .45-.38.98.98 0 0 0 .06-.13l.02-.04.05-.16v-.03l.01-.04.01-.07a1.38 1.38 0 0 0 .02-.19v-.05l.02-.22.02-.42.02-.42v-.2l.01-.1V1.3l.01-.05.02-.16.01-.03v-.03l.01-.02V1h.01l.01-.02h.03l.03-.01h.03l.04-.01h.35l.2.02c.25.03.5.07.77.13l.05.01h.02l.01.01h.01l.07.02.07.02.03.02h.02l.01.01a.61.61 0 0 1 .31.36l.01.03.01.04v.03l.02.04v.07l.01.04v.04c.02.26.03.53.02.8V3.43l.02.1.02.09.03.1a.8.8 0 0 0 .23.31.93.93 0 0 0 .45.2h.04l.04.02H51.73l.2.03 1.67.2.83.1.42.06h.09l.02.01h.02l.04.01.04.01.04.01.06.02.1.05a.2.2 0 0 1 .05.05l.03.05.01.02v.03l.01.02v.04c.03.12.04.23.03.33 0 .1-.02.18-.05.24a.34.34 0 0 1-.04.06.25.25 0 0 1-.06.06.48.48 0 0 1-.1.05l-.1.03-.09.03a14.53 14.53 0 0 1-.78.25c-.4.12-.63.18-.79.24a2.5 2.5 0 0 0-.44.17l-.08.02c-.13.04-.32.09-.67.15l-.6.1h-.03l-.06.01h-.02l-.03.02a1.05 1.05 0 0 0-.29.12.82.82 0 0 0-.32.36l-.03.06v.03l-.02.03-.01.06-.01.06v.03l-.01.03v.1l-.01.05v.03a52.07 52.07 0 0 1-.02.5 34.84 34.84 0 0 0-.02-.51v-.13l.01-.1v-.07l.01-.01.01-.08V7.2a.56.56 0 0 1 .08-.17.5.5 0 0 1-.01.01.56.56 0 0 0-.04.08l-.02.04-.02.04a.66.66 0 0 0-.02.08l-.02.08-.02.08v.14l-.01.04v1.2l-.02 1.7a86.3 86.3 0 0 0 .04 2.8l.01.19.01.18v-.78l.02-.76.03 1.26a10.36 10.36 0 0 0 .08 1.22v.19c0 .14.01.24-.05-.05a7.95 7.95 0 0 0 .36 1.26l.1.25.05.12.03.05.01.03v.02l.02.01a2.43 2.43 0 0 0 .47.69c.02 0 .03.02.04.03l.04.04a1.81 1.81 0 0 0 1 .43 2.46 2.46 0 0 0 .66 0l.03-.01.07-.01.15-.02.15-.03.08-.02.08-.02.09-.01.08-.03.19-.04.2-.06.1-.03.11-.04c.3-.1.63-.23 1.01-.43.14-.1.48-.3.9-.65l.17-.13.08-.08.09-.08a3.05 3.05 0 0 0 .63-.87 2.35 2.35 0 0 0 .2-.89V13.41a297.87 297.87 0 0 1 .06-2.25c0-.19 0-.36.02-.54v-.38l.01-.13a4.72 4.72 0 0 1 .16-.8l.02-.03v-.03l.02-.03.01-.02a.64.64 0 0 1 .18-.19.76.76 0 0 0-.16.17v.02l-.02.02-.01.03v.01l-.01.03-.02.04a1.96 1.96 0 0 0-.06.35v.26l-.03.36a134.52 134.52 0 0 1 .01.03 5.72 5.72 0 0 1 .16-1.01l.02-.03v-.01l.02-.04a.64.64 0 0 1 .13-.16h.01v-.01h.02l.02-.02.06-.02.35-.01h.36a29.26 29.26 0 0 1 1.99.04h.09l.08.01h-.05l-.05-.02-.06-.01c-.03-.01-.03-.02 0-.02H61.5c.08 0 .19.03.3.1a.89.89 0 0 1 .32.41 1 1 0 0 1 .08.4v.09l-.02.13-.03.27a191.1 191.1 0 0 1-.04.14l.02-.3v-.3.06l-.01.08-.01.15-.03.3-.04.58-.1 1.14c-.07.26-.25 2.14-.26 1.8-.05.86-.1 1.43-.16 2.02-.02.18-.02.36.01.56l.03.14.02.07.02.08.03.07.03.08.04.07.04.07c.1.2.26.37.45.52.2.15.42.27.69.34-.14-.04-.25-.1-.34-.14l-.13-.07-.05-.04a2.52 2.52 0 0 0-.05-.03l-.07-.06a.49.49 0 0 1-.06-.05.53.53 0 0 1-.06-.06s0-.01 0 0l.05.02.03.03.05.04a.9.9 0 0 0 .05.03l.06.04a1.95 1.95 0 0 0 .85.28c-.2-.04-.4-.1-.59-.18a1.88 1.88 0 0 1-.73-.6l-.08-.14-.04-.07-.03-.08a1.75 1.75 0 0 1-.03-.05c.05.16.12.28.19.37l.04.06.02.03.02.03.04.04.04.04.07.08c.02.01.01 0 0 0l-.04-.03c0-.02-.02-.03-.04-.05-.07-.07-.18-.2-.27-.36l-.03-.06-.01-.03-.02-.03c0-.03-.02-.05-.03-.07l-.02-.07-.03-.08a.63.63 0 0 1-.02-.07l-.01-.08-.02-.07v-.08l-.01-.08V16.04c.03-.3.04-.51.01-.46.09-.7.07-.21.06.16v.3a12.24 12.24 0 0 0 .03-.13l-.01.11-.01.06v.06a1.93 1.93 0 0 0 .15.92 1.64 1.64 0 0 0 .53.63 2.04 2.04 0 0 0 1.04.37h.1l.09.01h.19a2.1 2.1 0 0 0 .58-.12 1.38 1.38 0 0 0 .56-.4 2.04 2.04 0 0 0 .39-.7l.02-.06.04-.11a8.44 8.44 0 0 0 0-.03l-.05.13c0 .03-.02.05-.03.07-.03.06 0 0 .02-.1l.02-.07.02-.07.03-.1c0-.05-.02 0-.11.22l.22-.64.1-.36c.05-.17.06-.19.06-.16 0 .06-.05.3.06-.03a19.73 19.73 0 0 0 .56-3.57v.08c0 .2-.02.52.05.02a24.13 24.13 0 0 1-.62 3.82 14.94 14.94 0 0 1-.28.93l-.05.17c-.01.04-.02.07-.01.08 0 0 .02 0 .04-.03a1.46 1.46 0 0 1-.1.2 2.25 2.25 0 0 1-.46.6 1.56 1.56 0 0 1-.5.29 2.06 2.06 0 0 1-.83.11 2.66 2.66 0 0 1-.87-.18 2.33 2.33 0 0 1-.56-.36 1.73 1.73 0 0 1-.26-.28 1.9 1.9 0 0 0 .8.66c.21.1.45.16.69.2h.09l.09.01h.09l.02.01h.07a2.45 2.45 0 0 0 .77-.12 1.63 1.63 0 0 0 .7-.5 2.93 2.93 0 0 0 .39-.66l.03-.08.03-.07c0-.03.02-.06.03-.08l.02-.08c.08-.2.14-.41.2-.61l-.07-.1a9 9 0 0 0 .18-.77l.1-.54c.04-.33.07-.62.14-1.06-.02.24 0 .15.06-.13.04-.27.1-.73.15-1.22-.04.28-.08.67-.08.56l.1-1.12.07-.86.03-.43.01-.04v-.05l.03-.1a.96.96 0 0 1 .18-.36c.04-.06.1-.1.16-.15l.03-.01.02-.02h.03l.02-.02.06-.02h.03l.04-.01c.09-.02.2-.02.3 0a1.05 1.05 0 0 0-.37 0l-.04.01a.65.65 0 0 0-.2.11l-.03.02-.02.02a.63.63 0 0 0-.03.03l-.03.03-.02.02-.01.02-.03.03-.02.04-.02.02v.02l-.03.04-.02.04-.02.04-.01.04-.01.02v.02l-.02.04a.4.4 0 0 0-.01.04l-.01.04v.04l-.02.04v.05a25.47 25.47 0 0 1-.13.9l-.14 1.04c0-.22.03-.52.07-.87l.07-.59.04-.33.02-.17v-.08l.01-.04.01-.04v.1l-.01.02v.06c0 .01 0 .02 0 0a1.17 1.17 0 0 1 .02-.12c.02-.08.03-.15.06-.22v-.03l.02-.03.02-.05.02-.05.02-.02.01-.03a.85.85 0 0 1 .3-.31l.04-.02h.02l.02-.01.04-.02h.03l.08-.02h.07a1.13 1.13 0 0 1 .48.07l.04.03H67.54c-.02 0-.02 0 0 .02l.14.07a.7.7 0 0 1 .13.08c.04.04.09.08.12.14v.03l.02.04.01.04.01.04.03.18v.33c0 .22-.02.42-.04.62-.04.4-.07.75-.15 1.23l.04-.19-.07.48.01-.01-.2 1.7a27.4 27.4 0 0 0-.08.9v.43a1.95 1.95 0 0 0 .1.43 1.73 1.73 0 0 0 .8.9 2.36 2.36 0 0 0 .45.18l.1.03a12.96 12.96 0 0 0 1.32.27 1.94 1.94 0 0 0 .5-.01l.11-.03.06-.02.05-.02c.15-.06.28-.14.39-.23l-.06.06c.16-.14.29-.3.38-.46a2.24 2.24 0 0 0 .27-.73v-.05l.02-.06.02-.1.02-.1.01-.09.03-.17.06-.47c.01-.08.02-.1.02-.01l.1-1.18.01-.15.01-.15.03-.3.04-.6.04.27.09-1.23.03-.39.02-.16.02-.07v-.08a4.2 4.2 0 0 1 .24-.87l.2-.4c.11-.16.24-.31.38-.46l.06-.05.06-.06.12-.1a3.39 3.39 0 0 1 .35-.25l.07-.04.04-.02.04-.02.07-.04.08-.04.04-.02.04-.02c.03 0 .05-.02.08-.03l.08-.03.04-.02.05-.02.08-.02.09-.03.04-.01.04-.02.09-.02.09-.02.09-.02.08-.02a7.73 7.73 0 0 1 1.92-.15h.24l.2.02.15.02h.08l.05.02h.04a3.93 3.93 0 0 1 .08 0l-.1-.02-.12-.02-.1-.01-.11-.02.15.02a7.82 7.82 0 0 1 .58.1l.09.03c.03 0 .06.02.08.03a4.23 4.23 0 0 1 1 .43l.05.04.06.04.28.21c-.09-.07-.14-.11-.1-.09l.1.1a3.48 3.48 0 0 1 .6.64l-.04-.04-.04-.06a7.35 7.35 0 0 0-.05-.06l-.05-.06-.12-.13.06.08a1.51 1.51 0 0 1 .1.12c0 .02.01.03.03.05 0 .02.02.03.03.05l.02.02.01.02.07.1.06.09.05.1.05.08.05.1a4.9 4.9 0 0 0 .09.17l.04.09.03.09.02.04.02.05.03.09.03.08.06.19a5.01 5.01 0 0 1 .17 1.66v-.44.22l-.01.08-.02.17-.02.16v.04l-.01.04-.02.08v.09l-.03.08-.03.16-.04.15-.03.15-.04.15-.04.13-.02.06-.02.07-.03.1-.02.06-.01.05-.04.15-.05.14-.03.09-.01.04-.02.04-.07.18-.01.05-.02.05-.04.1-.03.06-.04.06-.06.13-.07.12-.08.13.09-.15.04-.06c0-.03.02-.05.03-.07l.12-.22a6.04 6.04 0 0 1-1.67 2.16l-.12.1a14.65 14.65 0 0 1-.2.14l-.07.05a8.37 8.37 0 0 0-.25.2l-.02.03-.02.03-.02.03-.02.02-.11.18-.13.17.2.09.2.1.04.03h.02l.01.02.05.01.04.02a.58.58 0 0 0 .13.04h.14l.44-.02a7.6 7.6 0 0 1 .28 0h-.04.1l.1-.01.1-.01.1-.02.19-.02.18-.03c.07 0 .13-.02.19-.03l.09-.02.09-.02.34-.08.17-.05.16-.05.08-.03c.03 0 .06-.02.08-.03l.16-.06.16-.06.07-.03.04-.01.04-.02.15-.07.07-.03.07-.04.15-.07.14-.08.07-.04.07-.04.14-.08.14-.08.13-.08.07-.03.06-.03.08-.05.16-.08c.03 0 .06-.02.09-.04a.2.2 0 0 1 .1 0 .1.1 0 0 1 .07.04v.1l-.01.05-.02.05a2.66 2.66 0 0 1-.1.27l-.02.02-.01.04-.02.03-.02.04a2.72 2.72 0 0 1-.13.21l-.05.07-.02.03-.03.03-.06.07-.06.07-.06.07-.07.07-.03.04c-.02 0-.03.02-.04.03-.08.1-.1.12-.06.1l.07-.05.05-.05a2 2 0 0 0 .06-.06l.06-.06.07-.06.12-.13.02-.03.03-.03a.8.8 0 0 0 .04-.05l.04-.05s0 .02-.02.03l-.02.04-.03.05-.03.04-.09.12-.1.12a5.28 5.28 0 0 1-.84.81l-.08.06a.74.74 0 0 1-.05.03l-.04.03a4.1 4.1 0 0 0-.08.06l-.09.06c-.22.14-.44.26-.62.34a6.34 6.34 0 0 1-1.65.4l-.2.01h-.1l-.1.01c-.28.02-.55 0-.8-.01l-.72-.07a131.36 131.36 0 0 1-.65-.08l-.09-.01a1.3 1.3 0 0 1-.1-.02c-.06-.01-.05-.03.03-.03l-.64-.04-.24-.02c-.06 0 .06.02.23.04l.44.06c.08.02.06.02-.23.01l-.27-.02.57.05a11.38 11.38 0 0 1 .5.05l.8.1c.05.01-.05.02-.23.01l-.72-.03c-.57-.03-1.24-.08-1.55-.11l.44-.03a23.25 23.25 0 0 0-.54-.03h-.17a.68.68 0 0 0-.17.04.45.45 0 0 0-.2.13l-.03.06-.02.03-.02.03-.02.06-.02.06-.01.06v.02l-.01.03-.01.04-.03.17-.03.27-.05.48a23.55 23.55 0 0 1-.08.73l-.1.51a20.26 20.26 0 0 1-.13.52c-.03 0-.04-.15-.1.02l-.22 1.79h-.05l-.08.73-.06.61a17.2 17.2 0 0 1-.28 1.67c.05-.28.04-.28 0-.14l-.16.7a9.26 9.26 0 0 1-.18.58l.07-.37-.07.3-.03.13v.03l-.01.03-.01.05c-.04.13-.08.24-.13.34l-.04.06c0 .02-.02.04-.04.06l-.02.03-.02.03-.02.02-.03.03-.05.05h-.01l-.01.02-.03.02-.13.07-.07.05-.02.02h-.01c-.02.02-.01.02.01.01h.02l.03-.02.06-.04.07-.05.09-.06a1.34 1.34 0 0 0 .4-.67l.01-.03v-.03l.03-.09c.02-.04.03-.04.03 0l-.01.06-.01.05v.03l-.01.03-.02.07-.02.08a1.17 1.17 0 0 1-.04.08l-.03.08a1.32 1.32 0 0 1-.68.62l-.06.02-.03.02h-.03l-.06.03-.06.01c-.04.02-.09.02-.13.03h-.03l-.03.01h-.03l-.04.01a.7.7 0 0 1-.23-.02.54.54 0 0 1-.2-.1.62.62 0 0 1-.13-.17l-.01-.02-.01-.02-.02-.05-.02-.04-.02-.05c0-.02.02 0 .04.04l.03.05.02.04v-.04l-.02-.05v-.02l-.01-.02-.02-.05-.03-.12a4.18 4.18 0 0 1-.17-.62v-.05l-.01-.05-.01-.1-.02-.23c-.03-.32-.04-.7-.03-1.06l-.03-.23v-.57l.01-.18.01-.17.01-.18.01-.18v-.09l.01-.08.01-.17.03-.3-.06.64-.02.31-.02.27-.01.21-.02.12c-.01.05-.02.03-.03-.1a15.8 15.8 0 0 1 .04-1.32l.01-.18.02-.18a15.14 15.14 0 0 1 .07-.67l.03-.25c-.05.32-.1.65-.13.98a8.27 8.27 0 0 1 .05-.67l.01-.1a284.8 284.8 0 0 0 .04-.32l.03-.2.07-.42a43.3 43.3 0 0 0 .18-1.45l.07-.6-.04.5-.03.44a36.82 36.82 0 0 0 0 .14l.07-.9.1-.99.05-.49.01-.12v-.12c.01-.09 0-.17-.01-.25a.34.34 0 0 0-.08-.16.43.43 0 0 0-.15-.11 1.2 1.2 0 0 0-.27-.09l-.08-.02-.7-.18c-.1 0-.49-.08-.86-.15-.38-.08-.73-.15-.73-.13l-.27-.06-.17-.04-.08-.02a1.12 1.12 0 0 1 .21.02l.39.07c.6.12 1.43.27 1.52.27l-1.23-.26-.4-.07-.17-.03-.17-.03h-.05l-.02-.01h-.02l-.09-.01h-.18c-.13 0-.26.02-.42.07-.15.05-.31.13-.48.25l-.13.1-.13.1-.03.04-.04.03-.06.06-.15.13.12-.13.06-.07.06-.06c.09-.1.18-.19.28-.27l-.06.04-.06.05a.68.68 0 0 0-.06.06l-.07.05-.06.07-.06.06-.12.12c-.16.16-.35.32-.52.46a3.68 3.68 0 0 1-.14.13l-.11.1a4.3 4.3 0 0 1-.8.5l-.06.04-.06.02-.06.03-.04.01-.03.02-.13.04-.13.04a3.78 3.78 0 0 1-1 .15h-.08l-.1.01c-.06.01-.08.02-.04.03l.12.01h.37c.16 0 .33-.02.5-.05l-.28.04-.14.01h-.07l-.06.01H62.92a6.43 6.43 0 0 1-.81-.1h-.06l-.06-.02-.22-.05-.21-.06-.21-.06a3.8 3.8 0 0 1-.79-.4l-.06-.04-.05-.04-.07-.06-.03-.03a.6.6 0 0 1 .1.05l.08.04.1.06.06.03.03.02.03.01.13.07.14.06.07.03.07.03.27.1c.05 0 .09.02.13.03l.05.02h.05l-.23-.07-.2-.07-.09-.04a2.09 2.09 0 0 1-.08-.03l-.08-.04-.07-.03-.13-.06a.78.78 0 0 1-.06-.03l-.06-.03-.21-.11-.11-.07-.06-.03-.05-.04-.06-.04a5.08 5.08 0 0 1-.2-.15l-.03-.03c-.02 0-.03-.02-.04-.03a2.8 2.8 0 0 1-.08-.06c0-.02-.02-.03-.03-.04l-.02-.02-.02-.02a3.86 3.86 0 0 0-.08-.08l-.05-.05-.02-.02-.02-.02-.1-.1c0-.02-.02-.04-.04-.06l-.04-.06-.1-.12c.27.37.4.5.4.51-.01 0-.05-.02-.1-.07l-.06-.05-.05-.05-.07-.07-.06-.07.06.07.07.08.15.17.04.04.04.04.09.09.04.04.05.04.1.09.19.15.05.04.05.04.1.07.06.04c.02 0 .04.02.05.03l.1.07.11.06a3.5 3.5 0 0 0 .79.33l.02.01h.03l.05.02h.05l-.02-.01-.09-.03-.08-.03-.09-.04-.09-.03a1.31 1.31 0 0 1 .26.07l.12.03.07.01.07.02.14.03.06.01.07.01.1.02.24.04.18.02.26.04a.8.8 0 0 1 .18.03c.02.02-.1.03.04.05.29.02.5.02.67.01H63.86l.1-.02h.08l.07-.02h.05l.04-.02.05-.02c.03 0 .03-.02.04-.02 0-.02 0-.03.14-.07l.05-.02.07-.02.17-.06a6.1 6.1 0 0 0 .47-.2c.03 0 .05-.02.08-.04l.13-.05.12-.06c.21-.13.44-.3.67-.48l.16-.14.16-.15.15-.15.15-.15.07-.07.06-.07.07-.06a.34.34 0 0 1 .04-.03l.03-.03.27-.2c.16-.1.3-.14.37-.17.12-.01.24-.02.36 0h.1l.1.02.1.02.1.03.85.17c.58.1 1.17.21 1.65.33.04.04-.15.02-.49-.04A34.14 34.14 0 0 1 68.4 19l-.05-.01-.05-.01-.1-.02h-.07l-.02-.01h-.1a1.35 1.35 0 0 0-.7.19c-.1.06-.19.12-.27.2-.02 0-.04.03-.06.04l-.02.03-.03.03-.05.05-.05.05-.17.18.13-.11.09-.08.05-.04-.01.03a1.41 1.41 0 0 1-.1.12l-.1.1c-.11.12-.27.28-.43.41l-.11.1-.11.1-.18.14.18-.13.17-.14a7.5 7.5 0 0 0 .63-.59l.08-.08.07-.07.07-.07.08-.06a1.3 1.3 0 0 1 1.1-.3h.1l.1.03.22.04c.13.04.43.13.78.21.35.09.75.17 1.06.2l-.27-.05a21.48 21.48 0 0 0 .85.15h.08l.02.01.14.05c.04.02.08.05.1.09.04.04.05.1.06.16a1.14 1.14 0 0 1 0 .24l-.05.37c-.03.18-.01-.18-.01-.27l-.07.6-.03.34-.05.67-.06.38c-.01.02-.01-.06 0-.14 0-.15 0-.34-.06.11-.04.63-.09 1.12-.15 1.58l-.1.7c-.03.12-.04.25-.06.37l-.02.2v.1l-.02.1c.02-.06.03-.04.03.04v.17l-.01.23-.01.6v.65c0 .42.02.79.04.9a4.49 4.49 0 0 0 .03-.26v-.36l.07 1.3.03.32.01.16.02.16c.04.2.1.41.17.61l.03.16-.04-.08a3.34 3.34 0 0 1-.27-.86l-.04-.26c-.02-.13-.04-.15-.05.03-.04-.7-.05-1.39-.04-2.08l-.03.29v.91c0 .13 0 .26.02.4l.01.21.02.22.01.22.01.11v.06l.02.06a3 3 0 0 0 .17.69l.04.1.02.06.02.06c.03.08.07.15.12.22a.74.74 0 0 0 .43.29.9.9 0 0 0 .24.02h.12l.05-.02h.06c.03-.02.07-.02.1-.03l.05-.02.05-.01.2-.08.09-.04.08-.05c.23-.13.4-.3.51-.44.08-.13.14-.25.18-.35l.04-.15.02-.07.01-.06.06-.22.05-.23.15-.64.24-1.17-.15.34.13-.67.09-.44c.04-.23.07-.33.08-.35a59.06 59.06 0 0 1 .21-1.49l-.05.46c.16-.8.17-1.03.19-1.32.04-.44.14-1.1.27-1.76l-.04.3-.03.3c.06-.4.15-.9.14-.95l.05-.2a41.99 41.99 0 0 1 .06-.4 11.8 11.8 0 0 0-.35 1.36l.04-.23.02-.1.03-.12.04-.22.05-.22.03-.11.02-.11.05-.22.05-.2.03-.11.02-.09.08-.14a.28.28 0 0 1 .14-.09h.35l.82.07.4.04h.2l.2.02.79.07a12.71 12.71 0 0 0 1.2.05c.15 0 .28-.02.42-.03a3.17 3.17 0 0 1-.74.1c-.05.01-.05.01.02.01h.31l.1-.01.21-.02.2-.03a5.68 5.68 0 0 0 1.32-.37c.02-.02.03-.03.01-.03.24-.08.41-.16.56-.24.1-.04.22-.08.36-.15a3.73 3.73 0 0 0 .62-.39l.05-.04.04-.02.03-.03a3.27 3.27 0 0 0 .34-.3l.17-.2.06-.08.07-.08.07-.08.04-.05.03-.04.04-.05a1.65 1.65 0 0 0 .08-.1l.04-.07.14-.24.03-.06a.82.82 0 0 0 .03-.07l.04-.08.03-.09a5.6 5.6 0 0 0 .16-.46l.02-.1v-.06l.01-.05v-.18a.3.3 0 0 0-.2-.2.43.43 0 0 0-.16 0 .67.67 0 0 0-.13.02l-.06.02h-.03l-.02.02c-.02 0-.04 0-.06.02l-.04.02.07-.03.08-.02.03-.01h.04l.03-.02h.04c.04-.01.1-.02.14-.01.05 0 .1.02.15.06.04.03.08.09.09.14.02.05.02.1.01.15 0 .1-.02.22-.07.36l-.12.32-.03.08-.04.08-.03.06-.03.07.03-.07.02-.06.04-.09.03-.08a5.72 5.72 0 0 0 .15-.57l.01-.12c0-.04 0-.08-.02-.12a.23.23 0 0 0-.19-.15h-.11a4.01 4.01 0 0 0-.34.12l-.23.1-.22.1-.19.1.12-.07.05-.03.05-.03.17-.08.06-.05c-.03 0-.1.03-.19.07l-.13.06a61.39 61.39 0 0 1-.22.1l-.04.03-.02.01-.02.01c-.04.02-.06.03-.04.01l.02-.01.04-.03.16-.1.1-.05.08-.04.1-.05a19.05 19.05 0 0 1 .28-.14l.07-.02.13-.05-.05.01-.04.02-.1.03a12.9 12.9 0 0 0-.34.15l-.13.06-.18.1c-.03 0-.05.02-.08.03l-.06.04-.2.13-.15.1-.07.04-.09.05-.21.12-.15.07-.2.08-.04.02-.06.03c-.04 0-.08.02-.13.04l-.06.02-.07.02-.15.05a7.67 7.67 0 0 1-1.07.2l.07-.02a5.77 5.77 0 0 1 .36-.08l.07-.02h.04l.03-.02c.05 0 .1-.02.15-.04.03 0 .05 0 .08-.02.02 0 .04 0 .07-.02l.14-.04.13-.04.12-.04.1-.03c.1-.04.16-.06.1-.05l-.2.07-.18.06-.18.06-.1.03-.1.02a11.56 11.56 0 0 0 1.5-.58l.24-.14a118.72 118.72 0 0 1 .53-.3l.05-.02.05-.03.1-.05.23-.1.1-.05.06-.02.05-.02.05-.01h.03l.02-.01.05-.01h.04l.09-.02a.4.4 0 0 1 .08 0 .4.4 0 0 1 .18.07.4.4 0 0 1 .07.07.4.4 0 0 1 .1.25V17l-.01.1-.02.1-.02.11-.06.16-.02.08-.03.08-.03.07-.03.08-.04.07v.02l-.01.01v.01l-.01.03-.11.2-.06.1c0 .02-.02.04-.03.05l-.03.05-.04.05c0 .02-.02.03-.03.05l-.07.08-.13.16-.13.15-.06.07-.04.04-.03.03.08-.07.07-.08.07-.08.04-.03.03-.05.07-.08.07-.08.07-.08.04-.05.03-.05c.09-.13.16-.26.22-.4h.01l.01-.02.02-.04c0-.03.02-.05.03-.08l.06-.15.11-.3c.05-.15.05-.27.05-.37v-.07l-.02-.08a.43.43 0 0 0-.35-.3.65.65 0 0 0-.15-.01h-.08l-.04.01h-.02l-.03.01-.04.01-.05.02-.05.01-.05.02-.1.05-.1.04-.2.1-.11.05-.07.03-.25.14-.23.13a6.9 6.9 0 0 1-2.68.9l-.24.03-.25.02-.25.02H78.51l-.02-.02h-.02l-.1-.07-.15-.07.13.48.13-.2v-.01l.02-.02h.01v-.02l.04-.02.13-.1.14-.1.13-.1.04-.03.03-.03.07-.05.13-.11.13-.12.06-.05.06-.06.12-.12a6.8 6.8 0 0 0 1.54-2.43l.06-.15.05-.16.03-.08.02-.08.04-.15.05-.16.02-.08.02-.08.03-.16.03-.16.02-.08.01-.08.03-.16.02-.16V13l.01-.08.01-.16.01-.16V12.05l-.01-.08-.01-.16-.02-.15-.03-.15-.02-.16v-.03l-.02-.04-.01-.07-.04-.15-.04-.15-.01-.07-.03-.07-.02-.07-.01-.04-.02-.04-.05-.14-.06-.14-.06-.13-.07-.13a3.85 3.85 0 0 0-.67-.9l.06.07.03.03.03.03a.45.45 0 0 0-.06-.06l-.08-.04c-.01-.03-.04-.05-.06-.07l-.06-.07-.16-.14-.09-.06-.08-.06a3.93 3.93 0 0 0-.35-.23 3.85 3.85 0 0 0-1.77-.69l-.14-.02-.14-.01-.14-.02-.14-.01a9.15 9.15 0 0 0-1.73.03l.17-.01.07-.01a17.56 17.56 0 0 0 .3-.02H76.34c.13 0 .16 0 .2.03l-.15.03-.1.02-.15.02-.2.02-.27.03a8.28 8.28 0 0 0-.7.1l.08-.03.08-.02c.04-.01.05-.02-.01-.01l-.16.02-.12.03a3.24 3.24 0 0 1-.17.04l.08-.02a.86.86 0 0 1 .14-.02l-.03.01-.04.02-.11.03-.16.06a5.01 5.01 0 0 0-.97.48c-.02 0-.03.02-.04.03l-.04.02-.07.06-.07.05-.04.03-.03.03-.07.05-.06.06-.12.12a4.1 4.1 0 0 0-.36.42c-.08.12-.13.2-.14.19a2.84 2.84 0 0 1 .6-.76l-.02.02-.03.02-.02.03-.29.3-.18.23.03-.06.06-.1.05-.07.05-.08c-.3.4-.52.85-.66 1.31l-.05.13a1.35 1.35 0 0 1-.04.14v-.07l.01-.06.02-.07c.04-.2.14-.46.07-.3-.06.14-.1.28-.13.43l-.01.05-.01.05a2.16 2.16 0 0 0-.04.21l-.02.1-.08.75c-.03.47-.04.9-.05 1.31l-.01.31-.01.15v.16l-.04.64a21.91 21.91 0 0 1-.1 1.39c-.01-.1-.1-.13-.07-.1l-.03.14v.07a2.9 2.9 0 0 1-.09.33c-.05.17-.13.33-.23.47a1.05 1.05 0 0 1-.37.33.97.97 0 0 1-.5.08 7.19 7.19 0 0 1-1.27-.23c-.2-.06-.4-.14-.56-.25a1.32 1.32 0 0 1-.41-.42l.14.18a1.59 1.59 0 0 0 .58.4 2.06 2.06 0 0 0 .25.08l-.05-.01-.03-.01-.03-.01-.1-.05a3.28 3.28 0 0 1-.31-.16 1.26 1.26 0 0 1-.6-1.08v-.22l.03-.24.03-.25.11-.95.26-1.89a51.18 51.18 0 0 0 .17-1.41 2.66 2.66 0 0 0-.08-.78l-.03-.06c0-.03-.01-.06-.03-.08a1.14 1.14 0 0 0-.3-.36c-.08-.06-.16-.1-.25-.15a1.6 1.6 0 0 0-.88-.1h-.08l-.07.03-.07.02-.07.03-.07.04-.07.03-.06.05c-.07.06-.15.12-.2.2l-.03.02-.02.03-.05.06a.85.85 0 0 0-.03.06l-.02.03-.02.03-.03.06-.03.07-.02.03v.03l-.03.07-.02.06-.02.07-.03.14v.06l-.02.06-.01.12-.06.46-.22 1.86a33.84 33.84 0 0 1-.54 3.17c-.07.2-.15.41-.24.61 0 .03-.02.05-.03.07l-.04.07c0 .03-.02.05-.03.07a1.48 1.48 0 0 1-.2.3.93.93 0 0 1-.67.36l-.2.02H63.46l-.2-.04h-.06l-.05-.02-.1-.03a1.29 1.29 0 0 1-.62-.42l-.1-.15-.02-.04-.02-.04v-.02l-.01-.03-.02-.04a1.26 1.26 0 0 1-.05-.36v-.17l.01-.03.02-.23.05-.46.09-.91.16-1.79.17-1.77c.03-.3.05-.6.06-.91v-.13a1.03 1.03 0 0 0 0-.14 1.67 1.67 0 0 0-.3-.77 1.38 1.38 0 0 0-.7-.5c-.09-.03-.19-.05-.28-.06a19.2 19.2 0 0 0-2.86-.03H58.5l-.05.02-.05.01-.05.02a.6.6 0 0 0-.05.02l-.02.01-.02.01-.04.03-.04.02-.01.02h-.02l-.03.03-.05.05-.05.05-.04.04a1.17 1.17 0 0 0-.19.29l-.01.02v.02l-.02.03-.07.21-.02.08-.02.05-.04.1-.03.09a2.4 2.4 0 0 0-.06.38l-.03.33-.01.31-.03.58a93.49 93.49 0 0 0-.09 2.75v.3l-.01.08c-.02.11-.04.23-.08.34-.07.22-.2.44-.39.64l-.03.04a1.17 1.17 0 0 1-.11.11l-.08.07-.1.07c-.11.1-.24.2-.38.3l-.11.07-.11.07-.24.13a5.4 5.4 0 0 1-.52.26l.08-.04.04-.02.04-.02.15-.1.13-.07.04-.04c.02 0 .02-.02.03-.02.02-.02.02-.02 0-.02l-.04.01a.8.8 0 0 0-.06.03l-.23.1-.08.04-.1.04-.1.04-.1.05-.1.04-.08.04-.1.05-.11.05a4.6 4.6 0 0 1-.86.23l.22-.06.1-.03.11-.04-.3.06-.14.03a1.39 1.39 0 0 0-.16.03l-.08.01-.04.01h-.04a.3.3 0 0 0-.03.01h-.04l-.07.02h-.3a.98.98 0 0 1-.6-.28c-.08-.09-.17-.2-.24-.34l-.03-.06-.03-.05-.05-.13-.06-.14-.03-.07-.02-.07-.05-.13c0-.04-.02-.09-.04-.13l-.04-.13-.02-.06-.01-.07-.04-.13-.03-.13-.03-.14a4.13 4.13 0 0 1-.07-.4l-.04-.27-.02-.27-.03-.27-.01-.27-.01-.28-.01-.27-.01-.28-.03-1.08a2051.39 2051.39 0 0 0-.07-3.1l-.02-.48a344.81 344.81 0 0 0 0-.43l.02-.03v-.02l.01-.02.02-.03.02-.02a.31.31 0 0 1 .05-.05h.01l.02-.01.02-.02.13-.04h.05l.02-.01.07-.01.33-.04c.1-.01 0 .02-.16.06l-.13.03-.08.01-.03.01h-.01l-.02.01h-.03l-.03.02h-.02l-.03.02a.38.38 0 0 0-.06.04.14.14 0 0 0-.04.06l.02-.01a.19.19 0 0 0-.04.05v.02l-.01.02v.03l-.01.02v.1l-.01.13v.42l.01.41c.01.15.03.1.04.32l-.01-.8V7.54l.01-.04.04-.05v-.01l.02-.01h.01l.02-.02h.01l.02-.01.05-.02h.06l.01-.01h.06c.2-.04.37-.05.5-.06.35-.05.66-.1.95-.17l.05-.02h.05l.1-.03a18.56 18.56 0 0 0 2-.62l.02-.01.04-.02-.04.02-.03.01-.22.08a5.16 5.16 0 0 1-.43.11l.26-.1.23-.08.13-.04.03-.01h.02l.02-.02.04-.01.04-.02a1.13 1.13 0 0 0 .33-.23.96.96 0 0 0 .24-.37c.05-.14.07-.28.08-.42a2.24 2.24 0 0 0-.02-.48v-.05l-.01-.02v-.03l-.02-.05v-.03l-.02-.03-.01-.06-.03-.05c0-.04-.03-.07-.05-.11 0-.02-.02-.03-.03-.05l-.03-.05-.08-.1c-.02 0-.03-.02-.05-.03l-.04-.04c-.12-.1-.25-.16-.36-.2a2 2 0 0 0-.34-.08L55 3.88l-.06-.01-.13-.02-.22-.04c-.26-.04-.42-.07-.37-.08l-1.26-.16a73.7 73.7 0 0 0-.63-.07L52 3.46l-.16-.01-.09-.01h-.03l-.05-.02a.09.09 0 0 1-.04-.02.1.1 0 0 1-.02-.04V2.7a12.38 12.38 0 0 0-.02-.84v-.09l-.02-.1a1.84 1.84 0 0 0-.1-.4l-.03-.1-.05-.09a1.86 1.86 0 0 0-.06-.1l-.03-.04-.03-.04c-.1-.12-.2-.22-.33-.3l-.04-.04-.03-.01-.02-.02-.1-.05-.1-.04-.04-.02-.05-.01a.62.62 0 0 0-.05-.02l-.05-.01-.05-.02h-.05l-.16-.04A8.35 8.35 0 0 0 48.8.17a1.57 1.57 0 0 0-.24.02h-.03l-.03.02h-.03l-.04.02h-.03c-.02.02-.05.03-.07.03a.76.76 0 0 0-.4.4.96.96 0 0 0-.07.24l-.04.2-.01.19v.04l-.01.04v.09l-.04.68-.01.33-.01.17-.01.08v.07l-.03.13v.05l-.01.01V3l-.01.02a.12.12 0 0 1-.06.06h-.03l-.01.01h-.03a1.5 1.5 0 0 1-.26.01h-.16a102.48 102.48 0 0 0-2.72-.11l-.68-.03h-.36a2.4 2.4 0 0 0-.6.08l-.1.04-.06.02a.82.82 0 0 0-.05.03l-.05.02-.05.03-.1.07-.05.04a.6.6 0 0 0-.05.04l-.04.05-.04.04-.02.03-.02.02-.04.05-.06.1-.1.22a3.3 3.3 0 0 0-.1.8l.01.08v.1l.01.09.01.1.07.67c.06.45.1.9.14 1.33l.03.33V7.56l.02.05.01.1a1.57 1.57 0 0 0 .26.62 1.2 1.2 0 0 0 .39.32l.08.04.07.03a.4.4 0 0 0 .05.01h.03c.01.01.02.01 0 0l-.12-.04a1.13 1.13 0 0 1-.6-.56V8.1l-.02-.03v-.01l.1.15a1.15 1.15 0 0 0 .58.47 1.36 1.36 0 0 0 .51.09c.14 0 .26-.01.36-.03l.12-.02.12-.01.47-.07.16-.02.09-.02.09-.02.44-.09-.28.07-.29.08.1-.02.1-.02.2-.04.39-.07.78-.15.79-.16.4-.09.19-.04.05-.01h.03l.06-.02h.03L47.9 8l.04-.01h.08l.04.01.01.04.01.08.05.75.07 1.51c-.03-.16-.02.25-.02.49s0 .32-.05-.5v.75l-.02.4-.03.38a169.8 169.8 0 0 0-.09 1.22v.15c.09-.36.16-.72.22-1.09a6.9 6.9 0 0 1 0 .95l-.01.2v.07l-.01.05v.02l-.02.16v.08l-.02.08-.03.16c0 .06-.02.11-.03.17l-.01.08-.02.08-.03.17-.04.16-.02.08-.02.08-.05.15v.04l-.02.03-.02.08-.05.14-.05.14-.05.13-.04.12-.05.11-.04.1c-.04.06-.03.02 0-.08l.02-.04.01-.04.04-.11.09-.27c.13-.4.24-.95.29-1.34-.01-.02-.02.02-.04.08a2.72 2.72 0 0 0-.06.26c-.04.22-.11.5-.19.76l-.03.09-.02.09-.06.15-.03.07-.02.06-.04.09c-.02.04-.03.05-.03.02l.02-.09.02-.07.01-.04.02-.05-.05.14-.04.11-.02.06-.02.04-.04.08-.02.07-.03.05-.03.06c-.02.07 0 .03.04-.03 0-.02.02-.03.03-.05l.02-.04.04-.06-.01.06s0 .02-.02.03c0 .02 0 .03-.02.05l-.06.14a3.74 3.74 0 0 1-.86 1.05l.1-.08.05-.04.05-.05.1-.09.08-.1.05-.05.04-.05.04-.05.02-.02.03-.03.15-.21a3.77 3.77 0 0 1-.93 1.03c-.18.12-.38.24-.64.35l-.1.04-.05.02-.05.02-.1.03-.13.04-.25.06-.14.03-.07.02h-.07c-.54.14-1.1.18-1.65.12a.45.45 0 0 0-.1-.04l-.08-.02-.04-.01-.05-.02a5.8 5.8 0 0 0-.1-.02l-.12-.04-.26-.08h-.01l-.02-.01-.03-.01-.04-.01-.03-.02-.14-.06a8.26 8.26 0 0 1-.86-.59l-.14-.1-.01-.01h-.01v-.01h-.02l-.01-.02a.17.17 0 0 1-.02-.04V16.9l.01-.02a.7.7 0 0 1 .05-.06l.01-.02v-.01l.01-.02.04-.05.08-.1.31-.45a4.8 4.8 0 0 1-.3.5l-.06.08-.02.04-.02.02v.01l-.02.03-.02.02v.02l-.02.02v.01l-.01.03v.02H41v-.04l.01-.02.02-.04.04-.05.39-.57c-.02 0 .08-.2.12-.29.02-.04.02-.06-.01-.01-.04.04-.11.15-.25.36.16-.28.3-.54.42-.8l.04-.11.05-.1a8.79 8.79 0 0 1 .05-.12l.04-.1.04-.12.03-.06.02-.06.04-.13.04-.13c.06-.18.1-.38.15-.6l.01-.04v-.04l.02-.09.03-.18.02-.19.02-.2c0-.27 0-.58-.05-.92l-.01-.06-.01-.06-.03-.13c0-.05-.02-.09-.03-.13l-.04-.14a4.74 4.74 0 0 0-.04-.13l-.03-.07v-.04l-.02-.03c-.04-.1-.07-.19-.12-.28l-.05-.12-.04-.09-.05-.12-.02-.05.02.02a2.22 2.22 0 0 1 .13.2c0 .02 0 .03.02.05l.03.07.08.17.04.1.02.04.02.04.07.19.02.09.03.08.02.08.02.07.05.17a4.06 4.06 0 0 0-.38-1.21l-.07-.12c0-.02-.02-.04-.03-.05l-.03-.06a4.2 4.2 0 0 1-.07-.1l-.06-.11-.07-.1-.04-.05c0-.02-.02-.03-.03-.05l-.08-.1-.07-.08c-.2-.23-.41-.41-.62-.56l-.16-.1-.16-.1-.3-.15c-.03 0-.06-.02-.08-.03-.03 0-.05-.02-.08-.03l-.07-.03h-.04l-.04-.02-.15-.05-.15-.04a2.6 2.6 0 0 0-.14-.03l-.15-.03-.15-.03L39 9h-.07l-.08-.02-.15-.01h-.08l-.07-.01a4.9 4.9 0 0 0-.5-.03 6.96 6.96 0 0 0-.98.06l-.1.02-.1.02-.08.02h-.04l-.05.02-.08.03-.08.02a2.18 2.18 0 0 0-.73.47l-.05.04-.02.03-.02.02-.04.04-.04.05-.02.02-.01.03-.04.04a3.44 3.44 0 0 0-.28.52 3.84 3.84 0 0 0-.24.8l-.06.33c-.03.24-.06.51-.08.82v-.15s-.02.03-.03.1a6.58 6.58 0 0 0 0 1.61l.05.4.03.25a8.3 8.3 0 0 1-.18-.98c.04.38.1.76.14 1l.03.17.01.1c0 .05 0 .06-.02 0 0-.02.02.02.04.1l.12.36c0 .02 0 .04.02.06l.02.06.04.14.06.14.02.08.03.08a8.86 8.86 0 0 0 1.14 2.11l.03.04.03.04.06.09.05.07.03.04c.01.03.03.05.03.08v.1a.21.21 0 0 1-.05.06l-.04.03h-.01l-.04.03-.05.04h-.02l-.02.02-.03.02-.07.04-.06.03.13-.04.07-.03h.03l.03-.02a1.26 1.26 0 0 1-.1.06l-.05.03-.05.03-.1.06c-.03 0-.04.02-.06.03l-.03.01-.03.01a2.54 2.54 0 0 1-1.01.23h-.14l-.07-.01-.07-.01h-.07l-.07-.02-.07-.01-.07-.01a5.85 5.85 0 0 1-.83-.24l-.26-.1a7.38 7.38 0 0 1-1.89-1.15l-.14-.12a3.51 3.51 0 0 1-.12-.1l-.06-.05-.02-.01-.01-.02a.3.3 0 0 1-.1-.26c0-.03 0-.07.02-.1l.05-.14.3-.84c.18-.4.27-.58.3-.62.05-.03.04.07.01.22l-.19.45-.22.54-.12.3-.03.07-.02.04v.03a.33.33 0 0 0-.03.1c0 .03 0 .07.02.1.01.04.03.06.05.09l.02.02.03.03.06.05.12.11.05.04.04.04a4.07 4.07 0 0 0 .19.15l.05.03.04.04.1.07.1.06.04.04.05.03.1.06c.25.16.5.3.77.43l.2.1.1.04.1.04.2.08.2.07c.26.09.53.16.8.2h.03l.03.01.05.01h.04l.05.01.1.01h.1a2.42 2.42 0 0 0 1.14-.26l.09-.04.09-.05.09-.05v-.01h.02l.02-.02.03-.02.02-.02h.01l.02-.02c.02 0 .03-.02.04-.03a.14.14 0 0 0 .03-.08c0-.03 0-.05-.02-.08l-.02-.04-.05-.07-.14-.2-.14-.21-.17-.2c-.02-.02-.01 0 .02.06l.07.12.1.15.14.2.08.1.04.05v.01l.01.02a.2.2 0 0 1 .04.08v.04c0 .02-.02.03-.03.04l-.02.02v.01h-.01v.01l-.06.03-.02.02-.02.01-.01.01-.07.04-.03.02-.03.02-.06.03-.07.03a2.3 2.3 0 0 1-.99.24l.2-.03-.07.01H35.06h.2l.04-.01h.09a2.46 2.46 0 0 0 .68-.22l.08-.04.08-.05.04-.02.04-.03.04-.02.01-.01.02-.01.06-.05h.02v-.01l.02-.01a.15.15 0 0 0 .02-.03v-.07a.08.08 0 0 0-.04-.03l-.03-.03-.03-.03a9.55 9.55 0 0 1 .04.07v.01h.01l.01.03v.05l-.01.01-.01.01-.02.02-.04.03h-.01v.01c-.02 0-.02.01-.03.02-.02 0-.03.02-.05.03l-.04.03a4.9 4.9 0 0 1-.2.11l-.1.06-.13.05-.07.02-.03.01-.04.01-.04.02h-.05l-.09.02-.1.02a.6.6 0 0 1-.05 0l-.06.01h-.32l-.07-.01-.07-.01c-.03 0-.05 0-.08-.02h-.06l-.05-.01-.13-.03a3.96 3.96 0 0 1-.9-.29l-.1-.04-.1-.05c-.02 0-.03-.02-.05-.03l-.05-.02-.1-.05-.09-.05a13.5 13.5 0 0 1-1.52-1.07l-.05-.04a1.23 1.23 0 0 1-.05-.04c-.02 0-.03-.02-.05-.03a.3.3 0 0 0-.02-.02l-.01-.01a.1.1 0 0 1-.05-.04c-.02-.02-.02-.04-.02-.07v-.01l.01-.02.02-.04.02-.08.07-.18.16-.43.22-.58.27-.75-.3 1.02c.25-.63.38-1.04.45-1.32.08-.28.11-.44.13-.6l.03-.24.01-.07.01-.08v-.08l.02-.1a5.98 5.98 0 0 0 0-.89l-.02-.2-.04-.24c.04.23.04.29.03.27l-.02-.06-.02-.1a.21.21 0 0 0-.02-.05v.06a2.04 2.04 0 0 0 .02.24c0 .12.02.28.01.5a5.17 5.17 0 0 0-.38-1.82 5.15 5.15 0 0 0-.98-1.5l-.04-.05-.1-.1a5.76 5.76 0 0 0-.1-.1l-.09-.09-.02-.02-.02-.02-.04-.03a1.27 1.27 0 0 0-.05-.04h-.02c.01.02.05.06.01.05l.06.05.05.04.1.1a5.76 5.76 0 0 0 .14.15l.04.04.04.05.05.05.08.1.15.18c.1.13.2.25.28.38l.03.04c0 .02.02.03.03.05l.06.1.1.18.1.19.1.2a3.64 3.64 0 0 1 .25.82l.02.1.02.12.02.23c.06.36.08.72.05 1.08a4.52 4.52 0 0 1-.33 1.17c-.03.04-.03.02-.01-.06 0-.05.02-.1.04-.18l.06-.27-.15.54-.08.23-.08.21c-.05.05-.03-.02.01-.17l.2-.6.04-.1.03-.1.05-.18.02-.1.02-.1.04-.18c.03-.25.04-.46.02-.58a5.44 5.44 0 0 1-.13.98c-.02.05-.03.05-.02.01v-.08l.03-.14a5.55 5.55 0 0 0 .02-1.55 4.25 4.25 0 0 0-.62-1.67 4.76 4.76 0 0 0-.61-.83l-.08-.1-.08-.08-.04-.04-.04-.04-.09-.08-.16-.14-.08-.07-.08-.06a1.27 1.27 0 0 0-.15-.11l-.07-.05-.07-.05-.25-.14-.1-.05a3.2 3.2 0 0 0-.08-.03l-.05-.03a3.15 3.15 0 0 1 .85.43l.05.04.04.04.1.07.1.08.08.08.05.04.04.05.1.08.16.18c-.16-.2-.36-.4-.6-.59l-.18-.14-.1-.06-.02-.02-.03-.02A2.69 2.69 0 0 0 28 8.54l-.06.01-.05.02-.1.02-.14.03-.17.06.09-.02-.6.23-.08.05-.09.05-.09.04-.09.06a3.36 3.36 0 0 0-.97.92 3.54 3.54 0 0 0-.52 1.2l-.08.35.06-.1v-.13a3.86 3.86 0 0 1 .37-.97l.08-.13.04-.06.04-.06a1.85 1.85 0 0 1 .2-.24v.02l-.1.14a3.14 3.14 0 0 0-.32.6l-.06.14-.03.07-.02.07-.02.06-.02.07-.04.12a5.55 5.55 0 0 0-.17.78l-.03.14a8.29 8.29 0 0 1-.03.26l-.02.1v.1l-.02.1v.19a2.46 2.46 0 0 1-.04-.37v-.17a4.84 4.84 0 0 1 .55-2.05c.07-.13.15-.25.23-.35l-.09.1-.09.12-.18.3c-.12.25-.24.55-.32.9-.08.35-.13.76-.14 1.21V12.7l.01.18.02.18v.1l.01.08c.03.25.08.5.14.77a4.63 4.63 0 0 1-.22-1.73v-.11l.01-.1.01-.1.05-.39.1-.54a4.91 4.91 0 0 0-.16.72v.07l-.01.06-.02.13v.12l-.01.12v.55l.02.22.01.1.02.1c0 .04 0 .08.02.11l.01.11.05.23.05.23c.08.32.18.67.34 1.1a3.4 3.4 0 0 1-.16-.38l-.1-.3-.03-.09-.03-.08-.04-.17-.05-.17-.04-.15-.03-.15v-.07l-.02-.06c-.03-.15-.05-.24-.06-.21.04.4.12.8.23 1.17l-.04-.12-.03-.12a6.47 6.47 0 0 1-.03-.11l-.01-.06-.02-.05-.04-.18-.03-.16-.02-.13-.02-.1-.02-.13-.02-.06v.28c0 .04-.01.06-.02.04l-.04-.22a5.12 5.12 0 0 1-.05-.58V12.98l.02.18a5.67 5.67 0 0 0 .16.8l.05.16.02.09.03.08.06.18a19.6 19.6 0 0 0 .4 1.09l-.03-.09-.03-.1-.04-.1-.02-.05-.01-.05-.07-.21-.04-.17c-.02-.08-.02-.11.02-.04l.09.2.17.39c.1.25.2.5.32.74l.09.18.08.19.19.36a7.95 7.95 0 0 1-.27-.38l-.13-.23-.08-.15c-.02-.02-.02-.02-.01.01l.03.09.06.14c.27.51.56 1 .84 1.47 0-.04-.1-.22-.17-.35-.06-.13-.09-.2.05 0a10.3 10.3 0 0 0 .2.38l.04.06.02.03.02.03.02.09-.02.04c0 .02-.02.03-.03.04l-.01.01-.02.01h-.01v.01h-.01l-.04.03-.13.08-.28.18a4.38 4.38 0 0 1-.66.31 27.16 27.16 0 0 1-3.08.9l-.1.02-.06.02h-.06l-.1.02-.12.02h-.06l-.05.01-.11.01a34 34 0 0 0-.11.01h-.06l-.06.01H20.88l-.05-.01-.11-.01a2.83 2.83 0 0 1-.54-.12c-.13-.04-.25-.1-.36-.18a.88.88 0 0 1-.33-.46l-.01-.05-.01-.05a.6.6 0 0 1-.02-.05v-.05a2.85 2.85 0 0 1-.01-1.04v-.05l.02-.05v-.04l.02-.06a51.7 51.7 0 0 1 .08-.22c0 .05.02-.02.07-.16l.2-.57.24-.66a14.36 14.36 0 0 0-.37 1.37c-.03.19 0 .17.04.12l.28-1.09c.05-.22.03-.26-.05-.03l.29-.84.14-.45c.08-.25.16-.47.45-1.14.2-.43.16-.32.1-.13-.05.19-.13.45-.06.3l.31-.8c.06-.15.07-.22.09-.29.04-.13.08-.29.47-1.19a36.29 36.29 0 0 0 .96-2.32c0-.03.03-.07.04-.1l.05-.12.05-.12.05-.12a4.21 4.21 0 0 0 .17-.52c0-.05.02-.1.03-.14l.03-.13.01-.07.01-.07.02-.13.01-.13.01-.07v-.18l.01-.12v-.22l-.02-.2-.01-.1-.01-.07-.02-.12v-.09c-.01-.04 0-.05.01-.02l-.01-.06-.02-.06a4.64 4.64 0 0 1-.03-.12l-.07-.2-.03-.09c0-.03-.02-.05-.03-.08a2 2 0 0 0-.06-.13c0-.03-.02-.04-.03-.06l-.02-.05-.05-.09a2.44 2.44 0 0 0-.06-.1c-.05-.09 0 .02.08.2l.03.07.03.07.06.15.01.04.01.04.03.08.04.14c.04.17.05.27.02.14l-.04-.1-.03-.11-.04-.11-.03-.06-.02-.06a4.67 4.67 0 0 0-.54-.93 2.36 2.36 0 0 0-.93-.67l-.03-.01-.03-.01-.06-.02-.11-.04-.12-.04-.1-.03a6.98 6.98 0 0 0-.55-.14l-.13-.03c.33.05.64.13.93.22l.12.03.05.02.03.01.03.01.12.05.12.05c.15.08.3.18.42.3-.14-.15-.3-.28-.5-.4l-.03-.01-.04-.02c-.03 0-.05-.02-.08-.03h-.02l-.02-.01-.03-.02-.07-.02a4.72 4.72 0 0 0-1.14-.27 3.66 3.66 0 0 0-2.16.38l-.14.07-.15.08-.08.04-.07.04a1.26 1.26 0 0 1-.21.1h-.06a.2.2 0 0 1-.05 0l-.06-.02a.79.79 0 0 1-.15-.1l-.1-.07-.1-.1.1.1.1.06.04.03.03.02.06.03.08.02h.07l.02-.01h.02l.01-.02a.1.1 0 0 0 .03-.02l.02-.03.06-.04.07-.04.04-.03h.02l.01-.02.03-.02-.09.06a1.46 1.46 0 0 1-.22.1h-.12l-.01-.01a.8.8 0 0 1-.12-.08l-.14-.11-.08-.07-.07-.06-.23-.19-.1-.08.05.05a6.07 6.07 0 0 0-.17-.14l-.03-.03-.04-.04-.03-.04-.05-.04-.04-.04-.02-.01-.02-.02-.09-.07-.08-.06c-.02 0-.03-.02-.05-.03l-.04-.02-.05-.03-.04-.02-.09-.05-.1-.04a2.21 2.21 0 0 0-.08-.03l-.1-.04-.08-.02-.09-.03a1.87 1.87 0 0 0-.13-.03h-.04l-.1-.02-.17-.02h-.58l-.09.02a2.96 2.96 0 0 0-1.2.49 2.5 2.5 0 0 0-.17.14l-.04.04-.02.02-.01.01a12.24 12.24 0 0 1-.53.5l-.22.2-.1.09-.08.08-.21.14-.03.01-.02.02-.06.02-.05.02h-.02l-.01.01-.03.01a.87.87 0 0 1-.6-.03h-.03l-.02-.04h-.02c-.01-.02-.03-.03-.05-.03l-.1-.05-.41-.21-.38-.2a21.22 21.22 0 0 0-.96-.48 3.41 3.41 0 0 0-2.04-.2l-.08.02-.08.03-.05.01-.03.01-.08.03-.08.02-.07.03-.16.05a5.84 5.84 0 0 0-1.17.6c-.37.26-.69.59-.95.96l-.01.01-.01.02-.03.04-.04.07-.05.07-.04.07-.15.28-.08.14-.02.04-.02.04-.03.07-.08.14-.06.15c-.18.39-.34.79-.5 1.2a35.78 35.78 0 0 0-.6 1.85c-.04.1-.08.2-.1.31l-.11.32.09-.25-.08.23c-.02.07-.05.13-.06.2a15.45 15.45 0 0 0-.17.55c-.01.06.04-.08.1-.22.05-.13.1-.27.1-.2l-.32 1.05c.01-.1-.02-.05-.07.1l-.23.67a57.88 57.88 0 0 0-.77 2.35L.59 15l-.04.15-.1.3-.33 1.17-.16.57-.08.27-.04.14-.02.08-.02.07-.02.08-.01.07-.02.08v.08l-.03.15-.02.16c0 .2 0 .41.02.62l.02.15.03.15v.04l.01.04.02.07.02.08.03.07c.06.2.14.4.24.57l.07.13.08.13.09.13.04.06.02.03.03.03a3.68 3.68 0 0 0 .9.84 4.16 4.16 0 0 0 1.76.57h-.16l-.12-.01-.08-.01h-.04l-.04-.01a4.25 4.25 0 0 0 .55.07h.36a.8.8 0 0 0 .06 0h.06a3.57 3.57 0 0 0 .94-.2l.1-.04.06-.02.06-.02.05-.03.03-.01.03-.01.1-.06a2.58 2.58 0 0 0 .74-.62c.2-.24.35-.5.48-.77l.04-.1.05-.1v-.02l.02-.03.02-.04.04-.1.15-.37.62-1.53-.03.09c.35-.83.68-1.64 1-2.45l.48-1.2.47-1.22.93-2.44.24-.62.02-.03.01-.03.01-.02.02-.03v-.02l.02-.03.04-.04c.04-.06.1-.11.16-.16a.76.76 0 0 1 .2-.1h.03l.03-.01.06-.01.07-.01H11l.02-.01h.08l.03.01h.02l.02.01.02.01c.06.02.11.06.16.11a.32.32 0 0 0-.16-.09h-.14H11.13l.01.01h.03l.02.02h.01l.02.02c.03.01.06.03.08.06l.02.02.02.02.02.02.01.02a.7.7 0 0 1 .06.11l.01.02v.01l.02.04.02.07a1.24 1.24 0 0 1 .02.64 1.8 1.8 0 0 1-.05.17l-.02.09-.02.04v.02l-.02.03-.3.8-.58 1.52c-.17.47-.32.87-.42 1.19-.45 1.01-.58 1.36-.74 1.78l-.13.34-.17.46-.02.07-.03.08-.02.08-.02.09a3.37 3.37 0 0 0-.1.89v.07l.02.07v.07l.02.08a1.64 1.64 0 0 0 .1.36l-.02-.06-.04-.1a.54.54 0 0 1-.02-.06l-.02-.06c-.01-.04-.03-.08-.03-.13l-.01-.06-.01-.05-.01-.1v.08l.01.07.02.09.01.08a1.56 1.56 0 0 0 .31.62 1.45 1.45 0 0 0 .54.39l.07.03h.01l.02.01.03.01.13.04a2.88 2.88 0 0 0 1.06.13c.18-.01.37-.05.56-.1.02-.02.04-.02.07-.03l.06-.03c.03 0 .05-.02.07-.03a1.3 1.3 0 0 0 .14-.06l.06-.03.13-.08a.95.95 0 0 0 .07-.04l.06-.05.06-.04.03-.03.03-.02.06-.05.06-.05.12-.11.06-.07.03-.03.02-.03.05-.07.05-.07.03-.03.02-.03.05-.07.04-.07.04-.06.04-.07.01-.03.02-.04.04-.06v-.02l.01-.02.02-.02.1-.23.4-.83.67-1.45a103.88 103.88 0 0 1 1.76-3.56c.09-.06-.16.44-.42.97-.26.54-.55 1.1-.53 1.15.31-.66.58-1.23 1.05-2.11-.23.55-.03.12-.19.51.19-.33.51-1.04.8-1.65l.36-.8.06-.14.05-.1.05-.09-.03.02a7.49 7.49 0 0 1 .7-1.16H18v-.01l.02-.01.02-.02s0-.02.02-.02v-.01h.01l.03-.02.02-.02.02-.01.02-.01.05-.02h.02l.03-.01h.18l.06.02.12.05a.18.18 0 0 1 .06.05l.03.05v.1a1.94 1.94 0 0 1 0 .34 1.45 1.45 0 0 1-.05.27l-.01.03v.01h-.01v.01l-.04.09-.14.3.11-.23.07-.15v-.02h.02v-.04l.02-.05.03-.14.01-.08v-.08l.02-.18v-.2a.22.22 0 0 0-.04-.08c-.02 0-.02-.01-.02-.02h-.01l-.02-.03h.03l.04.02c.03.03.04.06.05.09l.02.05a.86.86 0 0 1 0 .24v.1l-.01.05v.04a1.2 1.2 0 0 1-.08.35l-.03.07-.07.16-.45 1.06c-.26.64-.48 1.22-.81 1.97-.49.98-.34.6-.1.03.13-.28.27-.62.37-.87.1-.24.14-.4.08-.31-.17.32-.6 1.09-.23.25a108.78 108.78 0 0 0-1.6 3.52l-.23.58-.13.3-.06.14c0 .03-.02.06-.03.08l-.01.04-.02.04v-.06a4.5 4.5 0 0 0-.32 1.99 3.94 3.94 0 0 0 .68 1.87 5.78 5.78 0 0 0 .36.48l.08.1.16.17.08.08.09.08.17.16.1.08.08.07.05.03.04.04.1.07.1.06.04.03.05.03.1.06.1.06.04.03.05.02.1.06.1.04.05.03.05.02a2.86 2.86 0 0 0 .2.09c.01 0 .03 0 .04.02l.05.01.1.04a5.47 5.47 0 0 0-.67-.31l.08.04.1.04.05.03.06.02.13.06a4.74 4.74 0 0 0 1.93.34l.04.02.16.01.47.02h.38l-.05.01-.1.02.11-.02.14-.02.31-.05.8-.13a21 21 0 0 0 2.97-.78c.32-.11.63-.23.91-.35a8.1 8.1 0 0 0 1.28-.67l.18-.08a.8.8 0 0 1 .1-.04c.03-.02.03 0 0 .02l-.06.05-.03.03a11.14 11.14 0 0 1-1.1.57l-.1.05c-.04 0-.07.02-.1.03l-.18.07-.16.07-.16.06-.14.05-.15.06-.27.1-.54.2.85-.29.65-.23c.35-.14.53-.2.44-.15l.12-.06.06-.03.06-.04.13-.07.14-.07.07-.04.07-.04.15-.09.15-.09.16-.1c.2-.13.42-.27.63-.43l.15-.12.08-.06.08-.07.03-.03.04-.03.07-.06.07-.06.06-.05.03-.02.01-.01.05-.03.04-.01h.05c.03 0 .06.01.08.03l.04.02.02.01V20l.02.02h.02l.26.22.07.05.06.05.13.1c.32.24.6.4.75.47a6.07 6.07 0 0 0 1.12.6c.04 0 .07.02.1.03l.05.02.04.01.11.05c.03.01.04.02.03.03h-.07l.04.01.05.01.09.02.17.04.3.05.24.02H32.98c.11.02.2 0 .26 0h.12c.02 0 .02-.01 0-.02a.8.8 0 0 0-.08-.01l-.3-.04-.15-.03-.06-.01-.06-.02c-.05-.01-.07-.02 0-.02h.17l.15.01h.18c.28 0 .68 0 1.24-.1l.17-.04.07-.01.04-.01h.03c.08-.02.14-.04.19-.04l.08-.02c.01 0 .01 0 0 0-.02.02-.08.04-.17.07l-.14.04-.14.04-.08.01-.03.01-.03.01-.12.03c-.06 0-.1.02-.07.02l.09-.01.08-.02h.05l.05-.01.14-.03.08-.02.1-.02.2-.05.23-.07-.25.08-.25.07.18-.03.09-.02a6.02 6.02 0 0 0 .23-.05l.14-.04a9.05 9.05 0 0 1 .25-.08l.1-.04.1-.03.33-.15.13-.07.13-.08.27-.16.33-.22.45-.28.62-.4c.15-.04-.18.18-.38.32-.1.06-.17.1-.12.09l.55-.3.31-.2c.03 0 .05-.02.07-.04l.04-.02a.2.2 0 0 1 .1-.02c.04 0 .07.02.1.03h.03l.04.03.07.03.29.13.54.25a14.49 14.49 0 0 0 1.07.42c.19.06.38.12.6.16l.07.02h.08l.16.04h.04l.04.01.08.01.17.02.1.01.08.01.18.02h.2l.19.01h-.07l-.02.01h-.08l-.17.02H43.05a1.55 1.55 0 0 0 .16-.01l.16-.01h.08l.09-.02.17-.02a6.98 6.98 0 0 0 2.73-.98l.04-.02.03-.02.08-.05.07-.04.04-.03.03-.02.26-.18.12-.09.12-.09.2-.17c.04-.01.01.01-.04.06l-.05.04-.06.05-.14.11.18-.14.16-.12c0-.02.02-.02.03-.03a2.46 2.46 0 0 0 .22-.2l.2-.2.08-.07.04-.04.03-.03.2-.22.1-.13.25-.3c.12-.15.3-.37.6-.78l.05-.06.04-.07.07-.13.14-.25-.24.35-.14.2-.16.2a14.17 14.17 0 0 1-1.55 1.7c-.29.25-.58.47-.85.65l.09-.06.06-.05a.9.9 0 0 0 .08-.06 13.6 13.6 0 0 1-.66.33l-.02.02h-.03l-.05.03-.1.05-.1.04-.02.01-.03.01-.05.02-.18.08-.04.01-.04.02-.08.02c-.19.06-.27.08-.13 0l-.23.12a7.17 7.17 0 0 1-2.6.33l-.18-.01-.09-.01-.08-.01-.18-.03-.17-.03-.18-.04-.08-.02-.1-.02-.08-.02-.08-.03-.09-.02-.08-.03c-.46-.16-.9-.38-1.35-.61l-.68-.35-.05-.02-.02-.01-.02-.01a.95.95 0 0 0-.12-.05.54.54 0 0 0-.36.01.4.4 0 0 0-.06.03l-.03.02-.03.01-.17.1c-.45.27-.89.54-1.35.79-.23.12-.46.23-.7.33l-.18.08-.18.06-.1.04-.08.03-.19.06a8.12 8.12 0 0 1-1.5.33 4.9 4.9 0 0 1-.94.04h-.11l-.12-.01-.1-.02h-.06l-.06-.01-.1-.02h-.06l-.05-.02-.22-.05-.1-.02c-.03-.02-.07-.02-.1-.03l-.1-.04-.05-.01-.05-.02-.1-.04-.1-.04-.1-.04-.1-.05c-.03 0-.06-.03-.09-.04l-.1-.05-.09-.05a1.8 1.8 0 0 1-.09-.05l-.18-.1c-.03-.03-.06-.05-.1-.06l-.08-.06a7.6 7.6 0 0 1-.69-.52l-.16-.15-.18-.15-.04-.03-.03-.03h-.01l-.02-.02a.64.64 0 0 0-.06-.04l-.07-.04a.65.65 0 0 0-.15-.06.42.42 0 0 0-.15-.02c-.1.01-.2.06-.3.12l-.03.02-.04.02-.02.02-.03.02-.1.08-.1.08-.08.07-.1.08-.1.07c-.25.2-.53.38-.83.56a2.1 2.1 0 0 1-.25.19l-.07.04-.1.05-.1.05-.11.05a14.24 14.24 0 0 1-1.33.54 20.3 20.3 0 0 1-.24.07c.06-.03.01-.02-.1 0l-.2.06-.28.07-.6.16c-.46.14-1.02.28-1.6.38l-.29.04-.48.05-.3.03h-.16l-.16.02c-.22.02-.46.02-.7.02a5.3 5.3 0 0 1-2.41-.52 3.35 3.35 0 0 1-.33-.21l-.08-.06-.04-.04.04.02.06.04.04.03.05.03a3.87 3.87 0 0 0 .87.4l-.4-.18-.09-.04-.1-.05-.04-.02-.04-.02-.1-.05a2.61 2.61 0 0 1-.6-.45l.02.01.1.09c-.2-.18-.38-.36-.53-.55l-.06-.07-.06-.07a8.51 8.51 0 0 1-.3-.44l-.04-.08-.04-.07a3.36 3.36 0 0 1-.2-.45l-.06-.16-.02-.07-.01-.04-.01-.04-.02-.08-.02-.08v-.03l-.01-.04-.02-.08c-.06-.42-.04-.86.06-1.3l.05-.18.03-.08.03-.09.03-.08.03-.09.03-.08.02-.05.02-.05.34-.77c0-.11.23-.65.52-1.28.3-.63.65-1.36.86-1.84-.06.16.09-.14.29-.56l.6-1.27.47-1.2.02-.05.01-.03.02-.03a1.3 1.3 0 0 0 .08-.38v-.11l.01-.1.01-.2a1.42 1.42 0 0 0-.04-.35.7.7 0 0 0-.3-.4l-.03-.01-.03-.02-.05-.02a1.2 1.2 0 0 0-.45-.13h-.13l-.06.01-.07.01a.99.99 0 0 0-.51.29l-.05.06-.02.03-.02.02-.08.1a7.3 7.3 0 0 0-.73 1.21l-.74 1.4c-.5.96-1.01 1.91-1.3 2.43-.6 1.25-1.17 2.42-1.73 3.54l-.4.83-.03.05-.02.04-.05.1-.06.08-.06.09c-.08.1-.16.2-.26.3a1.75 1.75 0 0 1-1.42.48 2.2 2.2 0 0 1-.38-.08l-.1-.03-.09-.03-.04-.02-.04-.02-.04-.01-.03-.03a.75.75 0 0 1-.37-.5.77.77 0 0 1-.02-.09v-.09l-.01-.02v-.17c0-.12 0-.24.03-.36.04-.25.13-.5.22-.75l.08-.19.07-.2.16-.37.3-.76.62-1.51.31-.76.31-.76.3-.78.16-.39.01-.05.02-.05.04-.11.04-.12.02-.11c.04-.16.06-.32.06-.49a1.86 1.86 0 0 0-.27-.99 1.13 1.13 0 0 0-.43-.4l-.03-.01-.04-.02-.07-.03-.15-.04-.07-.01-.08-.01H10.84l-.07.02h-.07l-.13.04-.06.02-.07.03c-.09.03-.17.08-.25.13l-.03.02-.03.02-.06.04-.1.1c-.15.14-.25.3-.33.48l-.34.84-.34.86c-.23.57-.47 1.16-.7 1.77l-.75 1.87-.77 1.98c-.26.71.25-.5.06.06a95.25 95.25 0 0 1-.94 2.35l.3-.68-.02.06.6-1.54c.03-.07-.04.1.03-.04.2-.52.42-1.13.7-1.8-.19.49-.28.8-.4 1.16-.13.35-.27.74-.55 1.39l.23-.62-.42 1.07c-.1.25-.18.47-.35.86l-.13.31-.03.07-.02.05a1.9 1.9 0 0 1-.05.1l-.03.07a1.81 1.81 0 0 1-.07.13c-.04.07-.02.04-.07.09a3.1 3.1 0 0 1-.46.58l-.07.06-.08.06-.01.01-.02.02-.04.02-.04.03-.04.02-.07.05-.09.04a.5.5 0 0 1-.04.02l-.04.02-.04.01-.04.02a3.03 3.03 0 0 1-.93.2h-.19L3 21.45a3.08 3.08 0 0 1-1.14-.28 2.64 2.64 0 0 1-1.05-.93l-.07-.1-.04-.06-.01-.02-.02-.03a3.43 3.43 0 0 1-.06-.1l-.05-.1-.02-.05-.02-.05a2.52 2.52 0 0 1-.04-.1l-.03-.09-.02-.04v-.02l-.01-.02-.02-.09-.01-.03-.01-.04-.02-.07v-.05l-.01-.01-.02-.1.03.07v.04l.03.06.08.26a3.18 3.18 0 0 0 .9 1.25c.21.16.42.28.59.34a2.64 2.64 0 0 1-.8-.66l-.09-.01-.22-.3-.1-.16-.05-.09-.04-.08-.08-.17-.03-.09-.03-.09-.03-.09-.02-.04v-.04l-.03-.1-.01-.08.02.08-.04-.13V19l-.02-.04-.01-.08v-.1l-.01-.04v-.31c.02-.06.05-.2.03-.04v-.07l.01-.03v-.03l.02-.14.02-.13.01-.03v-.04l.02-.06.01-.04v-.03l.03-.07.04-.15.07-.29c-.14.69.31-1.01.32-.83l.38-1.3.33-1.08c.2-.68.39-1.26.55-1.84.17-.57.33-1.13.54-1.74a482.25 482.25 0 0 0 .74-2.26l.1-.3a11.99 11.99 0 0 1 .69-1.6l.05-.08.08-.14.06-.1a.56.56 0 0 1 .04-.04c.02-.03.03-.03.02 0l-.03.06-.02.04-.02.02-.01.03.02-.03.02-.03.04-.07.02-.03v-.02l.02-.02.04-.06.05-.07.04-.06.05-.06.01-.01.01-.02.03-.03c.13-.16.28-.3.45-.43a4.62 4.62 0 0 1 1.08-.53l.04-.01.04-.01.07-.03.08-.02.07-.03.08-.02h.02l.02-.01.03-.01.04-.01.03-.01.07-.02c.2-.04.4-.05.6-.04.2.01.42.05.64.11.22.07.45.16.68.27a17.75 17.75 0 0 1 1.16.57l.22.1.12.06.05.03h.04l.03.02-.15-.03.1.03.1.04.12.03.06.02.06.01a1.6 1.6 0 0 0 1-.15c.15-.08.29-.17.41-.27l.03-.02.02-.02.04-.03.08-.07.17-.14.35-.3.18-.17.1-.09.04-.04.04-.04.07-.06.04-.03.04-.03c.02 0 .03-.02.05-.03l.02-.01.02-.02.05-.02.05-.03-.05.04-.03.04-.02.01-.02.02-.04.04a2.23 2.23 0 0 1 .73-.29c.2-.04.34-.07.49-.08h.24a1.52 1.52 0 0 1 .62.17c.02 0 .03.02.05.03.02 0 .03.02.05.03l.1.07.09.08.04.04.02.02.01.01.04.04-.03-.06-.02-.02-.01-.02-.04-.05a1.17 1.17 0 0 0-.28-.23 1.84 1.84 0 0 0-.36-.18l-.26-.08.2.05.29.1c.1.05.2.1.29.17l.03.03.04.02.03.03.03.03.06.05.03.03.01.02.02.01a3.29 3.29 0 0 0 .54.45l.06.06a14.14 14.14 0 0 0 .2.16c.09.07.19.14.3.18l.17.05H17.41l.07-.02h.03l.02-.01.05-.02.16-.07.11-.05a.5.5 0 0 0 .04-.02l.02-.01h.01l.05-.03.05-.02h.03a3.37 3.37 0 0 1 .98-.36 2.72 2.72 0 0 1 .65-.02l-.04.02-.29.04-.36.07c.27-.06.57-.09.87-.07.3.02.61.08.92.16l.12.04.11.04.12.04c.03.01.08.02.1.04.14.05.26.12.38.2.23.18.41.43.56.72a2.42 2.42 0 0 0-.3-.41c.17.2.3.45.4.72l.05.1.03.1.06.2.02.1.02.1.02.1v.05l.01.05.02.1v.11l.01.06v.39l-.01.12a3.85 3.85 0 0 1-.12.62c-.05.17-.1.34-.17.52l-.03.06-.03.07a8.87 8.87 0 0 1-.16.41 43.33 43.33 0 0 1-.71 1.66l.35-1.04c-.23.5-.28.64-.28.68 0 .04.03 0-.02.13-.32.82-.53 1.31-.71 1.7l-.52 1.12-.18.5a743 743 0 0 1-.54 1.5 43.01 43.01 0 0 0-.47 1.5l-.04.12-.02.06v.04l-.02.03-.03.15-.03.14a3.46 3.46 0 0 0 .01 1.17v.03l.02.04v.05l.01.01v.01l.03.08.02.09a1.54 1.54 0 0 0 .65.8c.19.11.38.2.56.24a3.3 3.3 0 0 0 1.05.14h.25a3.4 3.4 0 0 0 .24-.01Zm57.04-1.85h-.1a.57.57 0 0 1-.22-.05c.08.03.16.04.23.04h.17l.13-.02h.15-.05l-.12.02-.19.01ZM75.94 8.21c.45-.05.76-.05.96-.05l.24.01.12.02c.1.01-.01.02.06.03a7.66 7.66 0 0 0-2.37.17l-.12.03-.12.03-.06.02-.05.02a3.39 3.39 0 0 0-1.31.83l.06-.06.05-.05.08-.05.1-.07a3.5 3.5 0 0 0-.58.63c-.15.2-.25.38-.31.47a3.03 3.03 0 0 1 1.83-1.7l.09-.04.04-.01.04-.01.1-.03.08-.02.17-.04.16-.03.08-.01.08-.01.14-.03.13-.01.11-.02.28-.02h-.08Zm-1.49 15.2.02-.2v-.02l-.02.23Zm6.4-3.3c.14-.03.36-.1.62-.22l-.12.04-.14.05-.35.13Zm.63-8.5v-.08l-.02-.1c0-.07-.02-.15-.04-.23l-.02-.13-.01-.07-.02-.07-.04-.13a5.41 5.41 0 0 0-.28-.73 3.77 3.77 0 0 0-.28-.45l.05.06.04.07.05.08.1.18.05.11.03.06.03.06c.07.16.14.36.2.59l.05.17.01.05v.05l.03.1.02.1.01.1.02.1v.06l.02.06Zm-33.22.53v-.22l-.02-.24v-.23l-.02-.19c-.02-.2-.03-.22-.03.24.01.23.02.56.01.89v.24a186.57 186.57 0 0 1 0 .58l-.02.1c.06-.55.08-1 .08-1.17ZM26.71 9.18l.2-.16c.07-.05.1-.08-.02-.03l.14-.07a4.57 4.57 0 0 1-.3.12l-.07.05a1.12 1.12 0 0 0-.14.09l-.07.04-.04.02-.03.03-.07.05c-.17.13-.3.27-.41.39l-.03.09-.06.1c-.03.07-.06.13-.05.14l.04-.05.05-.06.04-.04.04-.06.28-.28.1-.08.12-.1.28-.19ZM35.76 18.77Z"/>
    <path d="m25.96 9.64.06-.05.07-.07.1-.09.14-.1.08-.06.08-.06.1-.05.04-.03.05-.03c.02 0 .03-.02.05-.03.02 0 .03-.02.05-.03l.1-.05-.31.16a2.85 2.85 0 0 0-.6.49ZM61.7 20.68l.12.03.13.03.06.01.06.02.13.02a4.56 4.56 0 0 1-.98-.32l-.02-.01-.02-.01-.04-.02a3.06 3.06 0 0 1-.14-.06l-.06-.03-.13-.06-.05-.04a1.85 1.85 0 0 1-.06-.03l-.1-.06-.1-.06-.1-.06a1.84 1.84 0 0 1-.15-.11 2.98 2.98 0 0 1-.07-.06l-.12-.1-.1-.09a1.7 1.7 0 0 1-.1-.07l-.14-.14a6.62 6.62 0 0 0-.17-.15l-.05-.05-.1-.11a5.17 5.17 0 0 0 1.63 1.33l.12.06.12.05.06.02.07.03.12.04.07.03.07.02.13.04.07.01.08.02.07.02h.03l.04.01a9.26 9.26 0 0 0 1.35.15c-.3-.01-.59-.05-.88-.1l-.22-.04-.1-.02-.11-.02-.06-.01-.05-.02-.1-.03-.22-.06ZM62.52 21.18a6.89 6.89 0 0 0 .92.12l.28-.03a5.39 5.39 0 0 1-1.2-.1ZM72.18 30.8l-.13.02-.14.01H71.7l-.08-.02-.3-.12-.06-.05-.07-.05-.05-.06a1.13 1.13 0 0 1-.2-.32l-.03-.06-.01-.02v-.01l-.01-.03-.04-.1a5.3 5.3 0 0 1-.14-.43 3.15 3.15 0 0 0 .15.56l.02.05.02.06.03.05.02.03.01.03.03.06.04.05.02.03.02.02.05.05a1 1 0 0 0 .22.18l.12.06.06.02.06.02h.06l.06.02h.28l.08-.01h.03l.02-.01.08-.03ZM71.33 23.64l.06-.9-.15 1.27-.04.28-.02.23-.01.28.05-.5.03-.14.02-.1.06-.42ZM74.18 26.59c0-.14.02-.32.04-.5l.04-.3.04-.3c.06-.4.12-.78.11-.96l-.15 1.16-.04.32c0 .1-.02.2-.03.28-.02.16-.03.27-.01.3ZM73.43 27.68c-.07.26-.14.61-.23 1.02l-.07.33-.04.17-.02.09v.01l-.01.02-.01.04a1.13 1.13 0 0 1-.34.55l.03-.02.02-.03.05-.05.1-.12a1.34 1.34 0 0 0 .15-.32v-.04l.01-.02v-.01l.01-.01.01-.05.05-.18.04-.17.05-.18c.1-.45.19-.85.2-1.03ZM77.61 20.46c-.04.01-.24 0-.53-.01l-.5-.03-.58-.05c.27.01.45 0 .81.02l-.8-.04c-.22 0-.4-.02-.56-.03h-.2a.3.3 0 0 0-.07 0 .21.21 0 0 0-.07.04.27.27 0 0 0-.1.17v.03a3.6 3.6 0 0 0-.06.27l.05-.2.01-.05v-.03l.01-.01v-.02l.01-.01.02-.03a.22.22 0 0 1 .07-.09.22.22 0 0 1 .11-.03h.16l.22.03.41.04c.52.05.88.1.8.11h.3a311.15 311.15 0 0 1 .76.01c.12 0 .17-.01.14-.03a1.93 1.93 0 0 0-.4-.06ZM73.8 25.12l-.09.62a43.88 43.88 0 0 1-.32 1.85c.03-.09.08-.22.13-.48.06-.26.13-.66.2-1.28v.45a8.73 8.73 0 0 0 .06-.44c0-.04-.01 0-.03.03-.03.06-.05.06.05-.75ZM82.5 19.4c-.16.12-.32.22-.49.31a4.48 4.48 0 0 1-.92.48 6.39 6.39 0 0 1-1.94.44l-.4.03-.32.01h.69l.08-.01.08-.01h.08l.08-.02h.08l.15-.03a6.5 6.5 0 0 0 2.19-.75c.28-.16.5-.32.64-.44ZM74.61 20.77l-.03-.19-.04.2-.04.15-.03.17c-.01.05 0 .02.02-.04.03-.12.1-.34.05-.12a11.96 11.96 0 0 0-.1.52l.03-.1.03-.06.04-.18.07-.35ZM78.42 20.12a6.7 6.7 0 0 0 1.55-.15c-.2.03-.4.05-.6.05h-.16l-.15.01h-.3l-.53-.01h-.26c-.1 0-.06 0 .03.02l.32.04c.1.02.16.03.1.04ZM80.33 19.96l.09-.01.08-.02a5.36 5.36 0 0 0-.17.03ZM72.82 9.17c-.04.06 0 .03.06-.04l.26-.25.07-.06.07-.05.1-.08c0-.01.01-.02 0 0a2.33 2.33 0 0 0-.13.07c-.02.01-.06.04-.1.09l-.09.07-.09.09-.09.09-.08.1c-.02 0-.03.02-.04.04l-.04.04-.06.08-.06.09.04-.05.07-.1.05-.06.06-.07ZM78.35 8.47a3.64 3.64 0 0 0-.3-.08l-.19-.04h-.05l-.05-.01-.11-.02a8 8 0 0 0-1.05-.04h-.28l-.14.02-.14.01a7.8 7.8 0 0 0-.54.08l-.12.02a2.44 2.44 0 0 0-.24.05l-.12.03-.05.01a.5.5 0 0 0-.05.02l-.1.03-.17.06.04-.02.06-.02.05-.02h.03l.03-.01.11-.03a8.45 8.45 0 0 1 .72-.14A7.78 7.78 0 0 1 78 8.4l.28.06.07.01ZM74.3 8.75l.14-.06.2-.08-.2.07-.07.04a.5.5 0 0 0-.06.03ZM61.57 9.24a.53.53 0 0 0-.09-.02h-.06l-.04-.01H61.5l.08.03Z"/>
    <path d="M61.98 9.64a.94.94 0 0 1 .05.29v.13l-.04.66c-.03.44-.06.83-.05.94a31.71 31.71 0 0 0 .1-1.61l.01-.03v-.05l-.01-.14a.88.88 0 0 0-.09-.26.73.73 0 0 0-.16-.21.57.57 0 0 0-.22-.13c.06.02.12.06.17.1.05.04.1.1.13.15.07.1.1.18.1.16ZM58.08 13.8c0-.5.04-1.18 0-1a13.39 13.39 0 0 0 0 1ZM44.9 17.87l-.56.1-.11.01-.1.01-.18.02c-.1 0-.17 0-.2.02l.05.02h.16l.13-.01h.06l.04-.01.08-.01.07-.01.04-.01.07-.02.12-.03.12-.03.2-.05ZM42.72 17.95l-.1-.05-.26-.1-.06-.02-.03-.01-.03-.02-.06-.02-.06-.03.07.03.07.04.15.06.04.02.04.01.08.03.04.02h.02l.02.01.07.03ZM42.45 13.67l-.01.16-.02.12-.03.13.02-.07.01-.07.02-.13a3.4 3.4 0 0 1 .03-.2c0-.09 0-.1-.02.06ZM42.35 14.27l.01-.04.01-.05.02-.1-.02.1-.01.05-.01.04ZM42.2 14.7v.08l.03-.1.02-.05.02-.07.04-.14.04-.15a3.5 3.5 0 0 1-.08.26l-.02.05-.02.05a.38.38 0 0 1-.03.07ZM42.3 11.59l.02.08v.04l.02.04.03.16.01.04V12l.02.08.02.08v.08l.02.17v.09l.01.08V13.27l.02-.07v-.1l.01-.14V12.53l-.01-.18c0-.03 0-.03.02.02l.01.05.01.03v.04l.04.2a4.41 4.41 0 0 0-.26-1.1ZM38.88 8.76a19.78 19.78 0 0 0-.47-.06 5.72 5.72 0 0 0-1.58.1l-.13.04-.13.04-.07.02-.06.03-.07.02-.03.02h-.03a2.48 2.48 0 0 0-.77.56l-.23.26c-.07.1-.13.2-.17.3l-.06.12-.05.13a3.28 3.28 0 0 0-.21.92l.01-.03.02-.05c.02-.03.03-.06.04-.05V11.28l-.04.2-.01.15-.01.08-.01.1-.02.21-.02.25v.15l-.01.15V12.9c0-.46.04-.83.07-1.13v-.06l.01-.05a12.1 12.1 0 0 1 .22-1.12 3.83 3.83 0 0 1 .26-.66 2.07 2.07 0 0 1 1.23-.98l.06-.02.04-.01.03-.01a3.93 3.93 0 0 1 .22-.06l-.07.02h-.09l.16-.04.35-.06a5.59 5.59 0 0 1 1.33 0l.17.02h.13Z"/>
    <path d="M39.44 9a4.16 4.16 0 0 0-.64-.16h-.08l-.08-.02-.16-.01a6.13 6.13 0 0 0-.84-.01c.23 0 .53.01.85.05l.12.01.12.02.12.02.12.02.24.04.12.03.11.02ZM34.64 12.83c-.01.35 0 .7.03 1.05l.03.14.03.13-.01-.08v-.04l-.01-.04-.02-.17-.02-.16v-.08l-.01-.09a8.82 8.82 0 0 1-.02-.66ZM35.5 16.67c-.16-.3-.3-.6-.43-.92l.03.07.04.1.04.1.05.12a9.37 9.37 0 0 0 .36.73l-.08-.2ZM34.27 18.6c-.2-.05-.4-.11-.54-.17-.04 0-.08-.02-.11-.03-.03-.02-.06-.02-.1-.03a.87.87 0 0 0-.1-.04c-.02 0-.02 0 0 .02l.06.03.04.02.05.03.06.03a1.75 1.75 0 0 0 .26.1 4.97 4.97 0 0 0 .08 0l-.16-.07a6.15 6.15 0 0 1 .16.03l.3.09ZM30.78 9.15l.1.09c.02.02.05.06.09.08l.04.05.04.05.09.09a6.9 6.9 0 0 1 .35.4l.05.07.08.1.04.04a5.98 5.98 0 0 0-.27-.37l-.08-.08-.04-.05-.03-.04-.08-.08-.08-.09a5.1 5.1 0 0 0-.33-.31l-.18-.15-.19-.14c.15.1.28.22.4.34ZM30.8 9.51l.33.4a6.3 6.3 0 0 1 .75 1.21l.08.19.06.2c.03.06.04.13.06.2a4.35 4.35 0 0 1-.68-1.48l-.05-.07-.06-.08c0-.02-.02-.03-.03-.04 0-.02-.02-.03-.03-.04l-.07-.1-.08-.08a4.45 4.45 0 0 0-.13-.15l-.05-.05-.1-.1ZM28.87 8.15h.1l.11.02.12.02.11.02c.16.04.32.1.48.16.02 0 .03.02.05.03h.03l.03.02.1.06c.08.04.15.07.21.12a4.11 4.11 0 0 1 .24.14l-.08-.05-.04-.04c-.02 0-.04-.02-.05-.03a2.91 2.91 0 0 0-1.05-.43l-.11-.02-.1-.01h-.09l-.06-.01ZM26.06 9.12l-.08.07-.06.04-.06.05c-.02.01-.01 0 0-.03l.04-.04-.03.02-.1.08a3.4 3.4 0 0 0-.98 1.72c-.08.3-.12.58-.15.83v.09l-.01.09v.17l-.01.08V12.52l.02-.13c0-.05 0-.1.02-.14l.05-.2c.01-.04.03-.06.04-.03l.01.23.01-.19v-.09l.02-.09a6.04 6.04 0 0 1 .17-.97c.02-.1.06-.2.09-.29a5.4 5.4 0 0 1 .34-.73 2.97 2.97 0 0 1 .93-.95l.09-.05.09-.05.08-.04.09-.04.09-.06.09-.05.19-.1.1-.06.1-.04.1-.05.04-.02.05-.02.1-.05c.04 0 .07-.02.11-.03l.21-.08c.04 0 .08-.02.11-.03l.06-.01.05-.01.12-.03.11-.02a3.23 3.23 0 0 0-.61.12l-.05.01a3.93 3.93 0 0 0-.41.16c-.05.01-.08.04-.12.05l-.19.1-.33.2-.02.02-.03.02-.05.04a4.25 4.25 0 0 0-.43.3Z"/>
    <path d="M30 8.75a2.86 2.86 0 0 0-1.02-.4c.1.04-.05.02-.3.02-.13 0-.28 0-.43.03h-.06l-.06.02h-.06l-.05.02-.11.02-.11.03.38-.04a2.81 2.81 0 0 1 1.82.3ZM25.86 18.44a3 3 0 0 1-.23.1l-.25.09-.52.18a29.25 29.25 0 0 1 .34-.11l.34-.13.1-.04.07-.03.15-.06ZM24.56 18.88h-.06a23.87 23.87 0 0 1-1.37.44l-.1.03-.1.03.11-.03.1-.03.2-.05a18.27 18.27 0 0 0 1.22-.4ZM22.4 19.45l.12-.03.12-.02a12.71 12.71 0 0 0 1.21-.34l-.36.11a16.03 16.03 0 0 1-1.1.27ZM19.6 18.02l-.04.35.01.1.01.1.04.22v.04l.01.02c0 .01 0 .03.02.04l.01.05v.02l.02.02a.67.67 0 0 0 .38.37h.01a.8.8 0 0 1-.26-.2.7.7 0 0 1-.1-.14l-.03-.05-.02-.04-.01-.05-.02-.06a1.7 1.7 0 0 1-.05-.47c0-.14 0-.25.02-.32ZM20.7 4.92c.17.04.21.04.18.02a1.56 1.56 0 0 0-.24-.1l-.29-.03-.29-.02a3.94 3.94 0 0 1 .64.13ZM18.36 4.9l-.33.18-.08.05-.05.03-.05.03-.23.1-.07.03-.08.02a.95.95 0 0 1-.36 0h-.05l-.04-.01-.05-.02h-.02l-.02-.01a.87.87 0 0 1-.07-.03l-.07-.04a1.6 1.6 0 0 1-.31-.21l.15.12a1.64 1.64 0 0 0 .22.14l.02.01.03.02h.03l.02.01.01.01.04.01.07.02a.91.91 0 0 0 .4.01l.1-.02a1.43 1.43 0 0 0 .31-.13l.12-.07a3.56 3.56 0 0 1 1.34-.44 3.58 3.58 0 0 1-1.02.24l-.14.06a2.6 2.6 0 0 0-.13.07l.3-.17ZM1.62 20.95c-.07-.01-.03.02-.1-.01l-.06-.05c-.02 0-.03-.02-.05-.03l-.07-.05-.08-.07-.05-.04-.03-.02-.02-.03a3 3 0 0 1 1.92.82l.28.01H3.65a2.69 2.69 0 0 0 .86-.21h.02l.01-.01.04-.02.06-.03.07-.03.03-.02.04-.02.06-.04.06-.05.03-.02.03-.02.06-.05c-.06.04-.04.02 0-.03l.04-.04.05-.05.04-.06.03-.03.02-.03.04-.05.04-.05c0-.02.02-.03.03-.04v-.02.01l-.04.05-.03.03-.02.02-.01.03a1.98 1.98 0 0 1-.52.43l-.05.03h-.02l-.03.02-.05.03-.05.02a2.96 2.96 0 0 1-.92.22l.28-.06a3.55 3.55 0 0 1-.73.01c-.17 0-.28-.02-.4-.03l-.18-.03a2.05 2.05 0 0 1-.52-.16 2.86 2.86 0 0 1-.4-.23ZM41.53 20.87c-.1-.01-.09 0-.02.02l.14.04.19.05a4.17 4.17 0 0 0 .4.02l-.08-.01-.1-.01a3.94 3.94 0 0 1-.53-.11Z"/>
  </g>
  <defs>
    <clipPath id="a">
      <path fill="currentColor" transform="translate(.02 .5)" d="M0 0h83.84v30H0z"/>
    </clipPath>
  </defs>
</svg>
