<svg xmlns="http://www.w3.org/2000/svg" fill="none" viewBox="0 0 549 626" preserveAspectRatio="none">
  <path fill="#fff" fill-rule="evenodd" d="m218 8-7-2 8-2c4 0 5 0 1-2-1 3-9 3-16 3-8 0-16 0-16 3l-5-1h3c-5-2-7 0-9 1-3 1-5 3-12 2-4 0-8-1-4-2l-11 1c-2 0-2 0 0-1h1-1l-14 1-10 2c-2 0-1 0 0 0l1-1-9 1c-3-1 4-3 10-2-4-4-6-3-9-2h-13l-2-1 8-1c-3-2-7-2-11-3L91 1l3 1c4 1 10 4 9 5h-1l-2 1h1-12c0-2-4-2-9-2h-2V3l-7 2-3 2c-6-1-8-3-10-4a56 56 0 0 0 0-1c-6 0-4 1-3 2 2 1 4 2-3 2-5-1-10 0-15 1-3 0-6 2-9 4s-6 6-8 10l-3 3v-1l1-1c0-1 0-2-1-1l-2 11c0 2-1 1-1 1l1 5v8c1 1 0 5-1 11-1 7-2 16-1 24h-1c0-1 0-2-1-1l3 30-1 12c1-9 3 2 5 12l2-7 1 17c-1 2-1 0-2-3v3c-1 6-2 3-3-1l1-4v-2c-1-4-3-8-4-7l1 5-1-1v5l-2 3 1 1-2 22 2 11c2 11 4 23 4 42-1-4-2-4-3-3l-2 1v-31c0 6-1 5-2 3l2 22-2 6v5c2-3 2 6 2 14l1 12c-2 0-3-2-2-13-2 6-1 10 0 14s2 8 1 14v-5 5c0 7 0 16-1 13v-3c-1 18-1 55 2 58l-5-4 10 33h-4c-2 1-5 2-6-7v18c0-3 4-7 4-3l-5 21c1-4 5 1 5 8l-2-1-3-1v-1 1l4 16c-1-3-4 0-5 4v19l1-7c0 10 1 15 3 20 1 4 2 9 2 19-1-3-5-6-6 4l1 1c3 6 9 20 10 36l-1 3 1 13c-5-14-8-29-11-44l-1 5-1 8c-1 4-1-6-1-9l-2 25c2 0 2 5 3 10 0 5 0 10 1 9l-2-27c3-1 7 16 6 34-1 3-2 0-3-2l-2-1 1 18-1-7v28l-1 6-1 7c3-7 11-8 13-3l-1 12a413 413 0 0 1-3 14c-1 4-2 2-4-1l-1-4c-1-1-1-1-2 1v7-7l2 7-1 3-1 9 1 5h6l-3-1a1553 1553 0 0 1 8-1l4 1h6c-2-2 8-7 15-8l2 3 18 1 18 1 2 1c3 0 5 1 3 2l8-2c4 2 2 2 0 2-3 0-6 0-3 2l11-3 6-1c-2-2-14 0-20 1 0-4 11-8 25-10 8 0 7 1 7 2-1 0-1 0 0 0 10 1 15-1 19-2 4-2 8-3 17-1 5 1 3 3 2 4v2c-6 1-10 0-13-1h-8l8 1-12 1 23 1 29 1h2l4-2h-5c-3-1 0-2 2-2 2-1 4-1 1-2 8-2 16-3 25-2l1 3a15 15 0 0 0-8-1l7 1c4 0 9 1 12-1l-7-2 24-3-3-1-5-2c3 2-3 2-8 2s-9 0-7 1l-8-2-10-2v1h-4l-2 1 4 2-12 2-8 1-1-1c1-1 2-1 1-2l-6 2-3-2-3-1v-1l5-1h-27c-3-1-7 0-8 1l1-1-15 1-14 1c-10 0-21 1-31-2l-18 1-2-2-10-1-11 1c-3-2-7-3-11-3h-3v-4l-2-1-1-30h-1v-22a302 302 0 0 0 2-45v-27a40 40 0 0 1 1-9v-2a411 411 0 0 1 0-1l-1-14 2-2v-1c1-5-1-4-2-1l-1-7c2-2 1-5 1-9l1-10v-10l-2-17v-16l2-3-3-12c2-8 2-11 4-3l-2-16-1-14 1 1v-18l2-40 2-51c-2 3-1-1 0-6 0-4 1-10-1-10l1-2c1-2 1-3 2 1v-17c0-7 1-12-1-18 1-1 1 0 1 1h1v-6c1-2 1 0 1 2v3c0-17-2-19-5-20 1-6 1-12-1-18l1-1c1-3 1-6 2 3v-2c0-10 1-33-1-33V86l1-8V60v3c-2-3-2-7-1-13l1-7v1a66 66 0 0 1 6-16c1-2 4-3 6-3l-1-2c0-3 4-3 8-2l16 2-3-2c3-1 8 2 12 4l9 4h-2l-1 1c7 1 7 0 7-1s0-2 6-3v2c0 1 0 3 4 3 2 1 5 0 10-1 7-1 16-2 22 0-2-2-4-3 1-4l10 2c7 1 14 2 18 0l2 1 7-1c6-1 13-1 16-3 3 4 13 3 22 2 8 0 15-1 15 2h18v1c7 1 13 0 20-3 2 1 1 1 1 2h-1c12 2 23 1 34-2l1 2 11 1c9 1 21 3 31 1a3 3 0 0 1-2 1 2 2 0 0 0 1 0c8-1 17 1 25 2 12 1 23 3 27-2l12-1c-9-1-7-2-4-3 1-1 3-2 0-2 7 0 17 3 9 3h-1c-2 2 4 2 10 3a948 948 0 0 1 71 7l31 3-3-3 10 1c3 1 3 3-4 2l8 1 3-1 1-1c3 1 4 1 3 2h-3l-1 1h3v-1h1l4-2v5l-1 3-1 1v21l2-7 1 8c0 3 0 5 2 0-2 8-2 32-2 50v21c2 11 2 22 2 34 0-4 3-6 2 5-2-2-2 5-3 13l-1 16 1 10c0 8 1 17 2 10l-1 5c0-1-1-1-1 3v76l1-1c0-1 1-2 1 2l-2 15 1 4v11c1-2 1-4 2 0v70c1 31 1 63-2 94 2-8 2-3 2 3 0-2 1-2 1-1h1l-2 23 2 14 1 13-1-7c2 5 4 0 5-5 2-4 3-8 5-8-2-5-1-11 0-18 1-8 2-18-1-28 0-2 1-1 1 1l1 1c-2-7-2-14-1-20v1a662 662 0 0 1 1-72l-1 3 1-12c-2-4-2 1-2 6s0 10-1 6l1-27c0-12 0-24 2-27 0-5 0-4-1-4 0 1-1 2-1-3l1-3-1-3c0-6 1-10 2-10v6-28 1l-1 9v-36l-2-54-1 2-1-20 1-20v1l-2-17c1 2 1 0 2-2 0-3 1-6 1-2l-2-17-2-9 1-3c-2-6-2-12-2-17 0 4 1 2 1 1 1-2 1-4 2 2v-28c-1-8-1-14 1-19-3-8-3 4-3 11v3c-1 6-3-9-2-16l2-12a65 65 0 0 0 2-18v-4 5-15l-1-11-5-1h-14v1l-1 1 18 1-13 1h-4c-5 1-10 0-15-1l7-2h-5l-6-1c1-2 5-2 10-1h18l-6-1h-6c-3 0-4 0-2-2-4 3-7 2-12 1h-13v-2l-8 1 6-2c-5 1-9-1-13-2l-11-1c10 1 9 2 9 3-1 0-1 1 2 2-11 1-13-1-17-3-3-2-6-4-17-4a9 9 0 0 0-1 0h1c3 0 11 2 6 3l-13-3c-8-1-6 0-4 1 1 1 3 2 0 2-3-2-5-1-8 0l-6 1v-2c-9-1-10 0-11 1s-2 2-9 1l6-3h-8l2-2h-20c2 1-1 4-9 4l-2-2-6-1 5-1 5 1 1-1 2-1c-6-1-12-2-18-1h4l-16 3c-2-1 0-2 2-2h-4l-6 1v-1c1-1 2-3 7-3l-15 1-2-1c-2-1-5-1-3-2l-14 1-18 1h-12c-7-1-15-2-24 0l-7-4c-4 1-3 1-1 2 2 2 4 3-5 3-7 1-7 0-7-1l-1-2c-9 3-18 3-26 2l6-1h3ZM101 8l2-1h3a46 46 0 0 0 3 0c-2 2-4 2-7 1h-1ZM17 390c0-1 1-1 1 1l-1-1Zm-3-233 1-9-1 9Zm140 451ZM529 49v2l1 1-1-3Z" clip-rule="evenodd"/>
  <path fill="#fff" d="M204 615h-2 2ZM193 608ZM184 606a35 35 0 0 1 4 1v-1h-4ZM515 26h1-1ZM7 350c1-5 1-10-1-14l6 10-5 4ZM13 130h-1l1-1v1ZM292 8h1-1ZM221 606h-1 1ZM220 606h-6l6 1v-1ZM283 620h-3c-5 0-2-1 2-1l1 1ZM227 613c0 2 4 2 8 1h2-1c1-2-4-2-9-1ZM242 614h-4 4ZM178 608l2-1 1-1c2-2-15 3-3 2ZM229 617l2 2h-5l3-2ZM193 617l8 1 2-1h-10ZM203 617h6-6ZM220 620l-2-1h-5l7 1ZM103 617h8l-2 1h-1c-3 0-6 0-5-1ZM137 623l-4-2v3l4-1ZM109 624l3-1c5 1 3 1 1 2l-2 1c-7 0-5-1-2-2ZM9 589v3l3-1-3-2ZM3 454v-8c2-3 2-1 2 3l1 5c-1-1-1 1-1 3l-1 4-1-7ZM6 457v1-4 3ZM533 558v-8l1 3-1 5ZM536 566l-2 2 2 5v-7ZM82 2l1-1 5 2-6-1ZM168 5h-1l3 3-2-3ZM237 3h3c1 2 0 1-2 1l-4-1h3ZM231 3h3-3Z"/>
</svg>
