<svg width="235" height="205" fill="none" xmlns="http://www.w3.org/2000/svg">
  <path d="M21 10.8a121.6 121.6 0 0 0-5.6-5c-1.2-1-2.4-2-3.8-2.5-1.2-.3-2.1 1-1.4 1.9.9 1.2 2.2 1.9 3.5 2.6l1.1.7 5.5 3c.4.4 1.2-.2.6-.7ZM18.4 20.8c-1.6-1.2-3.4-2.3-5.1-3.3L9.5 15 7.8 14C6 12.5 4.2 11.1 2 11.2c-.8 0-1.6.8-1.2 1.8 1 2.1 3.3 3 5.4 4l1.3.5.9.4c3.1 1.5 6.3 3 9.6 3.8.6 0 1-.6.5-1ZM13.6 29.3l3 .9c.7.2.4 1-.2 1.1l-4.5.1h-1c-1 .2-2.1.3-3-.5-.8-.8-.9-2 .2-2.6 1.2-.6 2.3-.2 3.4.3l.6.2 1.5.5ZM130 9c2-1.7 3.1-3.8 4.2-6 .7-1.4-1.9-2.4-2.3-.9-.4 1.8-1.2 3.4-2 5l-.7 1.3c-.1.4.5.8.8.5ZM122.9 9c.5-1 .6-2 .8-3v-.8l.3-.9c.2-1 .4-2 .3-3-.1-1.1-1.8-1.2-2.1-.2-.3 1-.3 2-.3 3.2v1c0 1.1 0 2.4.2 3.5 0 .5.7.6.8.2ZM115.5 4.3v1.6c0 .4-.7.5-.8.1l-.3-.5a4.7 4.7 0 0 1-.8-2.4c0-.8 1.1-1.2 1.5-.4V3c.3.4.4.8.4 1.3ZM186.2 200.2c-.5-1.3-1-2.7-1.3-4.2-.1-.4.5-.7.7-.3l1 1.5 1.3 2.2.5.5c.7.9 1.5 1.8 1.2 3-.2.3-.6.6-1 .5-1.3-.1-1.9-1.6-2.3-2.7l-.1-.5ZM176.8 203.4a19.5 19.5 0 0 1-1.8-8c0-1 1.2-.8 1.4 0 .6 2.4 1.7 4.5 3 6.7v.1c1 1.6-1.7 2.9-2.6 1.2ZM203.6 173.2l-.3-.2c-.5-.5.2-1.5.8-1a33.6 33.6 0 0 0 2.2 1.4c.8.4 1.3.7 1.5 1.5 0 .3-.4.7-.6.8-.8 0-1.2-.3-1.7-.7l-.2-.3-1.7-1.5ZM200.7 179.6l-1.4-2.4c-.2-.4.4-.7.7-.5l3.7 4.2.6.7c.8.9 1.6 1.7 1.6 3 0 .6-.7 1-1.2.8-1.2-.4-1.7-1.4-2.2-2.5l-.5-.8-1.3-2.5ZM225.6 57a13 13 0 0 0-2.4-.8c-.5 0-.6-.8 0-.7 1.6-.2 4-.2 5.3 1.1.5.5 0 1.4-.7 1.3a4 4 0 0 1-1.5-.6l-.7-.3ZM227.8 68.1l-6.5-3c-.6-.1-.4-1 .2-.7l6.7 1.8 1.4.3c1.6.4 3.3.7 4.4 1.8.8.7.2 2.2-1 2.1-1.3 0-2.6-.8-3.8-1.5l-1.4-.8ZM214.7 40c-1 1-1.8 2.1-2.6 3.3-.2.4-1 0-.8-.5a22 22 0 0 1 2.3-3.8l.3-.4c.8-.9 1.5-1.8 2.6-2.1.4 0 .9.4.7.8-.4.8-1 1.3-1.6 1.9l-1 .8ZM221.7 47.7c-1.6.7-3.1 1.4-4.8 1.6-.6 0-1-.6-.6-1a19 19 0 0 1 4.4-3l1-.7 1.1-.7c1.4-1 3-2.2 4.7-2 1.2.1 1.7 1.4 1 2.3-.7 1.4-2.6 2-4.2 2.5l-1.4.5-1.2.5Z" fill="#92DEF1"/>
  <path d="m65.1 36.6-5.7-1.4a36 36 0 0 0-5.3-.6c-.4 1.6-1 3.7-1.9 6.3-2.9 9.3-4.6 15.3-5.2 18.1-.6 2.8-1 4.8-1.1 6l-6.2-.8 8.8-31.4-13.6-3.7c-.3 0-.5-.4-.6-1v-1.6c.1-.4.4-1 1-1.4.5-.5 1-.7 1.5-.5 3 .8 6.2 1.6 9.3 2.6 5.8 1.8 10.7 3 14.8 4l4 .7c3.2.6 6.4.9 9.6 1 .6.2.8 1.4.6 3.4l-.2 1c-3 .3-6.2 0-9.8-.7ZM108.2 54.1l1.8.4 2 .6c.7.3 1 .9.8 1.7 0 1.8-1.3 2.4-3.6 1.8a178.9 178.9 0 0 1-3-.7c-.4-.1-.5 0-.5.2l.4 4.4.7 5a34 34 0 0 0 2.6 9.2c-.9.7-2 1.3-3 1.7l-1.8.6v-.1l-5-21-18.5.5-1.3 2.6a29.2 29.2 0 0 1-6.3 9.4c-.4.4-1 .3-1.7-.2-1.2-.8-1.8-1.4-1.7-1.7l2-3.5a1368.2 1368.2 0 0 0 13.4-21 881.2 881.2 0 0 1 6.3-9.9c.5-.8.8-1.6 1-2.2.3-.6.6-1.2 1-1.6.6-1 1.8-1.2 3.5-.8 1.6 1.4 2.7 3 3.4 5a28 28 0 0 1 1.4 5.8l1 6.1c.2 2.1.7 4 1.6 5.9.2.7.7 1.1 1.5 1.3l2 .5Zm-13-17.3c-1 2.6-2.3 5-4.1 7.6a265.6 265.6 0 0 1-7 9.6c2.9.6 6.7.5 11.3-.3l3.3-.7c-.2-9-1.4-14.4-3.6-16.2ZM113 78.7l.4-.7.9-2.6 1.3-5a276.6 276.6 0 0 0 3.3-13.8 3704.7 3704.7 0 0 1 3.6-13.7c1.3-4.2 2.4-6.6 3.2-7.3.5-1 1.8-1.2 3.8-.7l.9.1-2.8 10.2-2.6 9.2c3.1-.8 6.1-1.8 9-2.8a515 515 0 0 1 15.2-5.2c2-.6 3.5-.8 4.4-.6 1.5.3 2.1 1 1.9 2.2-.2 1-1 1.8-2.7 2.6-1.6.8-3.6 1.6-5.9 2.3a140 140 0 0 1-7.5 2.1 159 159 0 0 0-13.2 4.2c-1.6.7-2.5 1.4-2.6 2.2L127 64a193.3 193.3 0 0 1 11.6 8.6 79 79 0 0 1 5.8 4.8c4 3.5 5.7 6 5.3 7.8 0 .5-.5.8-1.3.9h-1l-.6-.2c-2-.5-3.9-1.4-5.4-2.7-1.6-1.4-3.3-3-5-4.8l-6-5.7c-2.3-2-5.2-4-8.6-5.7L119.1 80l-1.3.3c-1 0-2.1 0-3.2-.2-1.2-.3-1.6-.7-1.5-1.4ZM181.4 51.6c4.2.9 7 1.8 8.3 2.6l-.6 3.2a41 41 0 0 1-4.9-.7l-6.4-1.3a80.3 80.3 0 0 0-13.2-1.8 36.2 36.2 0 0 0-3 9.7c-.2 1.7-.5 3.7-1 6 3 .6 6.3 1 10.1 1.3a304.2 304.2 0 0 1 15.4 1.8l-.7 3.5-25.3-2.1-1.8 10.6c4.2.9 8.6 1.6 13 2.2a549.5 549.5 0 0 1 17.8 2.4c-.2.9-.7 1.7-1.3 2.3-1.4 1.2-2.4 1.4-3 .7a736.2 736.2 0 0 1-32.9-4l9-41c1 .6 3 1.2 6 1.9l14.5 2.7ZM51.8 117.8l1.8.4c.8.1 1.4.3 2 .6.7.3 1 .8.8 1.6 0 1.8-1.3 2.4-3.6 1.9a174.8 174.8 0 0 1-3-.8c-.4 0-.5 0-.5.2l.4 4.5.7 5a34 34 0 0 0 2.6 9.2c-.9.7-2 1.3-3 1.7l-1.8.5-5-21-18.6.5-1.2 2.6a29.2 29.2 0 0 1-6.3 9.4c-.4.3-1 .3-1.7-.3-1.2-.8-1.8-1.3-1.8-1.7l2.2-3.4a1363.4 1363.4 0 0 0 13.3-21 877.5 877.5 0 0 1 6.3-10c.5-.8.8-1.5 1-2.1l1-1.7c.6-.8 1.8-1.1 3.5-.7 1.6 1.4 2.7 3 3.4 5a28 28 0 0 1 1.4 5.7l1 6.2c.2 2 .7 4 1.6 5.9.2.6.7 1 1.5 1.3l2 .5Zm-13-17.3c-1 2.5-2.3 5-4.1 7.5a265.6 265.6 0 0 1-7 9.6c2.9.6 6.7.6 11.3-.3l3.3-.6c-.2-9-1.4-14.4-3.6-16.2ZM105 142.5c3.7-6.4 8.8-18.6 15.6-36.4 2.7.5 4 1.7 3.7 3.4l-.2 1-.6 2.3a445 445 0 0 1-17 40.3c-1.8.7-3 .6-3.7-.3l-.7-1.7-.5-2.6c-.5-.8-1-3-2-6.4a347.3 347.3 0 0 0-3.5-14c-1.2-4-2.5-6.4-3.7-7.3a141.6 141.6 0 0 0-15.4 23l-2.2 3.5-4-1-8.1-40.7v-.6l.3-.6c.2-.2.6-.3 1-.4h2.2c.8.2 1.3.5 1.5.8.3.4.5.8.5 1.2l.3 1.5c0 .6 0 1.3.2 2.2l.9 4 1.2 5.4 1.4 5.8a267.5 267.5 0 0 0 3 11.3 461.1 461.1 0 0 1 17-23.6c.5-.6 1-1 1.2-.9 1.9.4 4.1 5.2 6.7 14.3l2 7c1.5 5.5 2.5 8.6 3 9.5ZM156 140l1.7.3 2 .6c.7.3 1 .8.8 1.7 0 1.7-1.3 2.4-3.6 1.8a179.7 179.7 0 0 1-3-.8c-.4 0-.6 0-.6.3l.5 4.4.7 5a34 34 0 0 0 2.6 9.2c-1 .7-2 1.3-3 1.7l-1.8.6v-.1l-5-21-18.6.5-1.2 2.6a29.1 29.1 0 0 1-6.3 9.4c-.4.4-1 .3-1.7-.2-1.2-.8-1.8-1.4-1.8-1.8l2.2-3.4a1356 1356 0 0 0 13.3-21 953.8 953.8 0 0 1 6.3-10c.5-.7.8-1.5 1-2.1.3-.7.6-1.2 1-1.6.6-1 1.8-1.2 3.5-.8 1.6 1.4 2.7 3 3.4 5a28 28 0 0 1 1.4 5.7l1 6.2c.2 2.1.7 4 1.6 5.9.2.7.7 1.1 1.5 1.3l2 .5Zm-13.2-17.4c-.9 2.6-2.2 5-4 7.6a265.3 265.3 0 0 1-7 9.6c2.9.6 6.6.5 11.3-.3l3.3-.7c-.2-9-1.4-14.4-3.6-16.2ZM175.4 169.9c-.7-.2-1.3-.5-2-1.1-1.3-1.3-1.8-2.2-1.3-2.8.7-.8 1.7-2.5 3.1-5l3-5.4 3-5.7-13.4-21.2c-.2-.4-.3-.8-.2-1 0-.4.3-.6.7-.7h2c.9.2 1.7.5 2.4 1a10 10 0 0 1 2.8 2.6c2 2.5 5 7.7 9.2 15.6 4.1-6.9 7-11.2 8.5-13 1.6-2 2.7-3.2 3.5-3.6.8-.5 1.5-.7 2-.7.6 0 1 .2 1.4.4.4.2.6.5.7 1a100 100 0 0 0-6 8.9l-6 10.3c-5.6 9.3-10 16.2-13.4 20.4Z" fill="#fff"/>
</svg>