<svg width="256" height="256" viewBox="0 0 256 256" fill="none" xmlns="http://www.w3.org/2000/svg">
<path d="M80 56V24C80 21.8783 80.8429 19.8434 82.3431 18.3431C83.8434 16.8429 85.8783 16 88 16C90.1217 16 92.1566 16.8429 93.6569 18.3431C95.1571 19.8434 96 21.8783 96 24V56C96 58.1217 95.1571 60.1566 93.6569 61.6569C92.1566 63.1571 90.1217 64 88 64C85.8783 64 83.8434 63.1571 82.3431 61.6569C80.8429 60.1566 80 58.1217 80 56ZM120 64C122.122 64 124.157 63.1571 125.657 61.6569C127.157 60.1566 128 58.1217 128 56V24C128 21.8783 127.157 19.8434 125.657 18.3431C124.157 16.8429 122.122 16 120 16C117.878 16 115.843 16.8429 114.343 18.3431C112.843 19.8434 112 21.8783 112 24V56C112 58.1217 112.843 60.1566 114.343 61.6569C115.843 63.1571 117.878 64 120 64ZM152 64C154.122 64 156.157 63.1571 157.657 61.6569C159.157 60.1566 160 58.1217 160 56V24C160 21.8783 159.157 19.8434 157.657 18.3431C156.157 16.8429 154.122 16 152 16C149.878 16 147.843 16.8429 146.343 18.3431C144.843 19.8434 144 21.8783 144 24V56C144 58.1217 144.843 60.1566 146.343 61.6569C147.843 63.1571 149.878 64 152 64ZM248 120V128C247.994 138.172 244.114 147.96 237.147 155.372C230.181 162.785 220.652 167.264 210.5 167.9C204.99 183.312 195.707 197.098 183.5 208H208C210.122 208 212.157 208.843 213.657 210.343C215.157 211.843 216 213.878 216 216C216 218.122 215.157 220.157 213.657 221.657C212.157 223.157 210.122 224 208 224H32C29.8783 224 27.8434 223.157 26.3431 221.657C24.8429 220.157 24 218.122 24 216C24 213.878 24.8429 211.843 26.3431 210.343C27.8434 208.843 29.8783 208 32 208H56.5C46.3053 198.975 38.1381 187.892 32.5363 175.482C26.9346 163.072 24.0252 149.616 24 136V88C24 85.8783 24.8429 83.8434 26.3431 82.3431C27.8434 80.8429 29.8783 80 32 80H208C218.609 80 228.783 84.2143 236.284 91.7157C243.786 99.2172 248 109.391 248 120ZM232 120C231.994 115.042 230.453 110.207 227.588 106.16C224.723 102.113 220.675 99.0528 216 97.4V136C216.006 141.024 215.605 146.041 214.8 151C219.764 149.534 224.12 146.502 227.22 142.357C230.32 138.212 231.996 133.176 232 128V120Z" fill="#FF0198"/>
</svg>
