<svg width="432" height="431" viewBox="0 0 432 431" fill="none" xmlns="http://www.w3.org/2000/svg">
<g clip-path="url(#clip0_704_1643)">
<g opacity="0.15" filter="url(#filter0_f_704_1643)">
<path d="M-124 366.887L60.9304 399.5L216.583 414.324L273.285 413.212L352 399.5L344.812 383.379H164.328L-16.1548 365.405L-79.5278 360.958L-124 366.887Z" fill="black"/>
</g>
<path d="M111.539 71.2801C115.539 58.0801 113.206 46.4468 111.539 42.2801L302.039 18.2801C303.039 17.1134 305.539 18.9801 307.539 35.7801C310.039 56.7801 290.539 106.28 285.039 131.78C280.639 152.18 269.206 330.28 264.039 416.78L66.0392 400.28C66.5392 395.113 67.2392 367.28 66.0392 297.28C64.5392 209.78 106.539 87.7801 111.539 71.2801Z" fill="#6EADBF" stroke="black"/>
<path d="M114 217.28C115.6 186.08 134.667 100.613 144 61.7801V51.7801L257.5 41.7801C251.833 74.9468 239.9 145.68 237.5 163.28C235.1 180.88 226.833 262.613 223 301.28L161.5 313.78L107 294.28C108.667 281.613 112.4 248.48 114 217.28Z" fill="#DBDBDB"/>
<path d="M307.657 36.9923L113.661 59.3228C114.119 51.4207 112.674 45.1182 111.539 42.2801L302.039 18.2801C303.039 17.1134 305.539 18.9801 307.539 35.7801C307.586 36.1742 307.625 36.5784 307.657 36.9923Z" fill="#1F5A6C" stroke="black"/>
<path d="M337.539 138.28C339.206 142.447 359.539 347.28 352.539 401.28C336.039 404.28 294.539 411.28 264.039 416.78C269.206 330.28 280.639 152.18 285.039 131.78C290.539 106.28 310.039 56.7801 307.539 35.7801C306.429 26.4531 305.627 22.3892 304.705 20.4524C304.233 19.7597 303.785 19.2222 303.367 18.8544C302.97 18.6173 302.534 18.4732 302.039 18.2801C302.441 18.2326 302.885 18.4314 303.367 18.8544C303.861 19.1502 304.295 19.5909 304.705 20.4524C315.134 35.7448 337.809 126.687 337.539 138.28Z" fill="#457685"/>
<path d="M337.539 138.28C339.206 142.447 359.539 347.28 352.539 401.28C336.039 404.28 294.539 411.28 264.039 416.78C269.206 330.28 280.639 152.18 285.039 131.78C290.539 106.28 310.039 56.7801 307.539 35.7801C305.539 18.9801 304.539 19.2559 302.039 18.2801C310.5 17.2801 337.835 125.558 337.539 138.28Z" stroke="black"/>
<path d="M346.89 227.925L281 173.424C282.795 152.156 284.356 136.934 285.468 131.78C287.308 123.247 290.716 112.028 294.343 100.087C301.554 76.3443 309.631 49.7532 307.968 35.7801C306.857 26.4531 306.055 22.3892 305.133 20.4524C315.562 35.7448 338.237 126.687 337.968 138.28C338.689 140.083 342.905 179.457 346.89 227.925Z" fill="black" fill-opacity="0.3"/>
<path d="M305.133 20.4524C304.661 19.7597 304.214 19.2222 303.795 18.8544C304.29 19.1502 304.724 19.5909 305.133 20.4524Z" fill="black" fill-opacity="0.3"/>
<path d="M303.795 18.8544C303.313 18.4314 302.869 18.2326 302.468 18.2801C302.566 18.3184 302.662 18.3548 302.755 18.3903C303.134 18.534 303.477 18.6643 303.795 18.8544Z" fill="black" fill-opacity="0.3"/>
<path d="M181.201 33.5038L196.158 31.6194C195.647 37.5973 195.282 43.3241 195.5 45.5C195.76 48.104 196.699 50.1655 197.68 52.3202C198.582 54.3029 199.521 56.3644 200 59C200.8 63.4 194.833 81.1667 191 88.5H178C180.167 81.1667 184.8 65.4 186 61C186.969 57.4484 185.435 55.3562 183.689 52.9733C182.731 51.666 181.709 50.2712 181 48.5C180.064 46.1597 180.451 39.8258 181.201 33.5038Z" fill="#54022C"/>
<ellipse cx="176.728" cy="130.263" rx="22.7275" ry="27.5445" transform="rotate(23.1556 176.728 130.263)" fill="#181818"/>
</g>
<defs>
<filter id="filter0_f_704_1643" x="-126.965" y="357.993" width="481.93" height="59.2963" filterUnits="userSpaceOnUse" color-interpolation-filters="sRGB">
<feFlood flood-opacity="0" result="BackgroundImageFix"/>
<feBlend mode="normal" in="SourceGraphic" in2="BackgroundImageFix" result="shape"/>
<feGaussianBlur stdDeviation="1.48241" result="effect1_foregroundBlur_704_1643"/>
</filter>
<clipPath id="clip0_704_1643">
<rect width="432" height="431" fill="white"/>
</clipPath>
</defs>
</svg>
