<svg fill="none" xmlns="http://www.w3.org/2000/svg" viewBox="0 0 221 155"><g opacity=".5" filter="url(#a)"><path d="m9.2.77 201.44 25.26s-1.02 101.18 4.28 123.6c-83.55-11.34-208.76-2.4-208.76-2.4L9.2.78Z" fill="#000"/></g><path fill="#FF0198" d="M10 4h200v140.01H10z"/><path fill-rule="evenodd" clip-rule="evenodd" d="M74.77 63.54v.22l.2.12c.14.08 3.38 1.94 5.34 1.94h.07l.07-.03c.12-.04 3.1-1.12 7.94-3.98 4.46-2.63 11.4-7.33 19.15-14.76 4.64-4.46 12.75-13 15.64-16.05a123.25 123.25 0 0 1-6.5 18.84c-7.13 3.2-11.81 4.09-11.86 4.1l-.35.06.03.36c1.01 12.69 6.26 12.95 6.48 12.95h.16l.11-.1c4.78-4.32 9.17-10.32 13.07-17.83 11.88-6.3 21.97-14.86 25.07-17.6-2.97 10.73-10.82 20.12-13.42 23.03-4.31-.16-10.05-.55-10.33-.57h-.02l-.4-.03-.02.42c0 .11-.06 2.88.7 5.84 1.04 4 3.1 6.36 5.97 6.84l.15.02.12-.08c1.69-1.06 7.42-4.82 11.16-9.18h.11c8.07 0 13.78-1.5 17.16-2.78 1.18-.45 2.16-.89 2.96-1.3a87.38 87.38 0 0 1-11.8 9.2l-.5.32 3.2 2.36.2-.08c11.92-4.37 18.48-11.68 18.55-11.75l.1-.12v-.15c0-3.6-5.6-5.22-5.83-5.28l-.14-.04-.14.06c-8.02 3.8-14.07 5.58-21.26 6.24 7.66-10.54 11.41-22.9 11.45-23.03l.05-.18-.1-.15c-1.14-1.73-3.04-2.98-5.5-3.62-1.77-.46-3.2-.46-3.37-.46h-.17l-.12.12a109.42 109.42 0 0 1-21.52 17.19c2.66-5.9 4.22-10.9 4.64-12.93l.03-.16-.08-.13c-2.2-3.67-9.87-4.26-10.2-4.28l-.2-.01-.12.14-.06.06c-.71.81-8.14 9.19-12.94 14.5-7.34 8.12-20.3 16.5-27.75 20.22 3.6-11.18 10.11-19.53 15-24.6A62.86 62.86 0 0 1 104.8 29c.65 1.03 2.6 4.4 2.6 7.9v.98l3.76-3.84-.01-.18c-.13-1.6-.75-3.66-1.65-5.48-.57-1.15-1.69-3.07-2.8-3.07-5.66 0-17.29 4.69-24.45 17.28-7.47 13.14-7.47 20.62-7.47 20.94Zm40.07-9.85a47.48 47.48 0 0 1-4.66 7.6 12.05 12.05 0 0 1-1.15-5.76c1.88-.48 3.83-1.1 5.81-1.84Zm18.8 3.97c-.7.74-2.03 2.05-3.6 3.26a8 8 0 0 1-1.18-3.64c.71.08 2.25.23 4.78.38Zm-84.82-12.1c3.25 1.7 6.62 3.46 10.01 3.46 6.59 0 10.45-2.68 12.53-4.92a13.23 13.23 0 0 0 2.98-4.95l-.76-.22c-.07.24-1.9 5.97-11.59 5.97-3.22 0-7-2.07-10.66-4.07-3.7-2.03-7.53-4.13-10.87-4.13-6.84 0-10.4 2.69-12.2 4.94A10.83 10.83 0 0 0 26 46.63l.78.13c.01-.05 1.1-4.65 12.04-4.65 3.38 0 6.74 1.75 10 3.45ZM181.4 86.15c3.77 0 6.99.85 9.3 2.46 2.13 1.48 3.3 3.49 3.3 5.64 0 4.29-4.99 6.1-6.97 6.1h-3.47l3.38-.78c.09-.02 2.23-.56 2.23-2.61 0-2.74-3.77-4.2-10.91-4.2a32 32 0 0 0-5.57.6c-2.65.44-5.66.94-10.75.94-3.02 0-6.08-1-9.12-2.96a26.65 26.65 0 0 1-4.81-4.04 67.84 67.84 0 0 1-22.78 17.9l-.09.03h-.09c-.15 0-3.8-.1-6.26-2.94l-.13-.14.03-.19c.02-.07 1.39-7.62 4.57-14.82-2.94-.14-6.1-.16-9.42-.07l-.86 1.6a1688.3 1688.3 0 0 0-3.78 7.09c-1.12 2.11-2.13 4.05-3.1 5.93l-.05.09c-7.32 14.06-11 21.12-23.75 26.79l-.28.12-.2-.24c-.07-.1-1.83-2.35-3.48-5.53-2.23-4.31-3.1-8.07-2.58-11.16.1-.56.21-1.1.33-1.6a16.62 16.62 0 0 1 2-5 7.87 7.87 0 0 1 2.47-2.64l.22-.22 1.81 1.45-.26.32a12 12 0 0 0-1.9 9.68 45.7 45.7 0 0 0 2.9 9.02c1.43-.8 7.63-5.12 16.74-23.81 1.12-2.3 2.32-4.7 3.56-7.15l.66-1.29c-7.6 7.77-14.55 14.53-14.62 14.6l-.2.2-.25-.13c-3.45-1.7-4.43-5.8-4.47-5.97l-.02-.1.04-.12c.9-2.63 3.04-7.44 6.36-14.33a677.06 677.06 0 0 1-21.06 20.55l-.18.17-.23-.08c-2.58-1-4.27-3.5-4.34-3.61l-.08-.13.02-.16a71.3 71.3 0 0 1 3.53-12.97 211.86 211.86 0 0 1-26.57 16.76l-.16.08-.17-.06c-4.04-1.6-5.39-5.79-5.44-5.97l-.03-.07.01-.09c.02-.2.57-5.15 8.08-16.98a38.59 38.59 0 0 1 22.34-16.36l.08-.01c3.54 0 5.05 7.65 5.05 10.7v.2l-3.7 2.94-.05-.77c-.28-5.45-2.1-7.59-2.68-8.14-8.72 5.12-14.4 13.17-17.62 19.04a63.18 63.18 0 0 0-4.74 10.93c13.79-6.77 25.34-16.08 29.76-19.85.26-.38.51-.74.77-1.08 6-8.16 12.9-11.17 17.63-12.27 5.13-1.19 8.8-.45 8.95-.42l.07.02 4.42 2.72-.16.33c-.09.18-8.82 17.94-11.05 22.42a38 38 0 0 0-2.55 6.5c3.93-3.43 10.17-9.55 18.14-17.8l.22-.41c4.18-7.77 7.42-13.38 10.03-17.88l.01-.01.57-.99.3.1c.05.01 4.48 1.46 3.97 6.02v.08l-.05.07-.01.02c-.27.48-4.03 7.16-7.97 14.42 2.56.23 5.98.52 8.93.66a30.9 30.9 0 0 1 2.53-3.86c5.88-7.54 13.4-12.82 18.28-12.82a4.6 4.6 0 0 1 4.3 2.63c.62 1.29 1.52 4.9-3.12 10.57-4.34 5.3-9.51 7.68-16.75 7.71-4.17 7.73-5.27 11.47-5.57 12.88 2.91-1.4 14.72-7.36 23.31-15.73l.34-.33.8 1.15c1.05 1.12 4.3 3.35 13.49 3.35 3.84 0 6.64-.68 9.34-1.35 2.7-.66 5.49-1.34 9.28-1.34Zm-35.27-16.69c-1.48.34-6.35 2.29-13.14 13.52a16.4 16.4 0 0 0 8.02-3.71c2.63-2.33 4.35-5.62 5.12-9.8ZM71.37 99.08c5.07-4.47 16.04-15.35 27.04-29.72-2.88.34-12.43 2.41-20.13 14.85-4.82 7.8-6.4 12.8-6.9 14.87Z" fill="#fff"/><path fill="url(#b)" fill-opacity=".5" d="M103 26h107v118H103z"/><path opacity=".3" fill="url(#c)" d="M10 4h200v8H10z"/><defs><linearGradient id="b" x1="210" y1="144" x2="205.25" y2="129.97" gradientUnits="userSpaceOnUse"><stop stop-color="#fff"/><stop offset="1" stop-color="#fff" stop-opacity="0"/></linearGradient><linearGradient id="c" x1="110" y1="4" x2="110" y2="12" gradientUnits="userSpaceOnUse"><stop offset=".01" stop-color="#959595" stop-opacity="0"/><stop offset=".33" stop-color="#fff"/><stop offset="1" stop-color="#fff" stop-opacity="0"/></linearGradient><filter id="a" x=".91" y="-4.48" width="219.26" height="159.35" filterUnits="userSpaceOnUse" color-interpolation-filters="sRGB"><feFlood flood-opacity="0" result="BackgroundImageFix"/><feBlend in="SourceGraphic" in2="BackgroundImageFix" result="shape"/><feGaussianBlur stdDeviation="2.63" result="effect1_foregroundBlur_207:96"/></filter></defs></svg>