<svg fill="none" xmlns="http://www.w3.org/2000/svg" viewBox="0 0 164 100">
  <path fill-rule="evenodd" clip-rule="evenodd" d="M22.18 19.58c3.17 1.65 6.44 3.35 9.74 3.35 6.4 0 10.15-2.59 12.18-4.76 2.2-2.35 2.87-4.69 2.9-4.79l-.75-.21c-.07.24-1.85 5.77-11.26 5.77-3.13 0-6.8-2-10.37-3.94-3.6-1.96-7.32-3.98-10.56-3.98-6.65 0-10.12 2.6-11.86 4.77A10.45 10.45 0 0 0 0 20.62l.76.12c.01-.05 1.07-4.5 11.7-4.5 3.29 0 6.56 1.7 9.72 3.34ZM47.41 36.97v.22l.2.11c.13.08 3.28 1.88 5.19 1.88h.07l.06-.02c.12-.05 3-1.1 7.72-3.86a102.28 102.28 0 0 0 18.61-14.27 580.15 580.15 0 0 0 15.2-15.54 118.84 118.84 0 0 1-6.3 18.24c-6.94 3.09-11.5 3.95-11.54 3.95l-.34.07.03.34c.98 12.28 6.08 12.53 6.3 12.53h.15l.12-.1c4.64-4.18 8.91-9.98 12.7-17.24 11.55-6.1 21.35-14.37 24.37-17.02-2.9 10.37-10.52 19.46-13.05 22.27-4.28-.16-10-.55-10.05-.55l-.4-.03-.02.4c0 .12-.06 2.8.69 5.65 1 3.87 3 6.16 5.8 6.62l.14.02.12-.08c1.64-1.02 7.22-4.65 10.84-8.87h.12c7.84 0 13.39-1.46 16.68-2.7 1.14-.43 2.1-.86 2.87-1.24a84.92 84.92 0 0 1-11.47 8.9l-.48.3 3.1 2.28.2-.08c11.59-4.22 17.97-11.3 18.03-11.37l.1-.1v-.16c0-3.48-5.44-5.04-5.67-5.1l-.14-.05-.13.07c-7.8 3.67-13.67 5.4-20.67 6.03 7.45-10.19 11.1-22.15 11.14-22.27l.05-.18-.1-.15c-1.11-1.66-2.96-2.87-5.35-3.5-1.78-.46-3.23-.44-3.29-.44h-.15l-.11.12a106.27 106.27 0 0 1-20.93 16.62c2.59-5.7 4.1-10.54 4.51-12.5l.03-.15-.08-.13c-2.14-3.55-9.6-4.12-9.9-4.14l-.2-.02-.12.14c-.08.09-7.76 8.7-12.64 14.08-7.13 7.86-19.73 15.96-26.98 19.56 3.5-10.81 9.84-18.89 14.59-23.8 4.5-4.65 8.44-7.4 9.56-8.14.63 1 2.53 4.27 2.53 7.65v.95l3.66-3.72-.02-.17a15.64 15.64 0 0 0-1.6-5.3C80.61 1.85 79.52 0 78.44 0c-5.5 0-16.8 4.54-23.77 16.72-7.26 12.7-7.26 19.95-7.26 20.25Zm38.96-9.52a45.89 45.89 0 0 1-4.54 7.35 11.61 11.61 0 0 1-1.11-5.57 55.54 55.54 0 0 0 5.65-1.78Zm18.27 3.84c-.69.72-1.97 1.98-3.5 3.15-.35-.54-1.01-1.77-1.15-3.52.7.08 2.18.22 4.65.37Z" fill="#fff"/>
  <path fill-rule="evenodd" clip-rule="evenodd" d="M160.1 61.22c-2.24-1.55-5.37-2.38-9.04-2.38-3.69 0-6.4.67-9.02 1.3-2.62.65-5.34 1.31-9.08 1.31-8.93 0-12.1-2.16-13.12-3.25l-.77-1.1-.32.31c-8.35 8.1-19.84 13.86-22.66 15.22.28-1.36 1.36-4.98 5.4-12.45 7.04-.03 12.07-2.34 16.29-7.46 4.51-5.5 3.63-8.99 3.04-10.23a4.48 4.48 0 0 0-4.19-2.54c-4.75 0-12.05 5.1-17.77 12.4a29.86 29.86 0 0 0-2.46 3.74c-2.86-.14-6.19-.42-8.68-.65 3.96-7.25 7.72-13.9 7.76-13.97l.04-.07.01-.08c.5-4.4-3.81-5.8-3.86-5.82l-.29-.1-.56.97c-2.53 4.35-5.7 9.78-9.75 17.3l-.21.4c-7.76 7.98-13.82 13.9-17.64 17.23.36-1.3 1.11-3.57 2.48-6.3 2.16-4.33 10.65-21.52 10.74-21.69l.15-.32-4.3-2.63-.06-.02c-.15-.03-3.71-.74-8.7.41-4.6 1.06-11.3 3.98-17.14 11.87-.25.33-.5.67-.75 1.04-4.3 3.65-15.52 12.66-28.93 19.2.54-1.7 1.98-5.8 4.6-10.57 3.15-5.68 8.66-13.46 17.14-18.42.57.54 2.33 2.6 2.6 7.88l.05.74 3.6-2.85v-.19c0-2.94-1.47-10.35-4.91-10.35h-.08c-.14.04-3.41.74-7.75 3.04-4 2.12-9.66 6.07-13.96 12.8-7.31 11.44-7.84 16.23-7.86 16.43v.08l.02.07c.05.17 1.36 4.23 5.3 5.77l.15.07.16-.08A206.2 206.2 0 0 0 41.6 61.06a68.7 68.7 0 0 0-3.43 12.55l-.03.15.09.13c.07.1 1.7 2.53 4.21 3.49l.23.08.17-.16c.13-.12 11.95-11.08 20.48-19.88-3.24 6.66-5.32 11.32-6.2 13.86l-.03.1.03.11c.03.17.98 4.13 4.33 5.78l.25.12.2-.2c.07-.06 6.82-6.6 14.2-14.11a448.97 448.97 0 0 0-4.1 8.16C63.15 89.32 57.12 93.5 55.73 94.27a44.05 44.05 0 0 1-2.82-8.72 11.57 11.57 0 0 1 1.85-9.37l.26-.3-1.77-1.4-.2.2c-.27.15-1.34.84-2.42 2.55a16.04 16.04 0 0 0-1.94 4.84c-.11.48-.22 1-.31 1.56-.51 2.98.33 6.61 2.5 10.78a36.58 36.58 0 0 0 3.4 5.36l.18.23.27-.12c12.4-5.48 15.97-12.3 23.08-25.92.97-1.84 1.96-3.74 3.07-5.82l3.68-6.86.83-1.54c3.23-.09 6.3-.07 9.16.06a71.89 71.89 0 0 0-4.44 14.34l-.03.19.12.14a8.9 8.9 0 0 0 6.09 2.84h.09l.08-.04a65.88 65.88 0 0 0 22.15-17.31c.92.97 2.54 2.53 4.67 3.9 2.95 1.9 5.94 2.87 8.87 2.87 4.95 0 7.87-.48 10.45-.91 1.85-.3 3.44-.57 5.41-.57 6.94 0 10.61 1.4 10.61 4.05 0 1.99-2.08 2.5-2.17 2.53l-3.29.76h3.38c1.93 0 6.77-1.76 6.77-5.9 0-2.09-1.14-4.03-3.21-5.47ZM104 55.78c6.6-10.86 11.34-12.75 12.78-13.07-.75 4.04-2.42 7.23-4.97 9.48a15.98 15.98 0 0 1-7.8 3.6ZM70.4 42.61C59.7 56.5 49.02 67.03 44.1 71.35c.5-2 2.03-6.84 6.72-14.38C58.3 44.94 67.6 42.94 70.4 42.6Z" fill="#fff"/>
</svg>
